<svg xmlns="http://www.w3.org/2000/svg" width="139.854" height="304.279" viewBox="0 0 139.854 304.279">
  <g id="banana" transform="translate(-1528.593 -108)">
    <path id="Path_113" data-name="Path 113" d="M51,0c33.411,4.615-4.954,43.331-6.963,87.894C42.363,125.03,51,164.733,51,164.733H0s-10.032-39,0-76.839C11.668,43.889,28.056.307,51,0Z" transform="translate(1570 108)" fill="#fffcdf"/>
    <path id="Path_117" data-name="Path 117" d="M2.836,26.586c33.411,4.615,43.21,16.745,41.2,61.308C42.363,125.03,51,164.733,51,164.733H0s-10.032-39,0-76.839C11.668,43.889-20.108,26.893,2.836,26.586Z" transform="matrix(-0.978, 0.208, -0.208, -0.978, 1656.619, 427.68)" fill="#ffe700"/>
    <g id="Path_114" data-name="Path 114" transform="translate(1633.867 349.832) rotate(174)" fill="#fffcdf">
      <path d="M 53.29531478881836 83.19786834716797 L 1.723139762878418 83.19786834716797 C 2.76520848274231 75.77131652832031 7.132850170135498 45.28262329101563 12.73242282867432 15.1441068649292 C 16.48934364318848 -5.076733589172363 20.05588340759277 -21.17879295349121 23.33302307128906 -32.71481323242188 C 25.26294326782227 -39.50845336914063 27.10468292236328 -44.74899291992188 28.80704307556152 -48.29083251953125 C 31.16252326965332 -53.19147491455078 32.54994201660156 -53.43971252441406 32.80416107177734 -53.43971252441406 C 33.14544296264648 -53.43971252441406 33.63250350952148 -53.07419204711914 34.14046096801758 -52.43687438964844 C 34.84336090087891 -51.55497360229492 35.57060241699219 -50.18969345092773 36.30198287963867 -48.37891387939453 C 37.73008346557617 -44.84309387207031 39.16782379150391 -39.60841369628906 40.57522201538086 -32.82025527954102 C 42.9665641784668 -21.28641319274902 45.29702377319336 -5.186413764953613 47.50186157226563 15.03252601623535 C 50.8052978515625 45.32582092285156 52.83694839477539 75.97325897216797 53.29531478881836 83.19786834716797 Z" stroke="none"/>
      <path d="M 32.76309967041016 -51.74659729003906 C 32.22574996948242 -51.25235748291016 31.0258846282959 -49.80012512207031 29.29656219482422 -45.72624969482422 C 27.64216232299805 -41.82890319824219 25.85694313049316 -36.36042785644531 23.99046325683594 -29.4726676940918 C 20.8083610534668 -17.72996520996094 17.36284255981445 -1.792766571044922 13.74960327148438 17.89625549316406 C 8.732025146484375 45.23754501342773 4.774738311767578 72.36016845703125 3.44970703125 81.69785308837891 L 51.69588851928711 81.69785308837891 C 51.10623168945313 72.62125396728516 49.23838424682617 45.48775482177734 46.31882476806641 18.05543518066406 C 44.23186492919922 -1.553766250610352 42.0254020690918 -17.4654655456543 39.76072311401367 -29.23766708374023 C 38.43276214599609 -36.14066314697266 37.07744216918945 -41.64368438720703 35.732421875 -45.59384918212891 C 34.33223724365234 -49.70606231689453 33.25780487060547 -51.21986389160156 32.76309967041016 -51.74659729003906 M 32.80416107177734 -54.93972778320313 C 46.52708435058594 -54.93972778320313 54.89168167114258 84.69785308837891 54.89168167114258 84.69785308837891 L 3.814697265625e-06 84.69785308837891 C 3.814697265625e-06 84.69785308837891 19.08124160766602 -54.93972778320313 32.80416107177734 -54.93972778320313 Z" stroke="none" fill="#ffe700"/>
    </g>
    <g id="Path_115" data-name="Path 115" transform="translate(1647.372 328.089) rotate(174)" fill="#fffcdf">
      <path d="M 22.77956008911133 59.32484817504883 L 2.515565395355225 59.32484817504883 C 1.239021897315979 57.73232269287109 -2.669069766998291 52.62007904052734 -6.325506687164307 45.40646743774414 C -8.913606643676758 40.30051422119141 -10.87182331085205 35.15456771850586 -12.14572334289551 30.1115665435791 C -13.7286901473999 23.8450984954834 -14.25305652618408 17.72081565856934 -13.70429039001465 11.90883255004883 C -13.05482387542725 5.030582427978516 -11.24524021148682 -2.559434175491333 -8.325790405273438 -10.65036773681641 C -5.860623359680176 -17.48228454589844 -2.678956747055054 -24.49356651306152 1.130826473236084 -31.48945045471191 C 4.225043296813965 -37.17135238647461 7.676976680755615 -42.69373321533203 10.85072612762451 -47.03933334350586 C 12.29813957214355 -49.02117538452148 13.45143890380859 -50.43736267089844 14.33382225036621 -51.42852783203125 C 13.8389720916748 -49.95746231079102 13.14061260223389 -48.07775115966797 12.33944320678711 -45.92128372192383 C 7.935943126678467 -34.06859970092773 -0.2606568336486816 -12.00625038146973 0.8902431726455688 8.729266166687012 C 1.688526511192322 23.11141586303711 8.163176536560059 36.78373336791992 13.4541597366333 45.72081756591797 C 17.09934234619141 51.87796020507813 20.63696098327637 56.62685394287109 22.77956008911133 59.32484817504883 Z" stroke="none"/>
      <path d="M 9.434506416320801 -42.38192749023438 C 6.943601608276367 -38.64703750610352 4.391402244567871 -34.38631439208984 2.067878246307373 -30.06972885131836 C -1.617630958557129 -23.22283744812012 -4.689812660217285 -16.37872886657715 -7.063302993774414 -9.727492332458496 C -9.852649688720703 -1.910983562469482 -11.58455848693848 5.415962219238281 -12.21093940734863 12.04983520507813 C -12.74224853515625 17.67699813842773 -12.23483085632324 23.61514472961426 -10.70272254943848 29.69928932189941 C -9.462121963500977 34.62592315673828 -7.551194190979004 39.65883636474609 -5.023030281066895 44.65823364257813 C -1.771556854248047 51.08797454833984 1.687951564788818 55.82508850097656 3.242621421813965 57.82485198974609 L 19.73075485229492 57.82485198974609 C 17.63146591186523 55.02286148071289 14.92523670196533 51.15004730224609 12.163405418396 46.48498153686523 C 6.787278175354004 37.40407180786133 0.2076234817504883 23.49685287475586 -0.6074485778808594 8.812379837036133 C -1.653899192810059 -10.04122734069824 4.870538711547852 -29.86180877685547 9.434506416320801 -42.38192749023438 M 16.24493408203125 -54.93972778320313 C 19.41011428833008 -54.93972778320313 0.6954784393310547 -21.84638404846191 2.387932777404785 8.646125793457031 C 3.900824069976807 35.90258026123047 25.96724128723145 60.82485198974609 25.96724128723145 60.82485198974609 L 1.805459976196289 60.82485198974609 C 1.805459976196289 60.82485198974609 -17.68028450012207 38.06103515625 -15.1976490020752 11.7678165435791 C -12.25728607177734 -19.37296485900879 12.9589147567749 -54.93972778320313 16.24493408203125 -54.93972778320313 Z" stroke="none" fill="#ffe700"/>
    </g>
    <g id="Path_116" data-name="Path 116" transform="translate(1582.65 335.734) rotate(174)" fill="#fffcdf">
      <path d="M 16.72928237915039 63.74322509765625 L 2.797958374023438 62.49861145019531 C 4.753456592559814 59.77018356323242 8.244132041931152 54.62083435058594 11.98465061187744 47.77651596069336 C 17.13575172424316 38.35115051269531 23.70626831054688 23.84281730651855 25.75566673278809 8.250801086425781 C 28.12755012512207 -9.794698715209961 24.52248382568359 -28.97179794311523 22.13693428039551 -41.66169738769531 C 21.50856781005859 -45.00429916381836 20.96588516235352 -47.89106369018555 20.66568374633789 -50.08291625976563 C 20.51253509521484 -51.20108032226563 20.43126678466797 -52.07061386108398 20.41721725463867 -52.74121475219727 C 20.41618347167969 -52.79060745239258 20.41554832458496 -52.8380012512207 20.41526794433594 -52.88344192504883 C 21.20628356933594 -52.16813659667969 22.63754653930664 -50.58464813232422 24.88891792297363 -47.12424850463867 C 27.6419677734375 -42.89273071289063 30.66630172729492 -37.28356552124023 33.40478515625 -31.32998275756836 C 36.59059906005859 -24.40391540527344 39.36955261230469 -17.06491470336914 41.44120025634766 -10.10641574859619 C 43.88320159912109 -1.903932094573975 45.38411712646484 5.811867713928223 45.90225219726563 12.82670116424561 C 46.35245132446289 18.92173385620117 45.10233306884766 25.38725090026855 42.18666839599609 32.04365158081055 C 39.82699966430664 37.43068313598633 36.37963485717773 42.95135116577148 31.94033432006836 48.45230102539063 C 25.3687572479248 56.595458984375 18.52307510375977 62.3010139465332 16.72928237915039 63.74322509765625 Z" stroke="none"/>
      <path d="M 22.5102367401123 -47.97520065307617 C 22.80465126037598 -46.22880172729492 23.18681144714355 -44.1959114074707 23.6111011505127 -41.93885040283203 C 26.0142650604248 -29.15526962280273 29.64595603942871 -9.83656120300293 27.24288368225098 8.446257591247559 C 25.16328239440918 24.26798439025879 18.51333808898926 38.95829391479492 13.30089950561523 48.49585723876953 C 10.34775543212891 53.89946746826172 7.542915344238281 58.26497268676758 5.511661529541016 61.23507690429688 L 16.25596618652344 62.19498062133789 C 18.53010749816895 60.32754898071289 24.79414558410645 54.92951965332031 30.81364631652832 47.45991134643555 C 35.15846252441406 42.06843948364258 38.52730178833008 36.66849517822266 40.82657241821289 31.41009330749512 C 43.63320922851563 24.99138450622559 44.83760833740234 18.77620315551758 44.40631866455078 12.93718433380127 C 43.15302658081055 -4.030797004699707 36.38724517822266 -21.10606956481934 32.46578979492188 -29.77423477172852 C 29.83782768249512 -35.58321380615234 26.89851951599121 -41.14528656005859 24.18930053710938 -45.43587112426758 C 23.57012557983398 -46.41646194458008 23.01114273071289 -47.25664901733398 22.5102367401123 -47.97520065307617 M 19.76901054382324 -54.93972778320313 C 24.11897277832031 -54.93972778320313 45.08332061767578 -18.62403297424316 47.39817428588867 12.71620273590088 C 49.45499038696289 40.56269454956055 17.19137191772461 65.29049682617188 17.19137191772461 65.29049682617188 L -7.62939453125e-06 63.75460433959961 C -7.62939453125e-06 63.75460433959961 20.35957336425781 37.79450988769531 24.26846504211426 8.05531120300293 C 28.15997314453125 -21.55170631408691 15.61746597290039 -54.93972778320313 19.76901054382324 -54.93972778320313 Z" stroke="none" fill="#ffe700"/>
    </g>
  </g>
</svg>
