<svg xmlns="http://www.w3.org/2000/svg" width="79.743" height="102.913" viewBox="0 0 79.743 102.913">
  <g id="cherry" transform="translate(-1168.288 -884.128)">
    <path id="Icon_awesome-apple-alt" data-name="Icon awesome-apple-alt" d="M62.451,9.185a17.439,17.439,0,0,1,11.377,7.476,33.359,33.359,0,0,1,5.333,13.884,44.268,44.268,0,0,1-.178,15.308Q76.85,58.489,70.45,67.033,62.8,77.358,51.25,77.357a13.5,13.5,0,0,1-6.223-1.78,10.048,10.048,0,0,0-10.313,0,13.5,13.5,0,0,1-6.223,1.78q-11.555,0-19.2-10.324Q2.891,58.49.758,45.852A44.268,44.268,0,0,1,.58,30.545,33.359,33.359,0,0,1,5.913,16.661,17.439,17.439,0,0,1,17.29,9.185q4.267-.713,11.733,1.246A49.286,49.286,0,0,1,39.869,14.7a49.286,49.286,0,0,1,10.845-4.272q7.47-1.957,11.737-1.246Z" transform="translate(1168.289 909.684)" fill="#ff6565"/>
    <path id="Path_70" data-name="Path 70" d="M.851,40.5s-3.164-11.724,0-21.85S13.508,0,13.508,0" transform="translate(1205.946 884.5)" fill="none" stroke="#707070" stroke-width="1"/>
  </g>
</svg>
