<svg xmlns="http://www.w3.org/2000/svg" xmlns:xlink="http://www.w3.org/1999/xlink" width="108.361" height="87.439" viewBox="0 0 108.361 87.439">
  <defs>
    <linearGradient id="linear-gradient" x1="0.5" x2="0.496" y2="1.342" gradientUnits="objectBoundingBox">
      <stop offset="0" stop-color="#da8f55"/>
      <stop offset="1" stop-color="#6d482b"/>
    </linearGradient>
    <linearGradient id="linear-gradient-2" x1="0.49" y1="-0.196" x2="0.451" y2="1.815" xlink:href="#linear-gradient"/>
  </defs>
  <g id="cinnamon" transform="matrix(0.809, 0.588, -0.588, 0.809, -60.513, -1101.747)">
    <g id="c2">
      <rect id="Rectangle_43" data-name="Rectangle 43" width="109" height="13" rx="6.5" transform="matrix(0.616, -0.788, 0.788, 0.616, 727.401, 898.231)" fill="url(#linear-gradient)"/>
      <path id="Path_59" data-name="Path 59" d="M73.5,0c3.038,0,4.405,2.6,4.405,5.638S73.5,11,73.5,11l-.253-3.269L0,5.5,73.175,4.076Z" transform="matrix(0.616, -0.788, 0.788, 0.616, 746.64, 875.167)" fill="#573b25"/>
    </g>
    <g id="c1" transform="translate(-327.008 498.161) rotate(-30)">
      <rect id="Rectangle_43-2" data-name="Rectangle 43" width="109" height="13" rx="6.5" transform="matrix(0.616, -0.788, 0.788, 0.616, 727.401, 898.231)" fill="url(#linear-gradient-2)"/>
      <path id="Path_59-2" data-name="Path 59" d="M73.5,0c3.038,0,4.405,2.6,4.405,5.638S73.5,11,73.5,11l-.253-3.269L0,5.5,73.175,4.076Z" transform="matrix(0.616, -0.788, 0.788, 0.616, 746.64, 875.167)" fill="#573b25"/>
    </g>
  </g>
</svg>
