<svg xmlns="http://www.w3.org/2000/svg" viewBox="0 0 82 82"><defs/><g transform="translate(-501 -520)"><g fill="#fcfcc5" stroke="#f0a94d" stroke-width="5" data-name="Ellipse 3" transform="translate(501 520)"><circle cx="41" cy="41" r="41" stroke="none"/><circle cx="41" cy="41" r="38.5" fill="none"/></g><path fill="#fcdb7f" d="M541.579 564.557l8 26.079-8 2.364-7.242-2.364s6.963-27.131 7.242-26.079z" data-name="Path 3"/><path fill="#fcdb7f" d="M542.09 557.975l-7.543-26.215 8.04-2.224 7.2 2.49s-7.436 27.006-7.697 25.95z" data-name="Path 4"/><path fill="#fcdb7f" d="M538.61 560.762l-26.215 7.557-2.228-8.04 2.487-7.202s27.013 7.424 25.956 7.685z" data-name="Path 5"/><path fill="#fcdb7f" d="M545.179 561.39l26.333-7.08 2.082 8.075-2.616 7.152s-26.86-7.905-25.799-8.147z" data-name="Path 6"/><path fill="#fcdb7f" d="M539.886 558.623l-24.31-12.373 3.86-7.395 6.733-3.564s14.668 23.862 13.717 23.332z" data-name="Path 7"/><path fill="#fcdb7f" d="M544.268 563.567l24.097 12.783-3.985 7.329-6.792 3.449s-14.261-24.108-13.32-23.561z" data-name="Path 8"/><path fill="#fcdb7f" d="M544.662 559.302l13.617-23.636 7.185 4.238 3.21 6.91s-24.591 13.41-24.012 12.488z" data-name="Path 9"/><path fill="#fcdb7f" d="M539.5 563.417l-14.028 23.396-7.11-4.364-3.09-6.963s24.822-12.98 24.227-12.069z" data-name="Path 10"/><circle cx="3" cy="3" r="3" fill="#f9e3c2" data-name="Ellipse 4" transform="translate(539 558)"/></g></svg>