<svg xmlns="http://www.w3.org/2000/svg" width="163.341" height="104.755" viewBox="0 0 163.341 104.755">
  <g id="mint" transform="translate(-915 -213.566)">
    <path id="Icon_ionic-ios-leaf" data-name="Icon ionic-ios-leaf" d="M91.449,72.789c-11.24-1.736-12.086-2.539-12.086-2.539C82.748,54.193,74.5,37.463,62.807,27.807c-15.58-12.846-39.253-3.515-57.7-23.044C.813.206,3.308,55.864,26.4,76.955c16.882,15.406,36.758,10.676,42.2,8.159,4.947-2.3,8.4-7.356,8.4-7.356C86,80.579,90.451,80.839,90.451,80.839,93.619,81.23,95.225,73.375,91.449,72.789Zm-19.92,1.606C54.669,69.339,40,56.818,30.5,47.011a.885.885,0,0,1,1.193-1.3A131.956,131.956,0,0,0,73.634,69.122,8.091,8.091,0,0,1,71.529,74.395Z" transform="translate(911.624 230.501)" fill="#27961b"/>
    <path id="Icon_ionic-ios-leaf-2" data-name="Icon ionic-ios-leaf" d="M91.449,72.789c-11.24-1.736-12.086-2.539-12.086-2.539C82.748,54.193,74.5,37.463,62.807,27.807c-15.58-12.846-39.253-3.515-57.7-23.044C.813.206,3.308,55.864,26.4,76.955c16.882,15.406,36.758,10.676,42.2,8.159,4.947-2.3,8.4-7.356,8.4-7.356C86,80.579,90.451,80.839,90.451,80.839,93.619,81.23,95.225,73.375,91.449,72.789Zm-19.92,1.606C54.669,69.339,40,56.818,30.5,47.011a.885.885,0,0,1,1.193-1.3A131.956,131.956,0,0,0,73.634,69.122,8.091,8.091,0,0,1,71.529,74.395Z" transform="translate(1068.136 209.528) rotate(81)" fill="#4b8529"/>
  </g>
</svg>
