<svg xmlns="http://www.w3.org/2000/svg" width="203" height="202.673" viewBox="0 0 203 202.673">
  <g id="pineapple" transform="translate(-580.999 -313.001)">
    <path id="Subtraction_7" data-name="Subtraction 7" d="M-5314.261,79.6-5323,51.927l-8.713,27.591a100.694,100.694,0,0,1-30.295-7.567,101.515,101.515,0,0,1-17.242-9.359c-1.812-1.224-3.611-2.527-5.348-3.873l13.751-26.445-27.074,14.078a102.662,102.662,0,0,1-8.746-11.176,101.6,101.6,0,0,1-9.357-17.242A100.868,100.868,0,0,1-5424-21.572a100.871,100.871,0,0,1,7.977-39.509,101.6,101.6,0,0,1,9.357-17.242,102.266,102.266,0,0,1,12.4-15.021,102.11,102.11,0,0,1,15.021-12.394,101.5,101.5,0,0,1,17.242-9.359c2.373-1,4.809-1.926,7.241-2.742l20.662,17.63-5.532-21.429a102.682,102.682,0,0,1,17.137-1.434,102.428,102.428,0,0,1,19.278,1.821l1.717,17.747,8.6-15.19a101.608,101.608,0,0,1,9.911,3.6,101.546,101.546,0,0,1,17.242,9.359,102.11,102.11,0,0,1,15.021,12.394c1.379,1.378,2.744,2.824,4.056,4.3l-12.117,14.713,19.488-5.4c.326.465.651.938.967,1.405a101.516,101.516,0,0,1,9.358,17.242A100.881,100.881,0,0,1-5221-21.572a100.877,100.877,0,0,1-7.976,39.507,101.525,101.525,0,0,1-9.358,17.242A102.184,102.184,0,0,1-5250.729,50.2a102.366,102.366,0,0,1-9.851,8.659L-5291.8,41.926l13.815,27.741c-1.648.806-3.334,1.574-5.011,2.284a100.7,100.7,0,0,1-31.269,7.65h0ZM-5322-60.072c-22.607,0-41,17.5-41,39s18.393,39,41,39,41-17.5,41-39S-5299.392-60.072-5322-60.072Z" transform="translate(6005 436.072)" fill="#ffeb34"/>
  </g>
</svg>
