<svg xmlns="http://www.w3.org/2000/svg" width="246.628" height="279.812" viewBox="0 0 246.628 279.812">
  <g id="watermelon" transform="translate(-366.841 -605.101)">
    <path id="Path_119" data-name="Path 119" d="M123,0c67.931,0,123,59.322,123,132.5S190.931,265,123,265,0,205.678,0,132.5,55.069,0,123,0Z" transform="translate(367 613)" fill="#254a1c"/>
    <path id="Path_118" data-name="Path 118" d="M-7.73-2.368,29.525,10.381,85.688,0l25.9,10.381L174.419,0,219.3,10.381,258.754.4,250.948,34l-48.32-10.5L174.419,34,150.056,23.5,85.688,34,56.452,23.5l-57.9,3.7Z" transform="matrix(-0.208, 0.978, -0.978, -0.208, 510.557, 619.732)" fill="#3bac43"/>
    <path id="Path_120" data-name="Path 120" d="M.606-1.393,29.525,10.381,85.688,0l25.9,10.381L174.419,0,219.3,10.381,250.633-1.06l6.886,32.394L202.628,23.5,174.419,34,150.056,23.5,85.688,34,56.452,23.5l-64.8,9.156Z" transform="matrix(-0.208, 0.978, -0.978, -0.208, 556.557, 632.732)" fill="#3bac43"/>
    <path id="Path_121" data-name="Path 121" d="M12.639-1.115,26.556,9.616,77.4-.09l23.448,9.707L157.729-.09l40.628,9.707,15.723-4.4,16.338,24.415-47.151-7.75L157.729,31.7l-22.056-9.817L77.4,31.7,50.933,21.886-8.286,27.08Z" transform="matrix(-0.208, 0.978, -0.978, -0.208, 593.228, 656.01)" fill="#3bac43"/>
    <path id="Path_122" data-name="Path 122" d="M5.606-1.115l9.239,7.724L48.6-.378,64.165,6.609,101.927-.378,128.9,6.609l10.438-3.164,20.457,16.1-40.913-4.1-16.954,7.066L87.284,15.44,48.6,22.506,31.028,15.44l-49.439-3.812Z" transform="matrix(-0.208, 0.978, -0.978, -0.208, 608.551, 705.58)" fill="#3bac43"/>
    <path id="Path_123" data-name="Path 123" d="M6.421,1.458l23.1,8.923L85.688,0l25.9,10.381L174.419,0,219.3,10.381,246.62,4.573l-19.963,22.09L202.628,23.5,174.419,34,150.056,23.5,85.688,34,56.452,23.5,20.694,20.734Z" transform="matrix(-0.208, 0.978, -0.978, -0.208, 465.557, 608.732)" fill="#3bac43"/>
    <path id="Path_124" data-name="Path 124" d="M6.421.694l16.806,4.25L64.08,0,82.92,4.944,128.623,0l32.644,4.944,19.875-2.766L166.621,12.7l-17.479-1.506-20.519,5-17.722-5-46.822,5-21.266-5L16.8,9.876Z" transform="matrix(-0.208, 0.978, -0.978, -0.208, 420.344, 631.714)" fill="#3bac43"/>
  </g>
</svg>
