<?xml version="1.0" encoding="UTF-8" standalone="no"?>
<svg
   xmlns:dc="http://purl.org/dc/elements/1.1/"
   xmlns:cc="http://creativecommons.org/ns#"
   xmlns:rdf="http://www.w3.org/1999/02/22-rdf-syntax-ns#"
   xmlns:svg="http://www.w3.org/2000/svg"
   xmlns="http://www.w3.org/2000/svg"
   xmlns:sodipodi="http://sodipodi.sourceforge.net/DTD/sodipodi-0.dtd"
   xmlns:inkscape="http://www.inkscape.org/namespaces/inkscape"
   width="1820.5123"
   height="484.60129"
   viewBox="0 0 1820.5123 484.60129"
   version="1.1"
   id="svg256"
   sodipodi:docname="Mask Group 1.svg"
   inkscape:version="0.92.4 (5da689c313, 2019-01-14)">
  <metadata
     id="metadata260">
    <rdf:RDF>
      <cc:Work
         rdf:about="">
        <dc:format>image/svg+xml</dc:format>
        <dc:type
           rdf:resource="http://purl.org/dc/dcmitype/StillImage" />
        <dc:title></dc:title>
      </cc:Work>
    </rdf:RDF>
  </metadata>
  <sodipodi:namedview
     pagecolor="#ffffff"
     bordercolor="#666666"
     borderopacity="1"
     objecttolerance="10"
     gridtolerance="10"
     guidetolerance="10"
     inkscape:pageopacity="0"
     inkscape:pageshadow="2"
     inkscape:window-width="1920"
     inkscape:window-height="1001"
     id="namedview258"
     showgrid="false"
     inkscape:zoom="0.52902063"
     inkscape:cx="672.59032"
     inkscape:cy="257.5477"
     inkscape:window-x="-9"
     inkscape:window-y="-9"
     inkscape:window-maximized="1"
     inkscape:current-layer="Group_21"
     fit-margin-top="0"
     fit-margin-left="0"
     fit-margin-right="0"
     fit-margin-bottom="0" />
  <defs
     id="defs138">
    <clipPath
       id="clip-path">
      <rect
         id="Rectangle_1"
         data-name="Rectangle 1"
         width="1920"
         height="1080"
         x="0"
         y="0"
         style="fill:#ffffff;stroke:#707070;stroke-width:1" />
    </clipPath>
  </defs>
  <g
     id="Mask_Group_1"
     data-name="Mask Group 1"
     clip-path="url(#clip-path)"
     transform="translate(-25.19484,-236.34903)">
    <g
       id="SPRITZ_1"
       data-name="SPRITZ 1"
       transform="translate(188.571)">
      <g
         id="Group_1"
         data-name="Group 1">
        <path
           id="Path_1"
           data-name="Path 1"
           d="m -17.005356,519.89802 c 2.645,-13.114 7.053,-18.735 7.053,-18.735 l 100.176,-130.594 h -58.959 l 15.871,-25.787 c 1.984,-3.2 1.433,-4.629 0.22,-5.29 -1.212,-0.771 -2.645,-0.551 -4.518,2.755 l -16.31,28.322 H -152.00536 l 100.176004,130.592 c 0,0 4.408,5.62 7.053,18.735 a 82.075,82.075 0 0 1 1.543,16.42 v 117.588 a 28.621,28.621 0 0 1 -17.082,26.339 c -0.22,0.11 -0.331,0.11 -0.551,0.22 l -51.465004,19.506 c 0,0 -29.094,12.894 81.551004,16.641 110.645,-3.857 81.551,-16.641 81.551,-16.641 l -51.6860004,-19.506 c -0.22,-0.11 -0.331,-0.11 -0.551,-0.22 a 28.393,28.393 0 0 1 -17.0819996,-26.339 v -117.588 a 82.075,82.075 0 0 1 1.543,-16.418 z"
           inkscape:connector-curvature="0"
           style="fill:#282829" />
        <path
           id="Path_2"
           data-name="Path 2"
           d="m 538.42129,311.97165 a 47.738,47.738 0 0 0 -47.718,47.718 51.559,51.559 0 0 0 1.433,11.792 h -168.833 c -1.212,59.841 34.714,75.82 34.714,75.82 19.616,10.029 22.482,28.433 22.482,28.433 2.976,36.147 21.931,44.412 21.931,44.412 a 18.513,18.513 0 0 1 10.029,15.429 l -0.551,91.249 c 0.661,50.033 -21.931,56.865 -21.931,56.865 l -30.637,11.242 a 40.672,40.672 0 0 0 -7.053,3.2 c -36.147,20.5 74.5,19.837 74.5,19.837 0,0 110.645,0.551 74.5,-19.837 a 51.039,51.039 0 0 0 -7.053,-3.2 l -30.637,-11.241 c 0,0 -22.592,-6.833 -21.931,-56.865 l -0.551,-91.249 a 18.513,18.513 0 0 1 10.025,-15.425 c 0,0 18.955,-8.265 21.931,-44.412 0,0 2.976,-18.4 22.592,-28.433 0,0 15.649,-6.943 25.9,-28.873 a 96.817,96.817 0 0 0 4.739,-12.563 51.254,51.254 0 0 0 12.343,1.653 47.774,47.774 0 1 0 -0.22,-95.547 z"
           inkscape:connector-curvature="0"
           style="fill:#282829" />
        <path
           id="Path_3"
           data-name="Path 3"
           d="m 992.463,269.325 a 47.738,47.738 0 0 0 -47.718,47.718 51.562,51.562 0 0 0 1.433,11.792 h -83.756 c -12.559,50.364 -14.659,78.576 -14.659,78.576 -10.469,100.065 54.992,130.482 54.992,130.482 l 9.918,36.147 0.551,82.322 a 66.583,66.583 0 0 1 -0.551,13.665 c -1.763,11.792 -10.58,21.38 -22.041,24.906 l -29.755,8.927 a 16.806,16.806 0 0 0 -6.5,3.416 c -16.31,14.547 69.759,13.665 69.869,13.665 0.11,0 86.18,0.882 69.869,-13.665 a 16.067,16.067 0 0 0 -6.5,-3.416 l -29.755,-8.927 a 31.028,31.028 0 0 1 -22.041,-24.906 74.966,74.966 0 0 1 -0.551,-13.665 l 0.551,-82.322 9.918,-36.147 c 0,0 65.571,-30.416 54.992,-130.482 0,0 -1.1,-15.1 -6.612,-42.759 v 0 a 47.679,47.679 0 0 0 -1.653,-95.327 z"
           inkscape:connector-curvature="0"
           style="fill:#282829" />
        <path
           id="Path_4"
           data-name="Path 4"
           d="m 1549.9142,621.28692 c 13.445,6.612 13.335,15.208 11.571,20.5 a 22.354,22.354 0 0 1 -3.526,6.061 c -8.4861,11.02 1.2119,22.812 1.2119,22.812 5.29,7.824 0.2201,15.759 -3.967,20.278 a 28.567,28.567 0 0 1 -14,7.824 l -30.526,7.273 c -27.331,14 51.135,16.31 68.767,16.31 17.632,0 96.208,-2.314 68.767,-16.31 l -30.526,-7.273 a 27.732,27.732 0 0 1 -14,-7.824 c -4.188,-4.518 -9.257,-12.453 -3.967,-20.278 0,0 9.7,-11.792 1.212,-22.812 a 22.351,22.351 0 0 1 -3.526,-6.061 c -1.763,-5.29 -1.873,-13.886 11.571,-20.5 0,0 63.037,-25.457 54.882,-85.959 a 79.573,79.573 0 0 0 -4.3,-16.751 c -8.816,-24.355 -37.69,-128.608 -1.653,-184.482 h -30.416 l 13,-62.927 -13.776,-2.865 -13.665,65.792 h -112.3 c 36.147,55.873 7.273,160.237 -1.653,184.482 a 79.6,79.6 0 0 0 -4.3,16.751 c -7.8069,60.502 55.1191,85.959 55.1191,85.959 z"
           inkscape:connector-curvature="0"
           style="fill:#282829" />
        <path
           id="Path_5"
           data-name="Path 5"
           d="m 263.89614,700.05419 c -33.282,-10.58 -32.4,-22.261 -32.4,-22.261 v -95.54703 a 21.2,21.2 0 0 1 3.857,-12.233 c 54.882,-78.134 26.674,-279.367 26.674,-279.367 h -78.249 c 0,0 -28.1,201.122 26.669,279.367 a 20.946,20.946 0 0 1 3.857,12.233 v 95.54903 c 0,0 0.882,11.682 -32.4,22.261 0,0 -24.024,6.833 -4.188,10.8 a 209.578,209.578 0 0 0 45.184,3.306 209.578,209.578 0 0 0 45.184,-3.306 c 19.837,-3.969 -4.188,-10.802 -4.188,-10.802 z"
           inkscape:connector-curvature="0"
           style="fill:#282829" />
        <path
           id="Path_6"
           data-name="Path 6"
           d="m 772.709,318.807 13.447,-78.134 -14.988,-2.535 -13.886,80.669 H 623.056 c -3.747,60.612 8.265,100.286 14.657,116.486 a 374.377,374.377 0 0 1 20.5,74.829 891.206,891.206 0 0 1 9.477,88.935 c 2.314,28.653 -4.739,53.229 -8.816,64.8 a 54.95,54.95 0 0 1 -5.4,10.8 c -8.6,13.776 -4.188,28.763 -4.188,28.763 5.731,19.4 62.486,15.208 62.486,15.208 0,0 56.645,4.188 62.486,-15.208 0,0 4.408,-14.988 -4.188,-28.763 a 54.944,54.944 0 0 1 -5.4,-10.8 c -4.078,-11.571 -11.02,-36.147 -8.816,-64.8 a 854.524,854.524 0 0 1 9.478,-88.935 367.153,367.153 0 0 1 20.5,-74.829 c 6.392,-16.2 18.4,-55.873 14.657,-116.486 z"
           inkscape:connector-curvature="0"
           style="fill:#282829" />
        <path
           id="Path_7"
           data-name="Path 7"
           d="m 1216.0834,353.4768 c -15.318,-35.265 13.335,-61.6 13.335,-61.6 h -156.0489 c 0,0 28.653,26.339 13.335,61.6 a 59.241,59.241 0 0 1 -7.824,12.894 c -9.147,11.9 -39.122,56.865 -25.127,113.4 7.714,31.3 29.755,57.416 59.841,68.988 1.1,0.441 2.094,0.771 3.2,1.212 a 25,25 0 0 1 11.682,7.824 c 3.416,4.188 6.5,10.58 6.5,19.947 l 0.551,97.531 c 0,0 2.424,18.955 -38.461,30.637 0,0 -30.086,9.478 17.412,8.927 h 73.837 c 47.5,0.551 17.412,-8.927 17.412,-8.927 -40.886,-11.571 -38.571,-30.637 -38.571,-30.637 l 0.551,-97.531 c 0,-9.478 3.086,-15.869 6.5,-19.947 a 25,25 0 0 1 11.682,-7.824 27.439,27.439 0 0 0 3.2,-1.212 c 30.086,-11.461 52.127,-37.69 59.841,-68.988 14,-56.645 -16.09,-101.5 -25.127,-113.4 a 63.432,63.432 0 0 1 -7.7201,-12.894 z"
           inkscape:connector-curvature="0"
           style="fill:#282829" />
        <path
           id="Path_8"
           data-name="Path 8"
           d="m 1385.7045,295.5068 h -75.6 l 9.367,330.171 -4.628,69.98 c 0,0 0,22.812 70.861,22.812 70.861,0 70.861,-22.812 70.861,-22.812 l -4.629,-69.98 9.367,-330.171 h -75.6 z"
           inkscape:connector-curvature="0"
           style="fill:#282829" />
      </g>
      <g
         id="Group_21"
         data-name="Group 21">
        <g
           id="Group_4"
           data-name="Group 4"
           transform="translate(-367.58416,215.19802)">
          <g
             id="Group_3"
             data-name="Group 3">
            <path
               id="Path_9"
               data-name="Path 9"
               d="m 406.873,484.788 -51.465,-19.506 c -0.22,-0.11 -0.331,-0.11 -0.551,-0.22 A 28.393,28.393 0 0 1 337.775,438.723 V 321.135 a 82.075,82.075 0 0 1 1.543,-16.42 c 2.645,-13.114 7.053,-18.735 7.053,-18.735 L 446.547,155.388 H 204.208 L 304.384,285.98 c 0,0 4.408,5.62 7.053,18.735 a 82.077,82.077 0 0 1 1.543,16.42 v 117.587 a 28.621,28.621 0 0 1 -17.08,26.339 c -0.22,0.11 -0.331,0.11 -0.551,0.22 l -51.465,19.506 c 0,0 -29.094,12.894 81.551,16.641 110.532,-3.746 81.438,-16.64 81.438,-16.64 z"
               inkscape:connector-curvature="0"
               style="fill:#bae3e5" />
            <path
               id="Path_10"
               data-name="Path 10"
               d="m 325.322,171.588 h -91.469 l 20.278,27.11 h 142.383 l 20.388,-27.11 z"
               inkscape:connector-curvature="0"
               style="fill:#dff2f3" />
            <path
               id="Path_11"
               data-name="Path 11"
               d="m 396.514,198.7 -51.134,68.435 a 14.875,14.875 0 0 1 -11.9,5.951 h -16.31 a 14.569,14.569 0 0 1 -5.841,-1.212 15.706,15.706 0 0 1 -6.061,-4.739 L 254.02,198.7 Z"
               inkscape:connector-curvature="0"
               style="fill:#bb2025" />
            <path
               id="Path_12"
               data-name="Path 12"
               d="m 318.38,432.551 c 0,0 -3.2,33.171 -14.988,38.461 L 270.331,487.1 a 1.746,1.746 0 0 0 0.551,3.306 c 3.637,0.331 8.376,0.771 12.784,1.1 a 12.281,12.281 0 0 0 8.155,-2.424 l 11.131,-8.155 a 36.532,36.532 0 0 0 14.548,-22.147 88.421,88.421 0 0 0 0.88,-26.229 z"
               inkscape:connector-curvature="0"
               style="fill:#eff9fe" />
            <path
               id="Path_13"
               data-name="Path 13"
               d="m 332.375,432.551 c 0,0 3.2,33.171 14.988,38.461 l 33.171,16.09 a 1.746,1.746 0 0 1 -0.551,3.306 c -3.637,0.331 -8.376,0.771 -12.784,1.1 a 12.281,12.281 0 0 1 -8.155,-2.424 l -11.131,-8.155 a 36.532,36.532 0 0 1 -14.547,-22.151 81.041,81.041 0 0 1 -0.991,-26.227 z"
               inkscape:connector-curvature="0"
               style="fill:#eff9fe" />
            <path
               id="Path_14"
               data-name="Path 14"
               d="m 311.327,281.571 c 4.188,4.188 6.833,9.808 8.816,15.539 a 69.69,69.69 0 0 1 3.086,17.743 c 0.441,11.9 0.441,23.694 0.551,35.6 0,11.792 -0.11,23.694 -0.441,35.486 l -0.551,17.743 c -0.331,5.951 -0.551,11.792 -0.882,17.743 -0.441,-5.951 -0.661,-11.792 -0.992,-17.743 l -0.551,-17.743 c -0.331,-11.792 -0.441,-23.694 -0.441,-35.486 0,-11.792 0.11,-23.694 0.331,-35.486 a 70.07,70.07 0 0 0 -1.984,-17.3 40.441,40.441 0 0 0 -6.942,-16.096 z"
               inkscape:connector-curvature="0"
               style="fill:#eff9fe" />
            <path
               id="Path_15"
               data-name="Path 15"
               d="m 403.678,124.2 c -1.212,-0.771 -2.645,-0.551 -4.518,2.755 l -82.213,142.935 86.51,-140.4 c 1.984,-3.196 1.433,-4.519 0.221,-5.29 z"
               inkscape:connector-curvature="0"
               style="fill:#754c29" />
            <g
               id="Group_2"
               data-name="Group 2">
              <path
                 id="Path_16"
                 data-name="Path 16"
                 d="m 373.151,216.22 c -10.139,17.082 -26.449,26.229 -36.367,20.388 -4.629,-2.755 -7.053,-8.265 -7.163,-15.1 -0.331,-7.824 2.314,-17.412 7.714,-26.559 10.139,-17.082 26.449,-26.229 36.367,-20.278 6.171,3.637 8.376,12.453 6.612,22.7 v 0.11 a 56.7,56.7 0 0 1 -7.163,18.739 z"
                 inkscape:connector-curvature="0"
                 style="fill:#87ab4c" />
              <path
                 id="Path_17"
                 data-name="Path 17"
                 d="m 367.531,178.09 c -5.29,-0.11 -13.776,6.612 -15.869,8.706 -7.163,6.943 -11.351,16.42 -13.776,25.9 a 106.469,106.469 0 0 1 15.429,-18.955 38.69,38.69 0 0 1 6.612,-5.29 15.878,15.878 0 0 1 5.29,-2.2 c 1.763,-0.331 3.637,-0.22 5.069,-1.322 a 3.759,3.759 0 0 0 0.992,-4.739 3.989,3.989 0 0 0 -3.747,-2.1 z"
                 inkscape:connector-curvature="0"
                 style="fill:#d0e28e" />
              <path
                 id="Path_18"
                 data-name="Path 18"
                 d="m 373.151,216.22 c -10.139,17.082 -26.449,26.229 -36.367,20.388 -4.629,-2.755 -7.053,-8.265 -7.163,-15.1 5.29,9.257 13.665,9.037 13.665,9.037 20.057,1.1 36.257,-31.408 37.029,-33.282 a 55.968,55.968 0 0 1 -7.164,18.957 z"
                 inkscape:connector-curvature="0"
                 style="fill:#608c3d" />
            </g>
          </g>
          <path
             id="Path_19"
             data-name="Path 19"
             d="m 307.469,258.759 a 3.1,3.1 0 0 1 -2.314,-1.1 l -57.527,-76.592 a 2.8320214,2.8320214 0 1 1 4.518,-3.416 l 57.527,76.592 a 2.817,2.817 0 0 1 -0.551,3.967 2.319,2.319 0 0 1 -1.653,0.549 z"
             inkscape:connector-curvature="0"
             style="fill:#ffffff" />
        </g>
        <g
           id="Group_7"
           data-name="Group 7"
           transform="translate(-187.12871,216.53465)">
          <g
             id="Group_6"
             data-name="Group 6"
             transform="translate(-34)">
            <path
               id="Path_20"
               data-name="Path 20"
               d="m 793.249,143.155 a 47.738,47.738 0 0 1 -47.718,47.718 45.706,45.706 0 0 1 -12.343,-1.653 44.262,44.262 0 0 1 -7.273,-2.645 45.1,45.1 0 0 1 -5.069,-2.755 48.233,48.233 0 0 1 -14.879,-14.22 46.735,46.735 0 0 1 -5.731,-11.792 30.412,30.412 0 0 1 -0.882,-2.976 46.092,46.092 0 0 1 -1.433,-11.792 47.663032,47.663032 0 1 1 95.326,0.11 z"
               inkscape:connector-curvature="0"
               style="fill:#87ab4c" />
            <circle
               id="Ellipse_1"
               data-name="Ellipse 1"
               cx="42.98"
               cy="42.98"
               r="42.98"
               transform="translate(702.551,100.176)"
               style="fill:#d0e28e" />
            <circle
               id="Ellipse_2"
               data-name="Ellipse 2"
               cx="2.9760001"
               cy="2.9760001"
               r="2.9760001"
               transform="translate(742.555,140.18)"
               style="fill:#87ab4c" />
            <g
               id="Group_5"
               data-name="Group 5">
              <path
                 id="Path_21"
                 data-name="Path 21"
                 d="M 750.931,142.273 782.78,137.2 c 0,0 0.441,-5.62 -3.967,-13.224 -4.408,-7.604 -9.478,-10.029 -9.478,-10.029 l -20.388,24.906 a 6.022,6.022 0 0 1 1.984,3.42 z"
                 inkscape:connector-curvature="0"
                 style="fill:#e6f0cd" />
              <path
                 id="Path_22"
                 data-name="Path 22"
                 d="m 740.131,142.273 a 4.962,4.962 0 0 1 1.984,-3.306 l -20.277,-25.016 c 0,0 -5.18,2.424 -9.478,10.029 -4.408,7.6 -3.967,13.224 -3.967,13.224 z"
                 inkscape:connector-curvature="0"
                 style="fill:#e6f0cd" />
              <path
                 id="Path_23"
                 data-name="Path 23"
                 d="m 745.531,137.645 a 6.24,6.24 0 0 1 1.984,0.331 L 758.975,108 c 0,0 -4.629,-3.2 -13.445,-3.2 -8.816,0 -13.445,3.2 -13.445,3.2 l 11.461,30.086 a 4.322,4.322 0 0 1 1.985,-0.441 z"
                 inkscape:connector-curvature="0"
                 style="fill:#e6f0cd" />
              <path
                 id="Path_24"
                 data-name="Path 24"
                 d="m 750.931,143.927 a 4.962,4.962 0 0 1 -1.984,3.306 l 20.278,25.016 c 0,0 5.18,-2.424 9.477,-10.029 4.408,-7.6 3.967,-13.224 3.967,-13.224 z"
                 inkscape:connector-curvature="0"
                 style="fill:#e6f0cd" />
              <path
                 id="Path_25"
                 data-name="Path 25"
                 d="m 745.531,148.555 a 6.24,6.24 0 0 1 -1.984,-0.331 l -11.461,30.086 c 0,0 4.629,3.2 13.445,3.2 8.816,0 13.445,-3.2 13.445,-3.2 l -11.461,-30.086 a 6.24,6.24 0 0 1 -1.984,0.331 z"
                 inkscape:connector-curvature="0"
                 style="fill:#e6f0cd" />
              <path
                 id="Path_26"
                 data-name="Path 26"
                 d="M 740.131,143.927 708.282,149 c 0,0 -0.441,5.62 3.967,13.224 4.408,7.604 9.478,10.029 9.478,10.029 L 742,147.233 a 5.5,5.5 0 0 1 -1.869,-3.306 z"
                 inkscape:connector-curvature="0"
                 style="fill:#e6f0cd" />
            </g>
            <path
               id="Path_27"
               data-name="Path 27"
               d="m 737.265,154.947 c 0.441,20.388 -3.527,35.706 -8.816,46.947 -10.249,21.931 -25.9,28.873 -25.9,28.873 -19.614,10.033 -22.59,28.433 -22.59,28.433 -2.976,36.147 -21.931,44.412 -21.931,44.412 A 18.513,18.513 0 0 0 648,319.041 l 0.551,91.249 c -0.661,50.033 21.931,56.865 21.931,56.865 l 30.636,11.245 a 40.675,40.675 0 0 1 7.053,3.2 c 36.147,20.5 -74.5,19.837 -74.5,19.837 0,0 -110.645,0.551 -74.5,-19.837 a 51.045,51.045 0 0 1 7.053,-3.2 l 30.637,-11.241 c 0,0 22.592,-6.833 21.931,-56.865 l 0.551,-91.249 a 18.513,18.513 0 0 0 -10.029,-15.429 c 0,0 -18.955,-8.265 -21.931,-44.412 0,0 -2.976,-18.4 -22.482,-28.433 0,0 -35.927,-15.98 -34.714,-75.82 h 207.078 z"
               inkscape:connector-curvature="0"
               style="fill:#bae3e5" />
            <path
               id="Path_28"
               data-name="Path 28"
               d="m 623.865,439.935 a 36.486,36.486 0 0 1 -0.771,5.069 46.169,46.169 0 0 1 -26.669,32.29 c -7.494,3.306 -17.853,8.6 -14.327,10.8 0,0 8.816,5.731 20.5,-1.322 0.002,-10e-4 22.259,-13.445 21.267,-46.837 z"
               inkscape:connector-curvature="0"
               style="fill:#eff9fe" />
            <path
               id="Path_29"
               data-name="Path 29"
               d="m 626.069,323.008 c 0.771,8.6 1.1,17.082 1.322,25.678 0.331,8.6 0.331,17.082 0.441,25.678 0,8.6 -0.11,17.082 -0.441,25.678 l -0.441,12.784 c -0.331,4.3 -0.441,8.6 -0.882,12.784 -0.441,-4.3 -0.551,-8.6 -0.882,-12.784 l -0.441,-12.784 c -0.331,-8.6 -0.331,-17.082 -0.441,-25.678 0,-8.6 0.11,-17.082 0.441,-25.678 0.222,-8.596 0.663,-17.086 1.324,-25.678 z"
               inkscape:connector-curvature="0"
               style="fill:#eff9fe" />
            <path
               id="Path_30"
               data-name="Path 30"
               d="m 720.625,186.576 c -0.992,18.955 -14.437,30.086 -24.355,35.706 a 68.8,68.8 0 0 0 -11.682,8.486 59.483,59.483 0 0 0 -17.853,29.865 c -0.882,3.306 -1.212,5.4 -1.212,5.4 -3.967,33.392 -31.739,32.841 -31.739,32.841 0,0 -27.661,0.441 -31.739,-32.841 0,0 -0.331,-2.094 -1.212,-5.4 a 59.483,59.483 0 0 0 -17.853,-29.865 64.687,64.687 0 0 0 -11.682,-8.486 c -9.918,-5.62 -23.363,-16.751 -24.465,-35.706 z"
               inkscape:connector-curvature="0"
               style="fill:#d7ce68" />
            <path
               id="Path_31"
               data-name="Path 31"
               d="m 643.7,439.935 a 36.482,36.482 0 0 0 0.771,5.069 46.169,46.169 0 0 0 26.669,32.29 c 7.494,3.306 17.853,8.6 14.327,10.8 0,0 -8.816,5.731 -20.5,-1.322 0.004,-10e-4 -22.257,-13.445 -21.267,-46.837 z"
               inkscape:connector-curvature="0"
               style="fill:#eff9fe" />
            <path
               id="Path_32"
               data-name="Path 32"
               d="m 641.5,323.008 c -0.771,8.6 -1.1,17.082 -1.323,25.678 -0.331,8.6 -0.331,17.082 -0.441,25.678 0,8.6 0.11,17.082 0.441,25.678 l 0.441,12.784 c 0.331,4.3 0.441,8.6 0.882,12.784 0.441,-4.3 0.551,-8.6 0.882,-12.784 l 0.441,-12.784 c 0.331,-8.6 0.331,-17.082 0.441,-25.678 0,-8.6 -0.11,-17.082 -0.441,-25.678 C 642.6,340.09 642.269,331.6 641.5,323.008 Z"
               inkscape:connector-curvature="0"
               style="fill:#eff9fe" />
            <path
               id="Path_33"
               data-name="Path 33"
               d="m 633.784,169.714 h -87.5 a 146.11,146.11 0 0 0 0.771,16.861 h 173.68 c 0,0 0.771,-7.494 0.771,-16.861 z"
               inkscape:connector-curvature="0"
               style="fill:#dff2f3" />
          </g>
          <path
             id="Path_34"
             data-name="Path 34"
             d="m 600.069,289.837 a 1.875,1.875 0 0 1 -0.771,-0.11 c -12.673,-3.747 -14.878,-16.531 -16.641,-26.89 -0.441,-2.535 -0.882,-5.069 -1.433,-7.163 -3.306,-13.335 -9.588,-23.363 -18.625,-29.755 a 91.812,91.812 0 0 0 -9.588,-5.731 c -8.265,-4.629 -16.751,-9.257 -21.49,-18.624 -4.3,-8.486 -5.841,-15.539 -5.29,-24.245 a 2.927,2.927 0 0 1 3.086,-2.645 2.86,2.86 0 0 1 2.645,3.086 c -0.551,7.714 0.771,13.665 4.629,21.269 3.967,7.825 11.351,11.9 19.175,16.31 A 115.37,115.37 0 0 1 565.8,221.4 c 10.249,7.163 17.3,18.294 20.939,33.061 0.551,2.424 0.992,4.959 1.543,7.6 1.653,9.7 3.416,19.616 12.563,22.371 a 2.83,2.83 0 0 1 1.984,3.527 2.892,2.892 0 0 1 -2.76,1.878 z"
             inkscape:connector-curvature="0"
             style="fill:#ffffff" />
        </g>
        <g
           id="Group_10"
           data-name="Group 10"
           transform="translate(-33.415,25.772)">
          <g
             id="Group_9"
             data-name="Group 9"
             transform="translate(-11.681,193.63)">
            <path
               id="Path_35"
               data-name="Path 35"
               d="m 1073.167,97.641 a 47.68,47.68 0 0 1 -45.955,47.718 h -1.763 a 49.389,49.389 0 0 1 -7.053,-0.551 c -1.763,-0.22 -3.637,-0.661 -5.29,-0.992 -2.424,-0.771 -4.959,-1.653 -7.273,-2.645 a 45.1,45.1 0 0 1 -5.069,-2.755 48.233,48.233 0 0 1 -14.878,-14.216 46.549,46.549 0 0 1 -3.967,-7.273 c -0.661,-1.433 -1.212,-2.976 -1.763,-4.518 a 30.394,30.394 0 0 1 -0.882,-2.976 v 0 a 46.092,46.092 0 0 1 -1.433,-11.792 47.663,47.663 0 1 1 95.326,0 z"
               inkscape:connector-curvature="0"
               style="fill:#e27f26" />
            <circle
               id="Ellipse_3"
               data-name="Ellipse 3"
               cx="42.98"
               cy="42.98"
               r="42.98"
               transform="translate(982.469,54.661)"
               style="fill:#f9ad4b" />
            <circle
               id="Ellipse_4"
               data-name="Ellipse 4"
               cx="2.9760001"
               cy="2.9760001"
               r="2.9760001"
               transform="translate(1022.473,94.665)"
               style="fill:#e27f26" />
            <g
               id="Group_8"
               data-name="Group 8">
              <path
                 id="Path_36"
                 data-name="Path 36"
                 d="M 1030.849,96.759 1062.7,91.69 c 0,0 0.441,-5.62 -3.967,-13.224 -4.408,-7.604 -9.477,-10.029 -9.477,-10.029 l -20.278,25.016 a 5.281,5.281 0 0 1 1.871,3.306 z"
                 inkscape:connector-curvature="0"
                 style="fill:#ffec97" />
              <path
                 id="Path_37"
                 data-name="Path 37"
                 d="m 1020.159,96.759 a 4.962,4.962 0 0 1 1.984,-3.306 l -20.388,-25.016 c 0,0 -5.18,2.424 -9.478,10.029 -4.408,7.6 -3.967,13.224 -3.967,13.224 z"
                 inkscape:connector-curvature="0"
                 style="fill:#ffec97" />
              <path
                 id="Path_38"
                 data-name="Path 38"
                 d="m 1025.449,92.131 a 6.241,6.241 0 0 1 1.984,0.331 l 11.461,-30.086 c 0,0 -4.629,-3.2 -13.445,-3.2 -8.816,0 -13.445,3.2 -13.445,3.2 l 11.571,30.2 a 5.192,5.192 0 0 1 1.874,-0.445 z"
                 inkscape:connector-curvature="0"
                 style="fill:#ffec97" />
              <path
                 id="Path_39"
                 data-name="Path 39"
                 d="m 1030.849,98.522 a 4.962,4.962 0 0 1 -1.984,3.306 l 20.277,25.016 c 0,0 5.18,-2.424 9.478,-10.029 4.408,-7.6 3.967,-13.224 3.967,-13.224 z"
                 inkscape:connector-curvature="0"
                 style="fill:#ffec97" />
              <path
                 id="Path_40"
                 data-name="Path 40"
                 d="m 1025.449,103.041 a 6.24,6.24 0 0 1 -1.984,-0.331 L 1012,132.8 c 0,0 4.629,3.2 13.445,3.2 8.816,0 13.445,-3.2 13.445,-3.2 l -11.461,-30.086 a 5.764,5.764 0 0 1 -1.98,0.327 z"
                 inkscape:connector-curvature="0"
                 style="fill:#ffec97" />
              <path
                 id="Path_41"
                 data-name="Path 41"
                 d="m 1020.159,98.522 -31.849,5.069 c 0,0 -0.441,5.62 3.967,13.224 4.408,7.604 9.478,10.029 9.478,10.029 l 20.278,-25.016 a 5.584,5.584 0 0 1 -1.874,-3.306 z"
                 inkscape:connector-curvature="0"
                 style="fill:#ffec97" />
            </g>
            <path
               id="Path_42"
               data-name="Path 42"
               d="m 1020.71,484.457 -29.755,-8.927 a 31.028,31.028 0 0 1 -22.041,-24.906 74.966,74.966 0 0 1 -0.551,-13.665 l 0.551,-82.322 9.918,-36.147 c 0,0 65.571,-30.416 54.992,-130.482 0,0 -2.094,-28.322 -14.657,-78.576 H 895.518 c -12.563,50.363 -14.657,78.576 -14.657,78.576 -10.469,100.065 54.992,130.482 54.992,130.482 l 9.918,36.147 0.551,82.322 a 66.587,66.587 0 0 1 -0.551,13.665 c -1.763,11.792 -10.58,21.38 -22.041,24.906 l -29.755,8.927 a 16.806,16.806 0 0 0 -6.5,3.416 c -16.31,14.547 69.759,13.665 69.869,13.665 0.11,0 86.18,0.882 69.869,-13.665 a 16.808,16.808 0 0 0 -6.503,-3.416 z"
               inkscape:connector-curvature="0"
               style="fill:#bae3e5" />
            <path
               id="Path_43"
               data-name="Path 43"
               d="m 914.363,484.567 c -0.331,0.11 -0.551,0.331 -0.882,0.441 -4.188,2.976 -1.322,6.5 2.424,7.384 4.188,1.1 8.486,1.763 12.784,0.882 7.163,-1.322 12.012,-7.714 15.649,-13.555 a 49.64,49.64 0 0 0 7.384,-25.567 c -1.763,6.282 -7.494,15.539 -11.682,19.727 -3.527,3.527 -7.273,4.518 -11.9,6.5 a 38.511,38.511 0 0 1 -7.6,2.535 c -1.879,0.661 -4.193,0.772 -6.177,1.653 z"
               inkscape:connector-curvature="0"
               style="fill:#eff9fe" />
            <path
               id="Path_44"
               data-name="Path 44"
               d="m 951.833,356.51 c 0.441,6.282 0.661,12.673 0.882,18.955 0.221,6.282 0.22,12.673 0.331,18.955 0,6.282 -0.11,12.673 -0.22,18.955 -0.22,6.282 -0.441,12.673 -0.882,18.955 -0.441,-6.282 -0.771,-12.673 -0.882,-18.955 -0.22,-6.282 -0.22,-12.673 -0.22,-18.955 0,-6.282 0.11,-12.673 0.331,-18.955 -0.112,-6.281 0.219,-12.565 0.66,-18.955 z"
               inkscape:connector-curvature="0"
               style="fill:#eff9fe" />
            <path
               id="Path_45"
               data-name="Path 45"
               d="m 1000.212,484.567 c 0.331,0.11 0.551,0.331 0.882,0.441 4.188,2.976 1.322,6.5 -2.424,7.384 -4.188,1.1 -8.486,1.763 -12.784,0.882 -7.163,-1.322 -12.012,-7.714 -15.649,-13.555 a 49.639,49.639 0 0 1 -7.384,-25.567 c 1.763,6.282 7.494,15.539 11.682,19.727 3.527,3.527 7.273,4.518 11.9,6.5 a 38.511,38.511 0 0 0 7.6,2.535 c 1.989,0.661 4.304,0.772 6.177,1.653 z"
               inkscape:connector-curvature="0"
               style="fill:#eff9fe" />
            <path
               id="Path_46"
               data-name="Path 46"
               d="m 962.853,356.51 c -0.441,6.282 -0.661,12.673 -0.882,18.955 -0.221,6.282 -0.22,12.673 -0.331,18.955 0,6.282 0.11,12.673 0.22,18.955 0.22,6.282 0.441,12.673 0.882,18.955 0.441,-6.282 0.771,-12.673 0.882,-18.955 0.22,-6.282 0.22,-12.673 0.22,-18.955 0,-6.282 -0.11,-12.673 -0.331,-18.955 10e-4,-6.281 -0.219,-12.565 -0.66,-18.955 z"
               inkscape:connector-curvature="0"
               style="fill:#eff9fe" />
            <path
               id="Path_47"
               data-name="Path 47"
               d="m 1023.686,233.082 c -3.747,24.906 -13.335,48.159 -33.833,62.927 a 57.3,57.3 0 0 1 -31.629,9.478 h -0.771 a 57.8,57.8 0 0 1 -32.51,-9.478 c -20.5,-14.767 -30.086,-37.91 -33.833,-62.927 a 201.075,201.075 0 0 1 -1.763,-35.486 c 1.543,-42.539 14.106,-80.78 14.106,-80.78 h 107.78 c 0,0 12.563,38.131 14.106,80.78 a 201.018,201.018 0 0 1 -1.653,35.486 z"
               inkscape:connector-curvature="0"
               style="fill:#dff2f3" />
            <path
               id="Path_48"
               data-name="Path 48"
               d="m 1023.686,233.082 c -3.747,24.906 -13.335,48.159 -33.833,62.927 a 57.3,57.3 0 0 1 -31.629,9.478 h -0.771 a 57.8,57.8 0 0 1 -32.51,-9.478 c -20.5,-14.767 -30.086,-37.91 -33.833,-62.927 a 201.075,201.075 0 0 1 -1.763,-35.486 h 135.992 a 201.018,201.018 0 0 1 -1.653,35.486 z"
               inkscape:connector-curvature="0"
               style="fill:#e27f26" />
          </g>
          <path
             id="Path_49"
             data-name="Path 49"
             d="m 939.813,491.90312 h -0.445 c -16.751,-2.425 -29.976,-10.69 -39.233,-24.576 -31.959,-48.049 -6.612,-147.343 -5.51,-151.531 a 2.9,2.9 0 0 1 5.62,1.433 c -0.22,0.992 -25.788,100.947 4.739,147.012 8.265,12.453 20.167,19.947 35.265,22.041 a 2.847,2.847 0 0 1 2.425,3.2 3.154,3.154 0 0 1 -2.861,2.421 z"
             inkscape:connector-curvature="0"
             style="fill:#ffffff" />
        </g>
        <g
           id="Group_12"
           data-name="Group 12"
           transform="translate(-29.10165,28.09257)">
          <g
             id="Group_11"
             data-name="Group 11"
             transform="translate(347.52475,188.46535)">
            <path
               id="Path_50"
               data-name="Path 50"
               d="m 1322.339,485.118 -30.526,-7.273 a 27.732,27.732 0 0 1 -14,-7.824 c -4.188,-4.518 -9.257,-12.453 -3.967,-20.278 0,0 9.7,-11.792 1.212,-22.812 a 22.351,22.351 0 0 1 -3.526,-6.061 c -1.763,-5.29 -1.873,-13.886 11.571,-20.5 0,0 63.037,-25.457 54.882,-85.959 a 79.573,79.573 0 0 0 -4.3,-16.751 c -8.816,-24.355 -37.69,-128.608 -1.653,-184.482 h -157.146 c 36.147,55.873 7.273,160.237 -1.653,184.482 a 79.587,79.587 0 0 0 -4.3,16.751 c -8.155,60.5 54.882,85.959 54.882,85.959 13.445,6.612 13.335,15.208 11.571,20.5 a 22.354,22.354 0 0 1 -3.526,6.061 c -8.486,11.02 1.212,22.812 1.212,22.812 5.29,7.824 0.22,15.759 -3.967,20.278 a 28.567,28.567 0 0 1 -14,7.824 l -30.526,7.273 c -27.331,14 51.135,16.31 68.767,16.31 17.632,0 96.323,-2.314 68.993,-16.31 z"
               inkscape:connector-curvature="0"
               style="fill:#bae3e5" />
            <path
               id="Path_51"
               data-name="Path 51"
               d="m 1242.661,459.771 c 0,3.857 -5.069,10.029 -7.273,12.784 -4.3,5.29 -10.359,8.045 -16.641,10.249 -1.763,0.661 -18.4,6.612 -12.894,8.706 10.139,3.967 20.277,0.441 26.89,-5.841 6.722,-6.391 9.918,-16.861 9.918,-25.898 z"
               inkscape:connector-curvature="0"
               style="fill:#eff9fe" />
            <path
               id="Path_52"
               data-name="Path 52"
               d="m 1226.02,395.743 c 5.62,0.771 11.461,3.416 15.1,8.376 3.857,4.959 4.629,11.682 2.865,17.633 a 32.2,32.2 0 0 1 -3.967,8.045 15.427,15.427 0 0 0 -3.086,7.053 c -0.771,5.18 1.433,10.69 4.959,15.1 -4.518,-3.416 -8.155,-9.037 -7.714,-15.318 a 17.575,17.575 0 0 1 3.086,-8.6 29.009,29.009 0 0 0 3.416,-7.273 19.081,19.081 0 0 0 -1.763,-15.1 c -2.867,-4.516 -7.606,-7.822 -12.896,-9.916 z"
               inkscape:connector-curvature="0"
               style="fill:#eff9fe" />
            <path
               id="Path_53"
               data-name="Path 53"
               d="m 1317.049,362.682 c -21.931,32.29 -63.147,32.4 -63.478,32.4 a 88.615,88.615 0 0 1 -27.551,-5.4 c -12.233,-4.3 -26.118,-12.343 -36.037,-27 0,0 -19.837,-27.551 -4.518,-69.869 0.331,-0.992 0.771,-1.984 0.992,-2.976 1.984,-5.951 3.637,-12.122 5.069,-18.294 2.424,-10.69 5.951,-26.89 8.375,-46.065 a 337.018,337.018 0 0 0 2.424,-65.241 h 102.38 c -1.543,23.253 0,45.845 2.424,65.241 2.424,19.176 5.951,35.376 8.375,46.065 a 172.724,172.724 0 0 0 5.069,18.294 l 0.992,2.976 c 15.321,42.318 -4.516,69.869 -4.516,69.869 z"
               inkscape:connector-curvature="0"
               style="fill:#b72025" />
            <path
               id="Path_54"
               data-name="Path 54"
               d="M 1253.461,123.539 H 1192.3 c 7.6,13.114 10.029,36.478 10.029,36.478 H 1304.6 c 0,0 2.424,-23.363 10.029,-36.478 z"
               inkscape:connector-curvature="0"
               style="fill:#dff2f3" />
            <path
               id="Path_55"
               data-name="Path 55"
               d="m 1314.625,123.539 c -4.629,8.045 -7.384,20.057 -8.706,28.1 -0.882,4.959 -1.212,8.376 -1.212,8.376 h -102.38 c 0,0 -2.424,-23.363 -10.029,-36.478 h 122.327 z"
               inkscape:connector-curvature="0"
               style="fill:#dff2f3" />
            <path
               id="Path_56"
               data-name="Path 56"
               d="m 1264.261,459.771 c 0,3.857 5.069,10.029 7.273,12.784 4.3,5.29 10.359,8.045 16.641,10.249 1.763,0.661 18.4,6.612 12.894,8.706 -10.139,3.967 -20.278,0.441 -26.89,-5.841 -6.722,-6.391 -9.918,-16.861 -9.918,-25.898 z"
               inkscape:connector-curvature="0"
               style="fill:#eff9fe" />
            <path
               id="Path_57"
               data-name="Path 57"
               d="m 1281.012,395.743 c -5.62,0.771 -11.461,3.416 -15.1,8.376 -3.857,4.959 -4.629,11.682 -2.865,17.633 a 32.2,32.2 0 0 0 3.967,8.045 15.427,15.427 0 0 1 3.086,7.053 c 0.771,5.18 -1.433,10.69 -4.959,15.1 4.518,-3.416 8.155,-9.037 7.714,-15.318 a 17.574,17.574 0 0 0 -3.086,-8.6 29.014,29.014 0 0 1 -3.416,-7.273 19.081,19.081 0 0 1 1.763,-15.1 c 2.757,-4.516 7.606,-7.822 12.896,-9.916 z"
               inkscape:connector-curvature="0"
               style="fill:#eff9fe" />
            <rect
               id="Rectangle_3"
               data-name="Rectangle 3"
               width="320.37601"
               height="14.107"
               transform="rotate(-78.282,839.70948,-578.59982)"
               x="0"
               y="0"
               style="fill:#f15a29" />
          </g>
          <path
             id="Path_58"
             data-name="Path 58"
             d="m 1591.2978,572.66583 h -0.551 c -18.514,-3.527 -31.739,-11.9 -39.343,-25.016 -12.894,-22.151 -6.833,-52.457 0.441,-74.057 a 264.881,264.881 0 0 0 13,-61.384 c 5.18,-57.747 -5.841,-85.959 -5.951,-86.29 a 2.865,2.865 0 0 1 5.29,-2.2 c 0.441,1.212 11.682,29.645 6.392,88.935 a 265.046,265.046 0 0 1 -13.335,62.706 c -5.73,16.751 -13.335,47.939 -0.882,69.318 6.722,11.571 18.625,19.065 35.486,22.261 a 2.938,2.938 0 0 1 2.314,3.306 2.854,2.854 0 0 1 -2.861,2.421 z"
             inkscape:connector-curvature="0"
             style="fill:#ffffff" />
        </g>
        <g
           id="Group_14"
           data-name="Group 14">
          <g
             id="Group_13"
             data-name="Group 13"
             transform="translate(-113.61386,-318.11881)">
            <path
               id="Path_59"
               data-name="Path 59"
               d="m 366.318,1018.175 c -33.282,-10.58 -32.4,-22.261 -32.4,-22.261 v -95.547 a 21.2,21.2 0 0 1 3.857,-12.233 C 392.657,810 364.445,608.767 364.445,608.767 H 286.2 c 0,0 -28.1,201.123 26.669,279.368 a 20.946,20.946 0 0 1 3.857,12.233 v 95.547 c 0,0 0.882,11.682 -32.4,22.261 0,0 -24.024,6.833 -4.188,10.8 a 209.578,209.578 0 0 0 45.184,3.306 209.578,209.578 0 0 0 45.184,-3.306 c 19.837,-3.968 -4.188,-10.801 -4.188,-10.801 z"
               inkscape:connector-curvature="0"
               style="fill:#bae3e5" />
            <path
               id="Path_60"
               data-name="Path 60"
               d="m 362.9,757.212 c -2.424,50.253 -11.241,109.1 -37.58,126.074 -26.449,-16.971 -35.155,-75.931 -37.58,-126.074 a 763.13,763.13 0 0 1 0.22,-77.8 h 74.829 c 0,0 2.211,35.812 0.111,77.8 z"
               inkscape:connector-curvature="0"
               style="fill:#009eca" />
            <path
               id="Path_61"
               data-name="Path 61"
               d="m 357.612,617.584 h -64.469 c 0,0 -4.078,29.755 -5.18,61.824 h 74.718 c -0.991,-32.069 -5.069,-61.824 -5.069,-61.824 z"
               inkscape:connector-curvature="0"
               style="fill:#dff2f3" />
            <path
               id="Path_62"
               data-name="Path 62"
               d="m 320.584,1001.535 c 0,0 -4.078,8.486 -23.8,18.4 0,0 -7.494,3.527 -2.755,5.731 0,0 7.384,2.425 13.665,-2.424 a 41.743,41.743 0 0 0 12.89,-21.707 z"
               inkscape:connector-curvature="0"
               style="fill:#eff9fe" />
            <path
               id="Path_63"
               data-name="Path 63"
               d="m 330.833,1001.535 c 0,0 4.078,8.486 23.8,18.4 0,0 7.494,3.527 2.755,5.731 0,0 -7.384,2.425 -13.665,-2.424 a 41.743,41.743 0 0 1 -12.89,-21.707 z"
               inkscape:connector-curvature="0"
               style="fill:#eff9fe" />
            <path
               id="Path_64"
               data-name="Path 64"
               d="m 322.347,895.408 c 0.551,7.714 0.771,15.429 0.992,23.143 0.221,7.714 0.22,15.429 0.331,23.143 -0.11,7.714 -0.11,15.429 -0.331,23.143 -0.221,7.714 -0.441,15.429 -0.992,23.143 -0.551,-7.714 -0.771,-15.429 -0.992,-23.143 -0.221,-7.714 -0.22,-15.429 -0.331,-23.143 0.11,-7.714 0.11,-15.429 0.331,-23.143 0.221,-7.714 0.445,-15.429 0.992,-23.143 z"
               inkscape:connector-curvature="0"
               style="fill:#eff9fe" />
          </g>
          <path
             id="Path_65"
             data-name="Path 65"
             d="m 203.77414,546.04772 a 2.808,2.808 0 0 1 -2.645,-1.873 c -33.612,-86.947 -16.643,-227.347 -16.421,-228.784 a 2.8844966,2.8844966 0 1 1 5.731,0.661 c -0.22,1.433 -16.971,140.4 16.09,226.029 a 2.927,2.927 0 0 1 -1.653,3.747 2.181,2.181 0 0 1 -1.102,0.22 z"
             inkscape:connector-curvature="0"
             style="fill:#ffffff" />
        </g>
        <g
           id="Group_16"
           data-name="Group 16"
           transform="translate(68.523,-315.433)">
          <g
             id="Group_15"
             data-name="Group 15">
            <path
               id="Path_66"
               data-name="Path 66"
               d="m 685.029,823.555 a 367.158,367.158 0 0 1 20.5,-74.829 c 6.392,-16.2 18.4,-55.873 14.657,-116.486 H 542.755 c -3.747,60.612 8.265,100.286 14.657,116.486 a 374.377,374.377 0 0 1 20.5,74.829 891.2,891.2 0 0 1 9.477,88.935 c 2.314,28.653 -4.739,53.229 -8.816,64.8 a 54.949,54.949 0 0 1 -5.4,10.8 c -8.6,13.776 -4.188,28.763 -4.188,28.763 5.731,19.4 62.486,15.208 62.486,15.208 0,0 56.645,4.188 62.486,-15.208 0,0 4.408,-14.988 -4.188,-28.763 a 54.949,54.949 0 0 1 -5.4,-10.8 c -4.078,-11.571 -11.02,-36.147 -8.816,-64.8 a 854.571,854.571 0 0 1 9.476,-88.935 z"
               inkscape:connector-curvature="0"
               style="fill:#bae3e5" />
            <path
               id="Path_67"
               data-name="Path 67"
               d="m 710.045,678.086 a 259.566,259.566 0 0 1 -3.857,29.755 158.4,158.4 0 0 1 -7.384,25.9 317.354,317.354 0 0 0 -10.249,31.959 c -6.282,24.906 -15.649,65.351 -17.743,93.453 0,0 -7.824,73.727 0,105.245 0,0 4.188,12.012 -39.343,10.469 -43.531,1.543 -39.343,-10.469 -39.343,-10.469 7.824,-31.518 0,-105.245 0,-105.245 -1.984,-28.1 -11.351,-68.657 -17.743,-93.453 a 269.633,269.633 0 0 0 -10.249,-31.959 147.885,147.885 0 0 1 -7.273,-25.9 c -6.612,-32.951 -4.188,-65.02 -4.188,-65.02 h 157.813 a 315.99,315.99 0 0 1 -0.441,35.265 z"
               inkscape:connector-curvature="0"
               style="fill:#dff2f3" />
            <path
               id="Path_68"
               data-name="Path 68"
               d="m 706.078,707.841 a 158.4,158.4 0 0 1 -7.384,25.9 317.338,317.338 0 0 0 -10.249,31.959 c -6.282,24.9 -15.645,65.349 -17.745,93.451 0,0 -7.824,73.727 0,105.245 0,0 4.188,12.012 -39.343,10.469 -10.359,0.331 -18.073,0 -23.694,-0.882 -18.073,-2.645 -15.649,-9.7 -15.649,-9.7 7.824,-31.518 0,-105.245 0,-105.245 -1.984,-28.1 -11.351,-68.657 -17.743,-93.453 a 269.635,269.635 0 0 0 -10.249,-31.959 147.886,147.886 0 0 1 -7.273,-25.9 h 149.329 z"
               inkscape:connector-curvature="0"
               style="fill:#92c445" />
            <path
               id="Path_69"
               data-name="Path 69"
               d="m 673.677,976.518 a 92.534,92.534 0 0 0 5.51,10.249 54.2,54.2 0 0 1 5.841,12.563 c 1.763,6.392 2.424,14.216 -3.637,17.522 0,0 -13.886,8.375 -43.31,6.061 0,0 30.2,-3.637 33.061,-12.894 0,0 2.2,-6.061 -9.037,-4.739 0,0 -16.751,2.314 -21.49,1.873 0,0 31.078,-5.51 28.1,-14.988 0,0 -0.771,-1.984 -5.18,-2.314 -2.2,-0.22 -4.959,-0.661 -7.163,-1.1 -5.62,-1.1 -14.437,-3.2 -19.065,-3.967 0.003,0.11 28.215,-0.662 36.37,-8.266 z"
               inkscape:connector-curvature="0"
               style="fill:#eff9fe" />
            <rect
               id="Rectangle_4"
               data-name="Rectangle 4"
               width="394.202"
               height="15.208"
               transform="matrix(0.17,-0.985,0.985,0.17,623.948,940.071)"
               x="0"
               y="0"
               style="fill:#dfde2d" />
            <path
               id="Path_70"
               data-name="Path 70"
               d="m 589.261,976.518 a 92.534,92.534 0 0 1 -5.51,10.249 54.2,54.2 0 0 0 -5.841,12.563 c -1.763,6.392 -2.424,14.216 3.637,17.522 0,0 13.886,8.375 43.31,6.061 0,0 -30.2,-3.637 -33.061,-12.894 0,0 -2.2,-6.061 9.037,-4.739 0,0 16.751,2.314 21.49,1.873 0,0 -31.078,-5.51 -28.1,-14.988 0,0 0.771,-1.984 5.18,-2.314 2.2,-0.22 4.959,-0.661 7.163,-1.1 5.62,-1.1 14.437,-3.2 19.065,-3.967 -0.113,0.11 -28.325,-0.662 -36.37,-8.266 z"
               inkscape:connector-curvature="0"
               style="fill:#eff9fe" />
          </g>
          <path
             id="Path_71"
             data-name="Path 71"
             d="m 604.91,959.657 h -0.331 a 2.808,2.808 0 0 1 -2.535,-3.2 c 8.045,-77.033 -7.824,-156.159 -22.592,-208.947 -1.984,-7.053 -4.518,-13.886 -6.943,-20.5 -4.3,-11.792 -8.816,-23.914 -10.139,-37.58 a 185.244,185.244 0 0 1 -0.331,-36.588 2.824,2.824 0 1 1 5.62,0.551 191.726,191.726 0 0 0 0.331,35.486 c 1.323,12.894 5.4,24.245 9.808,36.147 2.424,6.722 5.069,13.665 7.053,20.939 14.88,53.345 30.859,133.135 22.814,211.157 a 2.762,2.762 0 0 1 -2.755,2.535 z"
             inkscape:connector-curvature="0"
             style="fill:#ffffff" />
        </g>
        <g
           id="Group_18"
           data-name="Group 18"
           transform="translate(184.5855,-317.5552)">
          <g
             id="Group_17"
             data-name="Group 17">
            <path
               id="Path_72"
               data-name="Path 72"
               d="m 1027.322,683.926 a 63.888,63.888 0 0 1 -7.824,-12.894 c -15.318,-35.265 13.335,-61.6 13.335,-61.6 H 876.784 c 0,0 28.653,26.339 13.335,61.6 a 59.239,59.239 0 0 1 -7.824,12.894 c -9.147,11.9 -39.122,56.865 -25.127,113.4 7.714,31.3 29.755,57.416 59.841,68.988 1.1,0.441 2.094,0.771 3.2,1.212 a 25,25 0 0 1 11.682,7.824 c 3.416,4.188 6.5,10.58 6.5,19.947 l 0.551,97.531 c 0,0 2.424,18.955 -38.461,30.637 0,0 -30.086,9.477 17.412,8.926 h 73.837 c 47.5,0.551 17.412,-8.926 17.412,-8.926 -40.886,-11.571 -38.461,-30.637 -38.461,-30.637 l 0.551,-97.531 c 0,-9.477 3.086,-15.869 6.5,-19.947 a 25,25 0 0 1 11.682,-7.824 27.422,27.422 0 0 0 3.2,-1.212 c 30.086,-11.461 52.126,-37.69 59.841,-68.988 14.1,-56.534 -15.986,-101.497 -25.133,-113.4 z"
               inkscape:connector-curvature="0"
               style="fill:#bae3e5" />
            <path
               id="Path_73"
               data-name="Path 73"
               d="m 942.355,1002.2 c 0,0 -4.739,12.673 -29.535,22.7 0,0 -7.935,3.526 10.029,2.755 a 13.992,13.992 0 0 0 10.029,-4.739 c 3.746,-4.41 8.595,-11.794 9.477,-20.716 z"
               inkscape:connector-curvature="0"
               style="fill:#eff9fe" />
            <path
               id="Path_74"
               data-name="Path 74"
               d="m 944.339,876.563 c 1.212,18.4 1.543,36.808 1.543,55.323 0,18.4 -0.331,36.808 -1.543,55.322 -1.212,-18.4 -1.543,-36.808 -1.543,-55.322 0,-18.514 0.22,-36.919 1.543,-55.323 z"
               inkscape:connector-curvature="0"
               style="fill:#eff9fe" />
            <path
               id="Path_75"
               data-name="Path 75"
               d="m 1033.714,705.416 c -0.441,-0.771 -0.992,-1.543 -1.433,-2.314 0,0 -5.951,-9.918 -12.012,-18.625 -8.486,-12.233 -12.894,-27.11 -11.241,-41.988 a 71.265,71.265 0 0 1 7.163,-24.135 H 893.865 a 76.653,76.653 0 0 1 7.163,24.135 c 1.653,14.878 -2.755,29.755 -11.241,41.988 -6.061,8.706 -12.012,18.625 -12.012,18.625 a 26.376,26.376 0 0 0 -1.433,2.314 c -16.971,27.22 -14.988,62.6 -14.988,62.6 7.714,97.751 93.894,97.09 93.894,97.09 0,0 86.18,0.661 93.894,-97.09 -0.442,-0.004 1.544,-35.269 -15.428,-62.6 z"
               inkscape:connector-curvature="0"
               style="fill:#dff2f3" />
            <path
               id="Path_76"
               data-name="Path 76"
               d="m 1048.7,768.012 c -0.11,0.882 -0.11,1.763 -0.22,2.645 -9.037,95.106 -93.673,94.445 -93.673,94.445 0,0 -84.637,0.661 -93.673,-94.445 -0.11,-0.882 -0.11,-1.763 -0.22,-2.645 0,0 -1.873,-35.375 14.988,-62.6 h 157.812 c 16.972,27.335 14.986,62.6 14.986,62.6 z"
               inkscape:connector-curvature="0"
               style="fill:#f15a29" />
            <path
               id="Path_77"
               data-name="Path 77"
               d="m 967.371,1002.2 c 0,0 4.739,12.673 29.535,22.7 0,0 7.935,3.526 -10.029,2.755 a 13.993,13.993 0 0 1 -10.029,-4.739 c -3.748,-4.41 -8.705,-11.794 -9.477,-20.716 z"
               inkscape:connector-curvature="0"
               style="fill:#eff9fe" />
            <path
               id="Path_78"
               data-name="Path 78"
               d="m 965.388,876.563 c -1.212,18.4 -1.543,36.808 -1.543,55.323 0,18.4 0.331,36.808 1.543,55.322 1.212,-18.4 1.543,-36.808 1.543,-55.322 0,-18.514 -0.331,-36.919 -1.543,-55.323 z"
               inkscape:connector-curvature="0"
               style="fill:#eff9fe" />
          </g>
          <path
             id="Path_79"
             data-name="Path 79"
             d="m 939.049,856.4 a 1.637,1.637 0 0 1 -0.992,-0.22 c -30.306,-10.8 -52.016,-30.527 -61.163,-55.653 -11.131,-30.857 -6.612,-64.91 13.224,-98.523 1.1,-1.873 2.314,-3.857 3.527,-5.841 12.343,-20.5 27.771,-45.955 11.351,-65.351 a 2.893,2.893 0 1 1 4.408,-3.747 c 19.065,22.592 1.763,51.135 -10.91,71.963 -1.212,1.984 -2.424,3.967 -3.527,5.841 -19.176,32.62 -23.473,64.139 -12.784,93.673 8.486,23.473 28.984,41.988 57.637,52.237 a 2.825,2.825 0 0 1 1.763,3.637 2.5,2.5 0 0 1 -2.534,1.984 z"
             inkscape:connector-curvature="0"
             style="fill:#ffffff" />
        </g>
        <g
           id="Group_20"
           data-name="Group 20"
           transform="translate(120.3445,-315.3542)">
          <g
             id="Group_19"
             data-name="Group 19">
            <path
               id="Path_80"
               data-name="Path 80"
               d="m 1329.061,609.429 h -151.2 l 9.367,330.171 -4.628,69.98 c 0,0 0,22.812 70.861,22.812 70.861,0 70.861,-22.812 70.861,-22.812 l -4.629,-69.98 z"
               inkscape:connector-curvature="0"
               style="fill:#bae3e5" />
            <path
               id="Path_81"
               data-name="Path 81"
               d="m 1317.82,622.984 -1.873,58.739 -2.2,67.886 -2.865,92.02 -3.086,99.4 c -10.69,16.31 -40.224,18.184 -54.331,18.184 -14,0 -43.641,-1.873 -54.331,-18.184 l -3.086,-99.4 -2.865,-92.02 -2.2,-67.886 -1.874,-58.739 z"
               inkscape:connector-curvature="0"
               style="fill:#dff2f3" />
            <path
               id="Path_82"
               data-name="Path 82"
               d="m 1310.877,841.629 -1.877,58.738 -1.322,40.665 c -10.69,16.31 -40.224,18.073 -54.22,18.073 -14.106,0 -43.641,-1.873 -54.331,-18.073 l -1.212,-40.665 -1.873,-58.739 z"
               inkscape:connector-curvature="0"
               style="fill:#4f1d0a" />
            <path
               id="Path_83"
               data-name="Path 83"
               d="m 1313.853,749.608 -1.212,36.918 -1.763,55.1 h -114.833 l -1.653,-55.1 -1.212,-36.918 z"
               inkscape:connector-curvature="0"
               style="fill:#dcbf8b" />
            <path
               id="Path_84"
               data-name="Path 84"
               d="m 1315.947,681.722 -0.771,26.559 -1.323,41.327 h -120.674 l -1.322,-41.327 -0.882,-26.559 z"
               inkscape:connector-curvature="0"
               style="fill:#e18226" />
            <path
               id="Path_85"
               data-name="Path 85"
               d="m 1245.857,968.253 c 0,0 -29.424,0.992 -49.812,-16.2 l -4.188,54.992 c 0,0 14.216,18.184 49.592,15.539 a 146.585,146.585 0 0 1 -15.539,-4.188 97.977,97.977 0 0 1 -12.233,-4.959 c -3.416,-1.763 -8.265,-4.3 -9.588,-8.155 a 5.62,5.62 0 0 1 0.551,-4.959 c 2.094,-3.086 6.171,-1.322 9.037,-0.661 3.637,0.771 7.274,1.323 10.91,1.873 6.282,0.882 15.318,2.645 21.269,-0.441 -5.62,-1.212 -11.241,-2.645 -16.751,-4.3 -7.714,-2.314 -22.592,-4.739 -22.592,-15.318 a 4.4,4.4 0 0 1 1.212,-3.306 c 1.984,-1.763 7.384,-0.992 9.808,-1.1 a 96.816,96.816 0 0 0 11.351,-1.433 c 5.732,-1.213 13.116,-2.755 16.973,-7.384 z"
               inkscape:connector-curvature="0"
               style="fill:#eff9fe" />
            <path
               id="Path_86"
               data-name="Path 86"
               d="m 1260.514,968.253 c 0,0 29.424,0.992 49.812,-16.2 l 4.188,54.992 c 0,0 -14.216,18.184 -49.592,15.539 a 146.591,146.591 0 0 0 15.539,-4.188 97.97,97.97 0 0 0 12.233,-4.959 c 3.416,-1.763 8.265,-4.3 9.588,-8.155 a 5.619,5.619 0 0 0 -0.551,-4.959 c -2.094,-3.086 -6.171,-1.322 -9.037,-0.661 -3.637,0.771 -7.273,1.323 -10.91,1.873 -6.282,0.882 -15.318,2.645 -21.269,-0.441 5.62,-1.212 11.241,-2.645 16.751,-4.3 7.714,-2.314 22.592,-4.739 22.592,-15.318 a 4.4,4.4 0 0 0 -1.212,-3.306 c -1.984,-1.763 -7.384,-0.992 -9.808,-1.1 a 96.816,96.816 0 0 1 -11.351,-1.433 c -5.732,-1.213 -13.116,-2.755 -16.973,-7.384 z"
               inkscape:connector-curvature="0"
               style="fill:#eff9fe" />
          </g>
          <path
             id="Path_87"
             data-name="Path 87"
             d="m 1213.127,929.131 a 3.133,3.133 0 0 1 -3.086,-2.976 l -9.367,-292.371 a 2.987,2.987 0 0 1 2.975,-3.086 2.809,2.809 0 0 1 3.086,2.976 l 9.367,292.371 a 2.983,2.983 0 0 1 -2.975,3.086 z"
             inkscape:connector-curvature="0"
             style="fill:#ffffff" />
        </g>
      </g>
    </g>
  </g>
</svg>
