<svg xmlns="http://www.w3.org/2000/svg" width="196" height="196" viewBox="0 0 196 196">
  <g id="cocktail_glass" transform="translate(-271 -641)">
    <rect id="Rectangle_34" data-name="Rectangle 34" width="196" height="196" rx="20" transform="translate(271 641)" fill="#0a9414"/>
    <g id="cocktail_glass-2" data-name="cocktail_glass" transform="translate(-11 80)">
      <path id="Icon_awesome-glass-martini" data-name="Icon awesome-glass-martini" d="M100.057,15.923C104.292,10.046,101.293,0,95.3,0H6.736C.747,0-2.252,10.046,1.983,15.923l42.66,59.171v53.177H33.482c-4.4,0-7.972,4.951-7.972,11.058,0,1.222.713,2.212,1.594,2.212H74.936c.881,0,1.594-.99,1.594-2.212,0-6.107-3.569-11.058-7.972-11.058H57.4V75.094Z" transform="translate(329 588.5)" fill="rgba(255,255,255,0.55)"/>
      <line id="Line_1" data-name="Line 1" x2="30" y2="43" transform="translate(340.5 599.5)" fill="none" stroke="#fff" stroke-width="3"/>
    </g>
  </g>
</svg>
