<svg xmlns="http://www.w3.org/2000/svg" xmlns:xlink="http://www.w3.org/1999/xlink" width="196" height="196" viewBox="0 0 196 196">
  <defs>
    <linearGradient id="linear-gradient" x1="1.311" y1="0.32" x2="0.035" y2="0.439" gradientUnits="objectBoundingBox">
      <stop offset="0" stop-color="#fff"/>
      <stop offset="1" stop-color="#686767"/>
    </linearGradient>
    <linearGradient id="linear-gradient-2" x1="0.5" y1="-0.891" x2="0.5" y2="1" gradientUnits="objectBoundingBox">
      <stop offset="0" stop-color="#fff"/>
      <stop offset="1" stop-color="gray"/>
    </linearGradient>
    <linearGradient id="linear-gradient-3" x1="0" y1="0.15" x2="0.784" y2="0.611" xlink:href="#linear-gradient-2"/>
    <linearGradient id="linear-gradient-4" y1="-0.269" xlink:href="#linear-gradient-2"/>
    <linearGradient id="linear-gradient-5" x1="-0.546" y1="-0.156" x2="1" xlink:href="#linear-gradient-2"/>
  </defs>
  <g id="jigger" transform="translate(-190 -389)">
    <rect id="Rectangle_38" data-name="Rectangle 38" width="196" height="196" rx="20" transform="translate(190 389)" fill="#ffc130"/>
    <path id="silver-brushed-metal-plate-background-vector0" d="M21.125,5.055a2,2,0,0,1,3.75,0L45,59.3A2,2,0,0,1,43.125,62H2.875A2,2,0,0,1,1,59.3Z" transform="translate(312 509) rotate(180)" fill="url(#linear-gradient)"/>
    <rect id="silver-brushed-metal-plate-background-vector0-2" data-name="silver-brushed-metal-plate-background-vector0" width="47" height="4" rx="2" transform="translate(265 447)" fill="url(#linear-gradient-2)"/>
    <path id="silver-brushed-metal-plate-background-vector0-3" data-name="silver-brushed-metal-plate-background-vector0" d="M18.2,3.685a2,2,0,0,1,3.6,0L38.6,38.123A2,2,0,0,1,36.8,41H3.2a2,2,0,0,1-1.8-2.877Z" transform="translate(269 487)" fill="url(#linear-gradient-3)"/>
    <rect id="silver-brushed-metal-plate-background-vector0-4" data-name="silver-brushed-metal-plate-background-vector0" width="42" height="4" rx="2" transform="translate(268 524)" fill="url(#linear-gradient-4)"/>
    <rect id="silver-brushed-metal-plate-background-vector0-5" data-name="silver-brushed-metal-plate-background-vector0" width="14" height="11" rx="3" transform="translate(282 489)" fill="url(#linear-gradient-5)"/>
    <path id="Path_11" data-name="Path 11" d="M2151.132,401.139c8.155,16.084,8.155,16.311,8.155,16.311" transform="translate(-1857 104)" fill="none" stroke="rgba(255,255,255,0.71)" stroke-linecap="round" stroke-width="2"/>
    <path id="Path_12" data-name="Path 12" d="M2151.132,389.133v5.609" transform="translate(-1858 103)" fill="none" stroke="rgba(255,255,255,0.71)" stroke-linecap="round" stroke-width="2"/>
    <path id="Path_13" data-name="Path 13" d="M2159.287,352.434c-9.288,31.715-9.968,30.809-9.968,30.809" transform="translate(-1856 102)" fill="none" stroke="rgba(255,255,255,0.71)" stroke-linecap="round" stroke-width="2"/>
  </g>
</svg>
