<svg xmlns="http://www.w3.org/2000/svg" xmlns:xlink="http://www.w3.org/1999/xlink" width="196" height="196" viewBox="0 0 196 196">
  <defs>
    <linearGradient id="linear-gradient" x1="-0.726" y1="1.096" x2="1.104" y2="-0.48" gradientUnits="objectBoundingBox">
      <stop offset="0" stop-color="#fff"/>
      <stop offset="1" stop-color="gray"/>
    </linearGradient>
  </defs>
  <g id="juicer" transform="matrix(0.799, 0.602, -0.602, 0.799, -663.329, -1120.087)">
    <rect id="Rectangle_23" data-name="Rectangle 23" width="196" height="196" rx="20" transform="matrix(0.799, -0.602, 0.602, 0.799, 1203.844, 495.34)" fill="#f73e3e"/>
    <path id="Path_26" data-name="Path 26" d="M20.956,6.551c11.574,0,20.956,8.167,20.956,23.728S26.931,72.51,20.956,72.053,0,45.84,0,30.279,9.382,6.551,20.956,6.551Z" transform="translate(1321.516 506.354)" fill="url(#linear-gradient)"/>
    <path id="Path_27" data-name="Path 27" d="M1.787,9.706C2.832-6.226,11.3-4.416,11.3-4.416s7.6-1.81,8.646,14.122-4.323,52.915-4.323,52.915,11.417,5.84,7.444,7.787-19.386,1.947-23.336,0,7.535-7.787,7.535-7.787S.742,25.638,1.787,9.706Z" transform="translate(1330.821 445.846)" fill="#45f151"/>
    <path id="Path_28" data-name="Path 28" d="M0,0S3.5,9.354,3.546,15.283.148,43.4.148,43.4Z" transform="translate(1341.719 533.509) rotate(-1)" fill="#939393"/>
    <path id="Path_29" data-name="Path 29" d="M2.014,0s3,9.29,2.751,15.27S0,43.775,0,43.775Z" transform="matrix(0.97, 0.242, -0.242, 0.97, 1355.574, 532.592)" fill="#939393"/>
    <path id="Path_30" data-name="Path 30" d="M2.914,0S-.213,10,.012,15.96,4.367,43.613,4.367,43.613Z" transform="matrix(0.985, -0.174, 0.174, 0.985, 1327.397, 533.594)" fill="#939393"/>
  </g>
</svg>
