<svg xmlns="http://www.w3.org/2000/svg" xmlns:xlink="http://www.w3.org/1999/xlink" width="196" height="196" viewBox="0 0 196 196">
  <defs>
    <linearGradient id="linear-gradient" x1="-0.234" y1="0.907" x2="1.459" y2="0.187" gradientUnits="objectBoundingBox">
      <stop offset="0" stop-color="#34761e"/>
      <stop offset="1" stop-color="#65c42e"/>
    </linearGradient>
    <linearGradient id="linear-gradient-2" x1="1.171" y1="0.254" x2="-0.428" y2="0.752" gradientUnits="objectBoundingBox">
      <stop offset="0" stop-color="#fff"/>
      <stop offset="1" stop-color="gray"/>
    </linearGradient>
  </defs>
  <g id="soju" transform="translate(-315 -29)">
    <rect id="Rectangle_27" data-name="Rectangle 27" width="196" height="196" rx="20" transform="translate(315 29)" fill="#db1616"/>
    <path id="Path_42" data-name="Path 42" d="M37.041,45.369s8.006.711,11,7.354,0,98.294,0,98.294A74.658,74.658,0,0,1,30.661,153.4a78.331,78.331,0,0,1-17.643-2.385s-2.827-90.821,0-98.294a10.685,10.685,0,0,1,9.675-7.354v-18.8H37.041Z" transform="translate(382.483 51.084)" fill="rgba(178,210,238,0.68)"/>
    <path id="Path_41" data-name="Path 41" d="M25.352-.766H42.623l-.546,36.994s9.637.767,13.245,7.93,0,105.994,0,105.994A99.577,99.577,0,0,1,34.4,152.723a104.505,104.505,0,0,1-21.238-2.572s-3.4-97.935,0-105.994a12.994,12.994,0,0,1,11.646-7.93Z" transform="translate(379 57.881)" fill="rgba(64,190,0,0.25)"/>
    <rect id="Rectangle_11" data-name="Rectangle 11" width="20" height="20" transform="translate(403 44)" fill="url(#linear-gradient)"/>
    <path id="Path_57" data-name="Path 57" d="M0,0H44.97V43.711H0Z" transform="translate(390.956 130.522)" fill="url(#linear-gradient-2)"/>
    <text id="SOJU-2" data-name="SOJU" transform="translate(394 149)" font-size="15" font-family="VinerHandITC, Viner Hand ITC"><tspan x="1.581" y="15">SOJU</tspan></text>
    <path id="Path_47" data-name="Path 47" d="M2369.091-52.847c5.41,7.141,3.679,19.043,3.679,19.043" transform="translate(-1945.842 156.427)" fill="none" stroke="#fff" stroke-linecap="round" stroke-width="3"/>
    <path id="Icon_awesome-cuttlefish" data-name="Icon awesome-cuttlefish" d="M6.389,9.069a2.679,2.679,0,0,1,0-5.359A15.415,15.415,0,0,0,11.1,2.079a6.389,6.389,0,1,0-4.715,10.7c1.868,0,1.855-.025,2.473-1.3S7.384,9.069,6.389,9.069Z" transform="translate(413.415 130.201) rotate(43)" fill="red"/>
    <path id="Icon_awesome-cuttlefish-2" data-name="Icon awesome-cuttlefish" d="M6.389,9.069a2.679,2.679,0,0,1,0-5.359A15.415,15.415,0,0,0,11.1,2.079a6.389,6.389,0,1,0-4.715,10.7c1.868,0,1.855-.025,2.473-1.3S7.384,9.069,6.389,9.069Z" transform="translate(413.264 153.243) rotate(-140)" fill="#1000ff"/>
  </g>
</svg>
