<svg xmlns="http://www.w3.org/2000/svg" xmlns:xlink="http://www.w3.org/1999/xlink" width="85.462" height="368.358" viewBox="0 0 85.462 368.358">
  <defs>
    <linearGradient id="linear-gradient" x1="2.151" y1="0.827" x2="0" y2="0.857" gradientUnits="objectBoundingBox">
      <stop offset="0" stop-color="#e9e9e9"/>
      <stop offset="1" stop-color="#b0b0b0"/>
    </linearGradient>
  </defs>
  <g id="cleaver" transform="translate(-388.695 -22.642)">
    <path id="Exclusion_6" data-name="Exclusion 6" d="M-4663.538-810.85h-76.6l-.006-.062c-.416-5.137-4.133-51.582-6.615-99.852-1.525-29.644-2.279-54.008-2.241-72.416.047-23.007,1.338-36.716,3.837-40.745s7.034-7.7,13.479-10.9a98.6,98.6,0,0,1,18.973-6.761,179.047,179.047,0,0,1,24.235-4.414c2.967,4.08,5.732,10.785,8.217,19.929a277.933,277.933,0,0,1,6.179,31.25c3.1,20.924,5.592,47.581,7.406,79.229,3.1,54.1,3.135,104.241,3.135,104.741Zm-68.657-205.792a8.509,8.509,0,0,0-8.5,8.5,8.51,8.51,0,0,0,8.5,8.5,8.509,8.509,0,0,0,8.5-8.5A8.509,8.509,0,0,0-4732.2-1016.642Z" transform="translate(5137.695 1068.642)" fill="url(#linear-gradient)"/>
    <rect id="Rectangle_55" data-name="Rectangle 55" width="33" height="133" transform="translate(397 258)"/>
  </g>
</svg>
