<svg xmlns="http://www.w3.org/2000/svg" xmlns:xlink="http://www.w3.org/1999/xlink" width="193.457" height="378.001" viewBox="0 0 193.457 378.001">
  <defs>
    <linearGradient id="linear-gradient" x1="0.5" x2="0.5" y2="1" gradientUnits="objectBoundingBox">
      <stop offset="0" stop-color="#9e9e9e"/>
      <stop offset="1" stop-color="gray"/>
    </linearGradient>
  </defs>
  <g id="grater" transform="translate(-340.713 -454)">
    <path id="Exclusion_7" data-name="Exclusion 7" d="M-3753.83-725h-193.457L-3929-1045h36v-58h85v58h39.03l15.14,320Zm-36.669-49c-5.239,0-9.5,4.711-9.5,10.5s4.262,10.5,9.5,10.5,9.5-4.71,9.5-10.5S-3785.261-774-3790.5-774Zm-39,0c-5.238,0-9.5,4.711-9.5,10.5s4.261,10.5,9.5,10.5,9.5-4.71,9.5-10.5S-3824.262-774-3829.5-774Zm-39,0c-5.239,0-9.5,4.711-9.5,10.5s4.262,10.5,9.5,10.5,9.5-4.71,9.5-10.5S-3863.262-774-3868.5-774Zm-39,0c-5.239,0-9.5,4.711-9.5,10.5s4.262,10.5,9.5,10.5,9.5-4.71,9.5-10.5S-3902.261-774-3907.5-774Zm117-41c-5.239,0-9.5,4.71-9.5,10.5s4.262,10.5,9.5,10.5,9.5-4.711,9.5-10.5S-3785.261-815-3790.5-815Zm-39,0c-5.238,0-9.5,4.71-9.5,10.5s4.261,10.5,9.5,10.5,9.5-4.711,9.5-10.5S-3824.262-815-3829.5-815Zm-39,0c-5.239,0-9.5,4.71-9.5,10.5s4.262,10.5,9.5,10.5,9.5-4.711,9.5-10.5S-3863.262-815-3868.5-815Zm-39,0c-5.239,0-9.5,4.71-9.5,10.5s4.262,10.5,9.5,10.5,9.5-4.711,9.5-10.5S-3902.261-815-3907.5-815Zm117-41c-5.239,0-9.5,4.71-9.5,10.5s4.262,10.5,9.5,10.5,9.5-4.711,9.5-10.5S-3785.261-856-3790.5-856Zm-39,0c-5.238,0-9.5,4.71-9.5,10.5s4.261,10.5,9.5,10.5,9.5-4.711,9.5-10.5S-3824.262-856-3829.5-856Zm-39,0c-5.239,0-9.5,4.71-9.5,10.5s4.262,10.5,9.5,10.5,9.5-4.711,9.5-10.5S-3863.262-856-3868.5-856Zm-39,0c-5.239,0-9.5,4.71-9.5,10.5s4.262,10.5,9.5,10.5,9.5-4.711,9.5-10.5S-3902.261-856-3907.5-856Zm117-41c-5.239,0-9.5,4.71-9.5,10.5s4.262,10.5,9.5,10.5,9.5-4.711,9.5-10.5S-3785.261-897-3790.5-897Zm-39,0c-5.238,0-9.5,4.71-9.5,10.5s4.261,10.5,9.5,10.5,9.5-4.711,9.5-10.5S-3824.262-897-3829.5-897Zm-39,0c-5.239,0-9.5,4.71-9.5,10.5s4.262,10.5,9.5,10.5,9.5-4.711,9.5-10.5S-3863.262-897-3868.5-897Zm-39,0c-5.239,0-9.5,4.71-9.5,10.5s4.262,10.5,9.5,10.5,9.5-4.711,9.5-10.5S-3902.261-897-3907.5-897Zm117-41c-5.239,0-9.5,4.71-9.5,10.5s4.262,10.5,9.5,10.5,9.5-4.71,9.5-10.5S-3785.261-938-3790.5-938Zm-39,0c-5.238,0-9.5,4.71-9.5,10.5s4.261,10.5,9.5,10.5,9.5-4.71,9.5-10.5S-3824.262-938-3829.5-938Zm-39,0c-5.239,0-9.5,4.71-9.5,10.5s4.262,10.5,9.5,10.5,9.5-4.71,9.5-10.5S-3863.262-938-3868.5-938Zm-39,0c-5.239,0-9.5,4.71-9.5,10.5s4.262,10.5,9.5,10.5,9.5-4.71,9.5-10.5S-3902.261-938-3907.5-938Zm117-41c-5.239,0-9.5,4.71-9.5,10.5s4.262,10.5,9.5,10.5,9.5-4.711,9.5-10.5S-3785.261-979-3790.5-979Zm-39,0c-5.238,0-9.5,4.71-9.5,10.5s4.261,10.5,9.5,10.5,9.5-4.711,9.5-10.5S-3824.262-979-3829.5-979Zm-39,0c-5.239,0-9.5,4.71-9.5,10.5s4.262,10.5,9.5,10.5,9.5-4.711,9.5-10.5S-3863.262-979-3868.5-979Zm-39,0c-5.239,0-9.5,4.71-9.5,10.5s4.262,10.5,9.5,10.5,9.5-4.711,9.5-10.5S-3902.261-979-3907.5-979Zm117-41c-5.239,0-9.5,4.711-9.5,10.5s4.262,10.5,9.5,10.5,9.5-4.71,9.5-10.5S-3785.261-1020-3790.5-1020Zm-39,0c-5.238,0-9.5,4.711-9.5,10.5s4.261,10.5,9.5,10.5,9.5-4.71,9.5-10.5S-3824.262-1020-3829.5-1020Zm-39,0c-5.239,0-9.5,4.711-9.5,10.5s4.262,10.5,9.5,10.5,9.5-4.71,9.5-10.5S-3863.262-1020-3868.5-1020Zm-39,0c-5.239,0-9.5,4.711-9.5,10.5s4.262,10.5,9.5,10.5,9.5-4.71,9.5-10.5S-3902.261-1020-3907.5-1020Zm30.5-67v42h52v-42h-52Z" transform="translate(4288 1557)" fill="url(#linear-gradient)"/>
  </g>
</svg>
