<svg xmlns="http://www.w3.org/2000/svg" xmlns:xlink="http://www.w3.org/1999/xlink" width="314.726" height="336.517" viewBox="0 0 314.726 336.517">
  <defs>
    <clipPath id="clip-path">
      <rect width="56" height="267.5" fill="none"/>
    </clipPath>
  </defs>
  <g id="measuring_cup" transform="translate(-709.274 -553.98)">
    <path id="Path_19" data-name="Path 19" d="M-53.726-3.02h164.8C169.4-3.02,229.6,4.169,229.6,4.169L261,27.18,225.36,56.62,208.15,323.167S163.929,333.5,116.471,333.5,18.32,323.167,18.32,323.167L5.994,16.274H-34.38l-7.57,124.485H-53.726Z" transform="translate(763 557)" fill="rgba(255,255,255,0.55)"/>
    <path id="Path_20" data-name="Path 20" d="M2692.2,421.387C2802.75,446.194,2913.415,428,2913.415,428l46.23,15.3" transform="translate(-1938.342 139.27)" fill="none" stroke="#fff" stroke-linecap="round" stroke-width="1"/>
    <path id="Path_21" data-name="Path 21" d="M2711.023,438.689c3.236,142.372,4.315,112.712,4.315,112.712" transform="translate(-1930.243 162.21)" fill="none" stroke="#fff" stroke-linecap="round" stroke-width="1"/>
    <g id="Repeat_Grid_14" data-name="Repeat Grid 14" transform="translate(908.5 866.819) rotate(180)" clip-path="url(#clip-path)">
      <g transform="translate(-421.5 -949)">
        <line id="Line_7" data-name="Line 7" x2="56" transform="translate(421.5 985.5)" fill="none" stroke="#707070" stroke-width="2"/>
        <line id="Line_8" data-name="Line 8" x2="29" transform="translate(435.5 976.5)" fill="none" stroke="#707070" stroke-width="1"/>
        <line id="Line_9" data-name="Line 9" x2="29" transform="translate(435.5 967.5)" fill="none" stroke="#707070" stroke-width="1"/>
        <line id="Line_10" data-name="Line 10" x2="29" transform="translate(435.5 958.5)" fill="none" stroke="#707070" stroke-width="1"/>
        <line id="Line_11" data-name="Line 11" x2="29" transform="translate(435.5 949.5)" fill="none" stroke="#707070" stroke-width="1"/>
      </g>
      <g transform="translate(-421.5 -904)">
        <line id="Line_7-2" data-name="Line 7" x2="56" transform="translate(421.5 985.5)" fill="none" stroke="#707070" stroke-width="2"/>
        <line id="Line_8-2" data-name="Line 8" x2="29" transform="translate(435.5 976.5)" fill="none" stroke="#707070" stroke-width="1"/>
        <line id="Line_9-2" data-name="Line 9" x2="29" transform="translate(435.5 967.5)" fill="none" stroke="#707070" stroke-width="1"/>
        <line id="Line_10-2" data-name="Line 10" x2="29" transform="translate(435.5 958.5)" fill="none" stroke="#707070" stroke-width="1"/>
        <line id="Line_11-2" data-name="Line 11" x2="29" transform="translate(435.5 949.5)" fill="none" stroke="#707070" stroke-width="1"/>
      </g>
      <g transform="translate(-421.5 -859)">
        <line id="Line_7-3" data-name="Line 7" x2="56" transform="translate(421.5 985.5)" fill="none" stroke="#707070" stroke-width="2"/>
        <line id="Line_8-3" data-name="Line 8" x2="29" transform="translate(435.5 976.5)" fill="none" stroke="#707070" stroke-width="1"/>
        <line id="Line_9-3" data-name="Line 9" x2="29" transform="translate(435.5 967.5)" fill="none" stroke="#707070" stroke-width="1"/>
        <line id="Line_10-3" data-name="Line 10" x2="29" transform="translate(435.5 958.5)" fill="none" stroke="#707070" stroke-width="1"/>
        <line id="Line_11-3" data-name="Line 11" x2="29" transform="translate(435.5 949.5)" fill="none" stroke="#707070" stroke-width="1"/>
      </g>
      <g transform="translate(-421.5 -814)">
        <line id="Line_7-4" data-name="Line 7" x2="56" transform="translate(421.5 985.5)" fill="none" stroke="#707070" stroke-width="2"/>
        <line id="Line_8-4" data-name="Line 8" x2="29" transform="translate(435.5 976.5)" fill="none" stroke="#707070" stroke-width="1"/>
        <line id="Line_9-4" data-name="Line 9" x2="29" transform="translate(435.5 967.5)" fill="none" stroke="#707070" stroke-width="1"/>
        <line id="Line_10-4" data-name="Line 10" x2="29" transform="translate(435.5 958.5)" fill="none" stroke="#707070" stroke-width="1"/>
        <line id="Line_11-4" data-name="Line 11" x2="29" transform="translate(435.5 949.5)" fill="none" stroke="#707070" stroke-width="1"/>
      </g>
      <g transform="translate(-421.5 -769)">
        <line id="Line_7-5" data-name="Line 7" x2="56" transform="translate(421.5 985.5)" fill="none" stroke="#707070" stroke-width="2"/>
        <line id="Line_8-5" data-name="Line 8" x2="29" transform="translate(435.5 976.5)" fill="none" stroke="#707070" stroke-width="1"/>
        <line id="Line_9-5" data-name="Line 9" x2="29" transform="translate(435.5 967.5)" fill="none" stroke="#707070" stroke-width="1"/>
        <line id="Line_10-5" data-name="Line 10" x2="29" transform="translate(435.5 958.5)" fill="none" stroke="#707070" stroke-width="1"/>
        <line id="Line_11-5" data-name="Line 11" x2="29" transform="translate(435.5 949.5)" fill="none" stroke="#707070" stroke-width="1"/>
      </g>
      <g transform="translate(-421.5 -724)">
        <line id="Line_7-6" data-name="Line 7" x2="56" transform="translate(421.5 985.5)" fill="none" stroke="#707070" stroke-width="2"/>
        <line id="Line_8-6" data-name="Line 8" x2="29" transform="translate(435.5 976.5)" fill="none" stroke="#707070" stroke-width="1"/>
        <line id="Line_9-6" data-name="Line 9" x2="29" transform="translate(435.5 967.5)" fill="none" stroke="#707070" stroke-width="1"/>
        <line id="Line_10-6" data-name="Line 10" x2="29" transform="translate(435.5 958.5)" fill="none" stroke="#707070" stroke-width="1"/>
        <line id="Line_11-6" data-name="Line 11" x2="29" transform="translate(435.5 949.5)" fill="none" stroke="#707070" stroke-width="1"/>
      </g>
    </g>
  </g>
</svg>
