<svg xmlns="http://www.w3.org/2000/svg" width="81.236" height="141.451" viewBox="0 0 81.236 141.451">
  <path id="wine_glass" d="M59.1,126.963H48.158V94.9A39.58,39.58,0,0,0,78.64,52.714L74.275,3.981A4.341,4.341,0,0,0,69.977,0H8.827a4.338,4.338,0,0,0-4.3,3.981L.164,52.717A39.58,39.58,0,0,0,30.646,94.9v32.064H19.7A10.946,10.946,0,0,0,8.755,137.908a2.188,2.188,0,0,0,2.189,2.189H67.859a2.188,2.188,0,0,0,2.189-2.189A10.946,10.946,0,0,0,59.1,126.963Z" transform="matrix(-1, 0.017, -0.017, -1, 81.236, 140.075)" fill="rgba(255,255,255,0.55)"/>
</svg>
