<svg xmlns="http://www.w3.org/2000/svg" xmlns:xlink="http://www.w3.org/1999/xlink" width="24.999" height="185.065" viewBox="0 0 24.999 185.065">
  <defs>
    <linearGradient id="linear-gradient" x1="-0.788" y1="0.983" x2="1.74" y2="0.906" gradientUnits="objectBoundingBox">
      <stop offset="0" stop-color="#fff"/>
      <stop offset="1" stop-color="gray"/>
    </linearGradient>
  </defs>
  <g id="zester" transform="translate(-1204 -494.935)">
    <path id="Exclusion_2" data-name="Exclusion 2" d="M-1918,259h-21V135h21Zm-7.5-11a1.5,1.5,0,0,0-1.5,1.5,1.5,1.5,0,0,0,1.5,1.5,1.5,1.5,0,0,0,1.5-1.5A1.5,1.5,0,0,0-1925.5,248Zm-6,0a1.5,1.5,0,0,0-1.5,1.5,1.5,1.5,0,0,0,1.5,1.5,1.5,1.5,0,0,0,1.5-1.5A1.5,1.5,0,0,0-1931.5,248Zm9-5a1.5,1.5,0,0,0-1.5,1.5,1.5,1.5,0,0,0,1.5,1.5,1.5,1.5,0,0,0,1.5-1.5A1.5,1.5,0,0,0-1922.5,243Zm-6,0a1.5,1.5,0,0,0-1.5,1.5,1.5,1.5,0,0,0,1.5,1.5,1.5,1.5,0,0,0,1.5-1.5A1.5,1.5,0,0,0-1928.5,243Zm-6,0a1.5,1.5,0,0,0-1.5,1.5,1.5,1.5,0,0,0,1.5,1.5,1.5,1.5,0,0,0,1.5-1.5A1.5,1.5,0,0,0-1934.5,243Zm9-6a1.5,1.5,0,0,0-1.5,1.5,1.5,1.5,0,0,0,1.5,1.5,1.5,1.5,0,0,0,1.5-1.5A1.5,1.5,0,0,0-1925.5,237Zm-6,0a1.5,1.5,0,0,0-1.5,1.5,1.5,1.5,0,0,0,1.5,1.5,1.5,1.5,0,0,0,1.5-1.5A1.5,1.5,0,0,0-1931.5,237Zm9-5a1.5,1.5,0,0,0-1.5,1.5,1.5,1.5,0,0,0,1.5,1.5,1.5,1.5,0,0,0,1.5-1.5A1.5,1.5,0,0,0-1922.5,232Zm-6,0a1.5,1.5,0,0,0-1.5,1.5,1.5,1.5,0,0,0,1.5,1.5,1.5,1.5,0,0,0,1.5-1.5A1.5,1.5,0,0,0-1928.5,232Zm-6,0a1.5,1.5,0,0,0-1.5,1.5,1.5,1.5,0,0,0,1.5,1.5,1.5,1.5,0,0,0,1.5-1.5A1.5,1.5,0,0,0-1934.5,232Zm9-6a1.5,1.5,0,0,0-1.5,1.5,1.5,1.5,0,0,0,1.5,1.5,1.5,1.5,0,0,0,1.5-1.5A1.5,1.5,0,0,0-1925.5,226Zm-6,0a1.5,1.5,0,0,0-1.5,1.5,1.5,1.5,0,0,0,1.5,1.5,1.5,1.5,0,0,0,1.5-1.5A1.5,1.5,0,0,0-1931.5,226Zm9-5a1.5,1.5,0,0,0-1.5,1.5,1.5,1.5,0,0,0,1.5,1.5,1.5,1.5,0,0,0,1.5-1.5A1.5,1.5,0,0,0-1922.5,221Zm-6,0a1.5,1.5,0,0,0-1.5,1.5,1.5,1.5,0,0,0,1.5,1.5,1.5,1.5,0,0,0,1.5-1.5A1.5,1.5,0,0,0-1928.5,221Zm-6,0a1.5,1.5,0,0,0-1.5,1.5,1.5,1.5,0,0,0,1.5,1.5,1.5,1.5,0,0,0,1.5-1.5A1.5,1.5,0,0,0-1934.5,221Zm9-6a1.5,1.5,0,0,0-1.5,1.5,1.5,1.5,0,0,0,1.5,1.5,1.5,1.5,0,0,0,1.5-1.5A1.5,1.5,0,0,0-1925.5,215Zm-6,0a1.5,1.5,0,0,0-1.5,1.5,1.5,1.5,0,0,0,1.5,1.5,1.5,1.5,0,0,0,1.5-1.5A1.5,1.5,0,0,0-1931.5,215Zm9-5a1.5,1.5,0,0,0-1.5,1.5,1.5,1.5,0,0,0,1.5,1.5,1.5,1.5,0,0,0,1.5-1.5A1.5,1.5,0,0,0-1922.5,210Zm-6,0a1.5,1.5,0,0,0-1.5,1.5,1.5,1.5,0,0,0,1.5,1.5,1.5,1.5,0,0,0,1.5-1.5A1.5,1.5,0,0,0-1928.5,210Zm-6,0a1.5,1.5,0,0,0-1.5,1.5,1.5,1.5,0,0,0,1.5,1.5,1.5,1.5,0,0,0,1.5-1.5A1.5,1.5,0,0,0-1934.5,210Zm9-6a1.5,1.5,0,0,0-1.5,1.5,1.5,1.5,0,0,0,1.5,1.5,1.5,1.5,0,0,0,1.5-1.5A1.5,1.5,0,0,0-1925.5,204Zm-6,0a1.5,1.5,0,0,0-1.5,1.5,1.5,1.5,0,0,0,1.5,1.5,1.5,1.5,0,0,0,1.5-1.5A1.5,1.5,0,0,0-1931.5,204Zm9-5a1.5,1.5,0,0,0-1.5,1.5,1.5,1.5,0,0,0,1.5,1.5,1.5,1.5,0,0,0,1.5-1.5A1.5,1.5,0,0,0-1922.5,199Zm-6,0a1.5,1.5,0,0,0-1.5,1.5,1.5,1.5,0,0,0,1.5,1.5,1.5,1.5,0,0,0,1.5-1.5A1.5,1.5,0,0,0-1928.5,199Zm-6,0a1.5,1.5,0,0,0-1.5,1.5,1.5,1.5,0,0,0,1.5,1.5,1.5,1.5,0,0,0,1.5-1.5A1.5,1.5,0,0,0-1934.5,199Zm9-6a1.5,1.5,0,0,0-1.5,1.5,1.5,1.5,0,0,0,1.5,1.5,1.5,1.5,0,0,0,1.5-1.5A1.5,1.5,0,0,0-1925.5,193Zm-6,0a1.5,1.5,0,0,0-1.5,1.5,1.5,1.5,0,0,0,1.5,1.5,1.5,1.5,0,0,0,1.5-1.5A1.5,1.5,0,0,0-1931.5,193Zm9-5a1.5,1.5,0,0,0-1.5,1.5,1.5,1.5,0,0,0,1.5,1.5,1.5,1.5,0,0,0,1.5-1.5A1.5,1.5,0,0,0-1922.5,188Zm-6,0a1.5,1.5,0,0,0-1.5,1.5,1.5,1.5,0,0,0,1.5,1.5,1.5,1.5,0,0,0,1.5-1.5A1.5,1.5,0,0,0-1928.5,188Zm-6,0a1.5,1.5,0,0,0-1.5,1.5,1.5,1.5,0,0,0,1.5,1.5,1.5,1.5,0,0,0,1.5-1.5A1.5,1.5,0,0,0-1934.5,188Zm9-6a1.5,1.5,0,0,0-1.5,1.5,1.5,1.5,0,0,0,1.5,1.5,1.5,1.5,0,0,0,1.5-1.5A1.5,1.5,0,0,0-1925.5,182Zm-6,0a1.5,1.5,0,0,0-1.5,1.5,1.5,1.5,0,0,0,1.5,1.5,1.5,1.5,0,0,0,1.5-1.5A1.5,1.5,0,0,0-1931.5,182Zm9-5a1.5,1.5,0,0,0-1.5,1.5,1.5,1.5,0,0,0,1.5,1.5,1.5,1.5,0,0,0,1.5-1.5A1.5,1.5,0,0,0-1922.5,177Zm-6,0a1.5,1.5,0,0,0-1.5,1.5,1.5,1.5,0,0,0,1.5,1.5,1.5,1.5,0,0,0,1.5-1.5A1.5,1.5,0,0,0-1928.5,177Zm-6,0a1.5,1.5,0,0,0-1.5,1.5,1.5,1.5,0,0,0,1.5,1.5,1.5,1.5,0,0,0,1.5-1.5A1.5,1.5,0,0,0-1934.5,177Zm9-6a1.5,1.5,0,0,0-1.5,1.5,1.5,1.5,0,0,0,1.5,1.5,1.5,1.5,0,0,0,1.5-1.5A1.5,1.5,0,0,0-1925.5,171Zm-6,0a1.5,1.5,0,0,0-1.5,1.5,1.5,1.5,0,0,0,1.5,1.5,1.5,1.5,0,0,0,1.5-1.5A1.5,1.5,0,0,0-1931.5,171Zm9-5a1.5,1.5,0,0,0-1.5,1.5,1.5,1.5,0,0,0,1.5,1.5,1.5,1.5,0,0,0,1.5-1.5A1.5,1.5,0,0,0-1922.5,166Zm-6,0a1.5,1.5,0,0,0-1.5,1.5,1.5,1.5,0,0,0,1.5,1.5,1.5,1.5,0,0,0,1.5-1.5A1.5,1.5,0,0,0-1928.5,166Zm-6,0a1.5,1.5,0,0,0-1.5,1.5,1.5,1.5,0,0,0,1.5,1.5,1.5,1.5,0,0,0,1.5-1.5A1.5,1.5,0,0,0-1934.5,166Zm9-6a1.5,1.5,0,0,0-1.5,1.5,1.5,1.5,0,0,0,1.5,1.5,1.5,1.5,0,0,0,1.5-1.5A1.5,1.5,0,0,0-1925.5,160Zm-6,0a1.5,1.5,0,0,0-1.5,1.5,1.5,1.5,0,0,0,1.5,1.5,1.5,1.5,0,0,0,1.5-1.5A1.5,1.5,0,0,0-1931.5,160Zm9-5a1.5,1.5,0,0,0-1.5,1.5,1.5,1.5,0,0,0,1.5,1.5,1.5,1.5,0,0,0,1.5-1.5A1.5,1.5,0,0,0-1922.5,155Zm-6,0a1.5,1.5,0,0,0-1.5,1.5,1.5,1.5,0,0,0,1.5,1.5,1.5,1.5,0,0,0,1.5-1.5A1.5,1.5,0,0,0-1928.5,155Zm-6,0a1.5,1.5,0,0,0-1.5,1.5,1.5,1.5,0,0,0,1.5,1.5,1.5,1.5,0,0,0,1.5-1.5A1.5,1.5,0,0,0-1934.5,155Zm9-6a1.5,1.5,0,0,0-1.5,1.5,1.5,1.5,0,0,0,1.5,1.5,1.5,1.5,0,0,0,1.5-1.5A1.5,1.5,0,0,0-1925.5,149Zm-6,0a1.5,1.5,0,0,0-1.5,1.5,1.5,1.5,0,0,0,1.5,1.5,1.5,1.5,0,0,0,1.5-1.5A1.5,1.5,0,0,0-1931.5,149Zm9-5a1.5,1.5,0,0,0-1.5,1.5,1.5,1.5,0,0,0,1.5,1.5,1.5,1.5,0,0,0,1.5-1.5A1.5,1.5,0,0,0-1922.5,144Zm-6,0a1.5,1.5,0,0,0-1.5,1.5,1.5,1.5,0,0,0,1.5,1.5,1.5,1.5,0,0,0,1.5-1.5A1.5,1.5,0,0,0-1928.5,144Zm-6,0a1.5,1.5,0,0,0-1.5,1.5,1.5,1.5,0,0,0,1.5,1.5,1.5,1.5,0,0,0,1.5-1.5A1.5,1.5,0,0,0-1934.5,144Z" transform="translate(3145 421)" fill="url(#linear-gradient)"/>
    <path id="Exclusion_3" data-name="Exclusion 3" d="M-1914,201.065h-25a91.406,91.406,0,0,0,2.828-9.531,94.422,94.422,0,0,0,2.828-21.718,72.665,72.665,0,0,0-1.706-16.237c-.8-3.947-1.382-6.8-.308-11.163,1.649-6.693,5.973-7.416,7.756-7.416a4.7,4.7,0,0,1,.688.043,3.964,3.964,0,0,1,.635-.043c1.649,0,5.685.723,7.546,7.416,1.213,4.364.558,7.215-.349,11.161a64.66,64.66,0,0,0-1.929,16.239,77.382,77.382,0,0,0,3.506,21.718,78.853,78.853,0,0,0,3.505,9.53Zm-13-63c-2.206,0-4,2.916-4,6.5s1.795,6.5,4,6.5,4-2.916,4-6.5S-1924.795,138.065-1927,138.065Z" transform="translate(3143 359.935)" fill="#45f151"/>
  </g>
</svg>
