<svg xmlns="http://www.w3.org/2000/svg" xmlns:xlink="http://www.w3.org/1999/xlink" width="93.902" height="169" viewBox="0 0 93.902 169">
  <defs>
    <linearGradient id="linear-gradient" x1="0.5" x2="0.5" y2="1" gradientUnits="objectBoundingBox">
      <stop offset="0" stop-color="#ff9200"/>
      <stop offset="0.284" stop-color="#ff5f10"/>
      <stop offset="0.683" stop-color="#ff9200"/>
      <stop offset="1" stop-color="#fc5b0d"/>
    </linearGradient>
    <linearGradient id="linear-gradient-2" x1="1.186" y1="0.182" x2="-0.091" y2="0.859" gradientUnits="objectBoundingBox">
      <stop offset="0" stop-color="#86857f"/>
      <stop offset="1"/>
    </linearGradient>
  </defs>
  <g id="scotch" transform="translate(-48.278 -64)">
    <path id="Path_34" data-name="Path 34" d="M30.3,12.3V-10.671H48.679V12.3S81.986,26.848,81.986,44.842,68.118,117,68.118,117s-14.165-7.051-28.331-7.051S11.457,117,11.457,117-1.857,60.156-3.006,44.842,30.3,12.3,30.3,12.3Z" transform="translate(55 116)" fill="url(#linear-gradient)"/>
    <path id="Path_33" data-name="Path 33" d="M32.091-.766H58.124V49.969S85.689,65.572,92,75.8s-14.733,82.878-14.733,82.878H13.714S-4.526,83.536,0,75.8,32.091,49.969,32.091,49.969Z" transform="translate(49 74.319)" fill="rgba(255,255,255,0.25)"/>
    <rect id="Rectangle_9" data-name="Rectangle 9" width="33" height="29" rx="5" transform="translate(78 64)" fill="url(#linear-gradient-2)"/>
    <rect id="Rectangle_10" data-name="Rectangle 10" width="59" height="8" transform="translate(65 186)"/>
    <path id="Path_35" data-name="Path 35" d="M0,0H7.22V8.381H0L3.757,4.237Z" transform="translate(59.78 184)"/>
    <path id="Path_36" data-name="Path 36" d="M0,0H7.762L4.1,4.423,7.762,8.381H0Z" transform="translate(122 184)"/>
    <text id="Scotch-2" data-name="Scotch" transform="translate(67 173)" font-size="12" font-family="Castellar"><tspan x="0" y="11">Scotch</tspan></text>
    <text id="Maroon" transform="translate(83 187)" fill="#fff" font-size="5" font-family="Castellar"><tspan x="0" y="5">Maroon</tspan></text>
    <path id="Path_37" data-name="Path 37" d="M2047.131,1.528c24.456,23.812,18.664,20.916,18.664,20.916" transform="matrix(0.995, -0.105, 0.105, 0.995, -1925.992, 351.056)" fill="none" stroke="#fff" stroke-linecap="round" stroke-width="3"/>
    <path id="Icon_awesome-shield-alt" data-name="Icon awesome-shield-alt" d="M7.276,1.144,4.655.052a.657.657,0,0,0-.5,0L1.529,1.144a.655.655,0,0,0-.4.6A5.544,5.544,0,0,0,4.149,6.942a.657.657,0,0,0,.5,0A5.516,5.516,0,0,0,7.679,1.749.656.656,0,0,0,7.276,1.144ZM4.4,6.1V.893l2.4,1A4.679,4.679,0,0,1,4.4,6.1Z" transform="translate(90.821 160.379)"/>
    <path id="Path_50" data-name="Path 50" d="M66.125,172a152.83,152.83,0,0,1,30.006-2.586A274.088,274.088,0,0,1,125.208,172" transform="translate(-1 1)" fill="none" stroke="#000" stroke-width="1"/>
  </g>
</svg>
