<svg xmlns="http://www.w3.org/2000/svg" xmlns:xlink="http://www.w3.org/1999/xlink" width="507" height="1012" viewBox="0 0 507 1012">
  <defs>
    <clipPath id="clip-path">
      <rect id="Rectangle_41" data-name="Rectangle 41" width="507" height="1012" transform="translate(0 48)" fill="#fff" stroke="#707070" stroke-width="1"/>
    </clipPath>
  </defs>
  <g id="Mask_Group_4" data-name="Mask Group 4" transform="translate(0 -48)" clip-path="url(#clip-path)">
    <g id="pour" transform="translate(-186.109 114.393)">
      <g id="Group_1" data-name="Group 1">
        <path id="Path_10" data-name="Path 10" d="M662.342,579.478c20.127-27.921,30.767-64.137,30.767-104.737V350.468c0-18.553-15.332-33.647-34.178-33.647H437.75c-18.843,0-34.173,15.095-34.173,33.647V474.741c0,40.6,10.638,76.816,30.764,104.737,19.622,27.223,47.447,45.227,80.934,52.514V803.359a15.471,15.471,0,0,1-.244,2.965c-12.27,2.407-52.693,10.235-67.081,11.716-23.459,2.42-35.354,12.575-35.354,30.185,0,18.825,14.393,30.99,36.668,30.99H647.421c22.275,0,36.67-12.165,36.67-30.99,0-17.611-11.893-27.765-35.359-30.185-14.388-1.481-54.818-9.31-67.083-11.716a20.6,20.6,0,0,1-.242-3.378V631.992C614.9,624.707,642.72,606.7,662.342,579.478ZM573.088,830.7v0c2.23.439,54.879,10.912,73.02,12.779,10.559,1.086,12.135,3.025,12.189,3.1a4.267,4.267,0,0,1,.219,1.644c0,1.339,0,5.418-11.093,5.418H449.264c-11.093,0-11.093-4.078-11.093-5.418a4.426,4.426,0,0,1,.209-1.635c.06-.081,1.637-2.021,12.189-3.106,18.148-1.867,70.8-12.34,73.031-12.779l.911-.219c1.674-.463,16.341-5.155,16.341-27.125V614.881c0-5.522-10.972-6.231-10.972-6.231-62.133-8.905-100.729-60.212-100.729-133.909V350.468c0-4.376,3.936-8.071,8.6-8.071H658.931c4.66,0,8.6,3.695,8.6,8.071V474.741c0,73.694-38.6,125-100.726,133.909,0,0-10.977.419-10.977,6.231V802.947C555.831,825.683,569.675,829.984,573.088,830.7Z" transform="translate(-110 -17)" fill="#fff"/>
        <path id="Path_11" data-name="Path 11" d="M651.953,474.011c0-17.148-33.9.563-43.441.563-59.943,0-122.278-83.111-146.441-83.111a17.175,17.175,0,0,0-17.339,16.911v65.637c0,66.33,35.6,120.113,103.612,120.113S651.953,540.341,651.953,474.011Z" transform="translate(-110 -17)" fill="maroon"/>
      </g>
    </g>
  </g>
</svg>
