<svg xmlns="http://www.w3.org/2000/svg" xmlns:xlink="http://www.w3.org/1999/xlink" width="64.375" height="215.136" viewBox="0 0 64.375 215.136">
  <defs>
    <linearGradient id="linear-gradient" x1="1.271" y1="0.393" x2="-0.283" y2="0.892" gradientUnits="objectBoundingBox">
      <stop offset="0" stop-color="#6e6e6e"/>
      <stop offset="1"/>
    </linearGradient>
  </defs>
  <g id="gin" transform="translate(-218.891 -21.468)">
    <path id="Path_38" data-name="Path 38" d="M32.091-.766H58.124L57.3,51.084l19.142,3.875.823,155.8a160.768,160.768,0,0,1-31.54,3.6,168.75,168.75,0,0,1-32.013-3.6l-.823-155.8,18.377-3.875Z" transform="translate(206 22.243)" fill="rgba(255,255,255,0.25)"/>
    <path id="Path_40" data-name="Path 40" d="M0,0H29V21.178a89.332,89.332,0,0,1-14.273,1.3A98.988,98.988,0,0,1,0,21.178Z" transform="translate(237 21.468)" fill="url(#linear-gradient)"/>
    <path id="Path_39" data-name="Path 39" d="M53.954,71.7c7.133.441,14.942,4.239,14.942,4.239v145.53s-13.051,6.992-26.847,6.992-28.335-6.992-28.335-6.992V75.942s6.219-3.8,12.881-4.239S46.82,71.262,53.954,71.7Z" transform="translate(210 5.887)" fill="rgba(175,214,219,0.54)"/>
    <path id="Path_43" data-name="Path 43" d="M2209-43.234V41.058" transform="translate(-1939 135)" fill="none" stroke="#fff" stroke-linecap="round" stroke-width="3"/>
    <text id="GIN-2" data-name="GIN" transform="translate(229 132)" font-size="20" font-family="NiagaraEngraved-Reg, Niagara Engraved" letter-spacing="0.015em"><tspan x="13.161" y="18">GIN</tspan></text>
    <path id="Icon_awesome-chess-king" data-name="Icon awesome-chess-king" d="M13.84,15.5H1.662a.554.554,0,0,0-.554.554v1.107a.554.554,0,0,0,.554.554H13.84a.554.554,0,0,0,.554-.554V16.054A.554.554,0,0,0,13.84,15.5Zm.554-9.964H8.858V3.875h1.384a.277.277,0,0,0,.277-.277V1.937a.277.277,0,0,0-.277-.277H8.858V.277A.277.277,0,0,0,8.581,0H6.921a.277.277,0,0,0-.277.277V1.661H5.26a.277.277,0,0,0-.277.277V3.6a.277.277,0,0,0,.277.277H6.644V5.536H1.108A1.107,1.107,0,0,0,.052,6.973l2.528,7.42H12.921l2.528-7.42a1.107,1.107,0,0,0-1.056-1.437Z" transform="translate(242 114.286)"/>
    <rect id="Rectangle_13" data-name="Rectangle 13" width="26" height="7" transform="translate(238 155)"/>
    <text id="_Maroon" data-name=" Maroon" transform="translate(243 156)" fill="#fff" font-size="5" font-family="NiagaraEngraved-Reg, Niagara Engraved"><tspan x="2.777" y="4" xml:space="preserve"> Maroon</tspan></text>
  </g>
</svg>
