<svg xmlns="http://www.w3.org/2000/svg" xmlns:xlink="http://www.w3.org/1999/xlink" viewBox="0 0 47 81"><defs/><defs><linearGradient id="b" x1="1.311" x2=".035" y1=".32" y2=".439" gradientUnits="objectBoundingBox"><stop offset="0" stop-color="#fff"/><stop offset="1" stop-color="#686767"/></linearGradient><linearGradient id="a" x1=".5" x2=".5" y1="-.891" y2="1" gradientUnits="objectBoundingBox"><stop offset="0" stop-color="#fff"/><stop offset="1" stop-color="gray"/></linearGradient><linearGradient id="c" x1="0" x2=".784" y1=".15" y2=".611" xlink:href="#a"/><linearGradient id="d" y1="-.269" xlink:href="#a"/><linearGradient id="e" x1="-.546" x2="1" y1="-.156" xlink:href="#a"/></defs><g transform="translate(-183 -478)"><path fill="url(#b)" d="M21.125 5.055a2 2 0 013.75 0L45 59.3a2 2 0 01-1.875 2.7H2.875A2 2 0 011 59.3z" transform="rotate(180 115 270)"/><rect width="47" height="4" fill="url(#a)" data-name="silver-brushed-metal-plate-background-vector0" rx="2" transform="translate(183 478)"/><path fill="url(#c)" d="M18.2 3.685a2 2 0 013.6 0l16.8 34.438A2 2 0 0136.8 41H3.2a2 2 0 01-1.8-2.877z" data-name="silver-brushed-metal-plate-background-vector0" transform="translate(187 518)"/><rect width="42" height="4" fill="url(#d)" data-name="silver-brushed-metal-plate-background-vector0" rx="2" transform="translate(186 555)"/><rect width="14" height="11" fill="url(#e)" data-name="silver-brushed-metal-plate-background-vector0" rx="3" transform="translate(200 520)"/><path fill="none" stroke="rgba(255,255,255,0.71)" stroke-linecap="round" stroke-width="2" d="M212.132 536.139c8.155 16.084 8.155 16.311 8.155 16.311" data-name="Path 11"/><path fill="none" stroke="rgba(255,255,255,0.71)" stroke-linecap="round" stroke-width="2" d="M211.132 523.133v5.609" data-name="Path 12"/><path fill="none" stroke="rgba(255,255,255,0.71)" stroke-linecap="round" stroke-width="2" d="M221.287 485.434c-9.288 31.715-9.968 30.809-9.968 30.809" data-name="Path 13"/></g></svg>