<svg xmlns="http://www.w3.org/2000/svg" xmlns:xlink="http://www.w3.org/1999/xlink" width="94.799" height="151.622" viewBox="0 0 94.799 151.622">
  <defs>
    <radialGradient id="radial-gradient" cx="0.5" cy="0.5" r="0.5" gradientUnits="objectBoundingBox">
      <stop offset="0" stop-color="#f80"/>
      <stop offset="0.693" stop-color="#ff5400"/>
      <stop offset="1" stop-color="#fc3d0d"/>
    </radialGradient>
    <linearGradient id="linear-gradient" x1="1.182" y1="0.293" x2="-0.329" y2="1.187" gradientUnits="objectBoundingBox">
      <stop offset="0" stop-color="#c49e53"/>
      <stop offset="1" stop-color="#ffbb76"/>
    </linearGradient>
    <linearGradient id="linear-gradient-2" x1="1" y1="0.44" x2="0" y2="0.434" gradientUnits="objectBoundingBox">
      <stop offset="0"/>
      <stop offset="0.191"/>
      <stop offset="0.256" stop-color="#efef96"/>
      <stop offset="0.328"/>
      <stop offset="0.5"/>
      <stop offset="0.663"/>
      <stop offset="0.731" stop-color="#efef96"/>
      <stop offset="0.823"/>
      <stop offset="1"/>
    </linearGradient>
  </defs>
  <g id="brandy" transform="translate(-47.693 -85)">
    <path id="Path_34" data-name="Path 34" d="M24.889,12.3A76.4,76.4,0,0,0,39.7,13.99a76.326,76.326,0,0,0,14.81-1.69L83.788,35.337s-4.774,29.8-4.774,42.982c0,18.865,7.39,34.781,2.972,37.787s-28.118-1.612-42.283-1.612S.987,119.286-3.006,116.106.3,98.113.383,78.319c.05-12.553-3.389-42.982-3.389-42.982Z" transform="translate(55 116)" fill="url(#radial-gradient)"/>
    <path id="Path_33" data-name="Path 33" d="M32.091,18.816H58.124V49.969L92,75.8a291.643,291.643,0,0,0-2.863,39.327c0,20.719,7.45,37.385,2.863,43.55s-30.666,2.591-46.554,2.591S4.4,164.366,0,158.681s3.732-43.55,3.732-43.55L0,75.8,32.091,49.969Z" transform="translate(49 74.319)" fill="rgba(255,255,255,0.25)"/>
    <rect id="Rectangle_12" data-name="Rectangle 12" width="21" height="18" rx="5" transform="translate(84 89)" fill="url(#linear-gradient)"/>
    <rect id="Rectangle_9" data-name="Rectangle 9" width="33" height="8" rx="3" transform="translate(78 85)" fill="url(#linear-gradient-2)"/>
    <path id="Path_37" data-name="Path 37" d="M2047.131,1.528c24.456,23.812,18.664,20.916,18.664,20.916" transform="matrix(0.995, -0.105, 0.105, 0.995, -1925.992, 351.056)" fill="none" stroke="#fff" stroke-linecap="round" stroke-width="3"/>
    <text id="Brandy-2" data-name="Brandy" transform="translate(67 172)" font-size="15" font-family="Algerian"><tspan x="0" y="13">Brandy</tspan></text>
    <text id="Maroon" transform="translate(85 162)" font-size="5" font-family="Algerian"><tspan x="0" y="4">Maroon</tspan></text>
    <path id="Path_50" data-name="Path 50" d="M66.125,172a152.83,152.83,0,0,1,30.006-2.586A274.088,274.088,0,0,1,125.208,172" transform="translate(0 18)" fill="none" stroke="#000" stroke-width="1"/>
    <path id="Icon_awesome-crown" data-name="Icon awesome-crown" d="M12.66,10.742H2.685a.385.385,0,0,0-.384.384v.767a.385.385,0,0,0,.384.384H12.66a.385.385,0,0,0,.384-.384v-.767A.385.385,0,0,0,12.66,10.742Zm1.535-7.673A1.151,1.151,0,0,0,13.044,4.22a1.128,1.128,0,0,0,.106.475L11.413,5.735a.766.766,0,0,1-1.06-.278L8.4,2.038a1.151,1.151,0,1,0-1.453,0L4.992,5.457a.767.767,0,0,1-1.06.278L2.2,4.695a1.151,1.151,0,1,0-1.048.676,1.175,1.175,0,0,0,.185-.019L3.069,9.975h9.207L14.01,5.352a1.175,1.175,0,0,0,.185.019,1.151,1.151,0,1,0,0-2.3Z" transform="translate(87 147.724)"/>
    <path id="Path_56" data-name="Path 56" d="M66.125,169.371A174.67,174.67,0,0,0,96.638,171.7c15.152-.393,29.57-2.332,29.57-2.332" transform="translate(0 1.629)" fill="none" stroke="#000" stroke-width="1"/>
    <path id="Icon_awesome-critical-role" data-name="Icon awesome-critical-role" d="M5.879,0c.007,0,5.6,3.217,5.61,3.223a.155.155,0,0,1,.1.17q0,3.234,0,6.469a.152.152,0,0,1-.087.149c-.552.31-5.371,3.057-5.657,3.219H5.763C3.713,12.05.123,9.989.12,9.987A.085.085,0,0,1,.071,9.9c0-.022,0-5.838,0-6.54a.129.129,0,0,1,.076-.127C.746,2.9,5.553.155,5.834,0ZM5.61.528,5.6.524.587,3.382a.026.026,0,0,0,0,.009l.8.3c-.2.155-.215.155-.275.133,0,0-.625-.24-.693-.258V9.52c.023-.036,1.656-2.866,1.657-2.868.042-.073.078-.05.236-.039.036,0,.038.006.02.037C1.268,8.492,1.392,8.277.589,9.671.568,9.707.573,9.7.621,9.7H5.44c.037,0,.044-.006.044-.042V9.428c0-.035.061-.021-.475-.026a.678.678,0,0,1-.552-.328c-.191-.25-.378-.5-.565-.755-.059-.08-.089-.061-.433-.061-.045,0-.046,0-.045.047a6.6,6.6,0,0,0,.026.844c.013.113.056.109.25.124.081.007.1.105.013.127-.041.01-.817.013-.87,0a.063.063,0,0,1,.008-.122c.085-.02.159.021.172-.115a17.99,17.99,0,0,0,.028-2.052c0-.28-.009-.325-.139-.35-.032-.006-.091,0-.121-.014-.074-.026-.052-.125.046-.125.87,0,1.191-.028,1.449.126a.627.627,0,0,1,.323.527,1.123,1.123,0,0,1-.388.842.038.038,0,0,0,0,.057c.067.084.129.171.2.254.712.859.623.789,1.067.854.023,0,.026-.011.026-.03V8.966c0-.026.008-.037.036-.033a1.87,1.87,0,0,0,.609-.008c.028,0,.039.005.038.034,0,0,.023.69.022.693,0,.039.017.042.049.042h4.825l-2.1-3.639a1.074,1.074,0,0,1,.173-.036c.052-.01.053-.011.08.037.189.327,2,3.463,2,3.464V3.566c-.044.013-2.669,1-2.733,1.025-.028.011-.04.005-.049-.023-.016-.049-.035-.1-.054-.145-.008-.02,0-.029.017-.036,0,0,2.469-.926,2.662-1L6.015.476,8.258,4.362l-.007.009c-.247-.023-.27-.041-.3-.1C7.92,4.225,6.047.969,5.827.6,5.592.974,3.668,4.374,3.621,4.376c-.076,0-.152,0-.239,0L5.609.528ZM6.952,3.885a.974.974,0,0,0,.143-.022c.044-.008.065.005.067.05a4.117,4.117,0,0,1-.022.528c-.024.036-.049.032-.067,0-.129-.25.161-.25-1.011-.31-.018,0-.026.006-.026.024s.1,3.153.1,3.155c0,.023.013.031.031.039a2.169,2.169,0,0,1,.225.1.64.64,0,0,1,.321.5.821.821,0,0,1-.832.96.831.831,0,0,1-.882-.6.781.781,0,0,1,.514-.941A.063.063,0,0,0,5.56,7.3c0-.145.078-2.768.1-3.136,0-.028-.016-.03-.035-.03-.836.013-.95-.009-1.039.22-.063.16-.107.034-.1.006q.041-.233.086-.465c.01-.055.037-.067.089-.048.144.055.174.044.963.05.045,0,.046,0,.047-.048.018-.71.015-.584.026-.764a.07.07,0,0,0-.042-.072.4.4,0,0,1-.23-.358.413.413,0,0,1,.708-.3.407.407,0,0,1-.063.624A.112.112,0,0,0,6,3.091c0,.015,0-.111.026.777,0,.023.011.029.032.029,0,0,.594,0,.891-.01ZM1.808,3.662a3.548,3.548,0,0,1,1.356.044c.071.008.1.032.094.1-.005.129-.03.577-.032.6a.068.068,0,0,1-.042.06c-.1.044-.093-.115-.1-.188C3,3.7,1.172,3.434,1.152,4.935a1.267,1.267,0,0,0,1.4,1.315c.7-.052.491-.522.642-.529a.07.07,0,0,1,.078.087c-.047.28-.088.49-.089.495C3.14,6.54.939,6.874.767,5.216A1.381,1.381,0,0,1,1.808,3.662ZM3.875,5.927h-.5A.066.066,0,0,1,3.3,5.881c.062-.1.152.024.151-.159,0-.665.005-.982.006-1.036,0-.088-.014-.12-.086-.128-.181-.019-.08-.087-.029-.087a6.962,6.962,0,0,1,.777.019.347.347,0,0,1,.2.585c-.052.058-.1.114-.159.174.025.03.178.228.447.509a.294.294,0,0,0,.255.081.057.057,0,0,0,.058-.055A9.907,9.907,0,0,0,4.94,4.734c0-.146-.009-.17-.083-.176-.1-.009-.1-.058-.018-.087l.493,0c.008,0,.116.014.026.087,0,0,0,0-.006,0-.093.007-.1.026-.1.119a7.49,7.49,0,0,0,.011,1.106c0,.022.007.058.132.055.064,0,.1.087,0,.088-.268,0-.536,0-.8,0s-.348-.16-.626-.538c-.041-.056-.215-.061-.212-.01.023.426,0,.459.1.457.123,0,.122.092.021.092Zm7.106-.262c-.031.184,0,.268-.137.267-1.59-.011-1.236-.006-1.311-.008a.475.475,0,0,1-.094-.019c-.065-.016.038-.032-.01-.145-.037-.087-.072-.175-.106-.263a.05.05,0,0,0-.052-.037,3.566,3.566,0,0,0-.377,0,.058.058,0,0,0-.042.027c-.041.094-.079.188-.117.284s.2.034.315.056c.078.015.117.1.017.1H8.388c-.075,0-.08-.081-.019-.083a.163.163,0,0,0,.153-.09c.039-.078.072-.155.106-.235A7.731,7.731,0,0,1,9.1,4.443a.047.047,0,0,1,.078,0c.076.086.475,1.155.61,1.342a.179.179,0,0,0,.164.052c.093,0,.1-.029.107-.111,0-.048,0,.03,0-1.066,0-.115-.061-.1-.143-.11-.007,0-.066-.016,0-.079a3.674,3.674,0,0,1,.561,0c.06,0,.137.071-.031.089a.066.066,0,0,0-.069.073c0,.042,0,1,.007,1.065a.079.079,0,0,0,.083.063c.342.011.386.011.413-.088.043-.149.107-.065.1,0ZM8.275,7.328c-.11,0-.114-.088-.016-.088a6.312,6.312,0,0,0,.961-.017c.043,0,.062.006.058.049-.007.088-.017.175-.026.263-.006.056-.083.067-.088,0-.01-.137-.056-.115-.4-.131-.041,0-.042,0-.042.039v.417c0,.043,0,.041.042.038a1.532,1.532,0,0,0,.405-.039c.012,0,.085-.046.079.045,0,.005-.02.267-.03.294s-.049.039-.067.008c-.03-.052,0-.131-.1-.137-.4-.023-.334-.066-.334.155,0,.317-.02.416.1.42.43.012.372,0,.425-.148.022-.061.09-.046.082.015-.011.083-.022.166-.032.249,0,.009,0,.062-.12.062-.96,0-.893,0-.91-.008-.07-.013-.057-.078.006-.089.028,0,.1.014.107-.066.063-1.453,0-1.327-.1-1.326ZM8.265,4.5c.064.016.081.045.076.12-.009.137-.009.233-.014.25-.017.058-.081.055-.086-.007a.251.251,0,0,0-.2-.236c-.679-.2-.848.4-.7.781a.611.611,0,0,0,.746.356c.153-.048.152-.168.179-.2s.058-.048.081.028c0,0,.015.307-.155.329a1.45,1.45,0,0,1-.844-.088A.741.741,0,0,1,7.17,4.665,1.238,1.238,0,0,1,8.264,4.5ZM7.532,7.239c.085,0,.095.078,0,.089-.067.008-.129-.011-.129.141,0,.052,0,.751.01,1.071a.085.085,0,0,0,.089.094c.568.031.386-.043.486-.164.047-.058.071.022.071.028.009.352-.1.32-.134.32l-.986,0a.045.045,0,0,1-.011-.087c.052-.012.128.01.133-.072.026-.41.015-1.154.009-1.235-.007-.1-.072-.084-.147-.1s-.052-.083.009-.083h.6ZM6.715,5.746c0,.105.074.089.155.093a.045.045,0,1,1,0,.089l-.558,0c-.1,0-.087-.087,0-.087.116,0,.084.042.088-1.177,0-.131-.084-.091-.122-.109-.067-.032-.035-.08.011-.081s.522-.011.547.005.048.043-.011.074c-.026.013-.1-.007-.107.064a9.8,9.8,0,0,0,0,1.132Zm-.954,7.087a.076.076,0,0,0,.084,0c.439-.253,4.7-2.676,5.1-2.907,0-.011.291,0-4.691-.007-.032,0-.041.01-.04.04,0,0,.032,1.15.032,1.3a.732.732,0,0,1-.035.2c-.014.047.01-.013-.349.833-.019.044-.026.057-.052,0-.108-.267-.214-.535-.325-.8a.61.61,0,0,1-.052-.279c0-.064.021-.417.039-1.24,0-.05,0-.052-.052-.052H.695c.067.042,4.608,2.65,5.065,2.914ZM3.412,7.956c0,.062.009.072.071.078.3.03.543.1.663-.189.155-.374.069-.889-.322-1-.052-.015-.413-.071-.412.039,0,.208,0,.3,0,1.076Zm2.733-.389c0,.055.028,1,.028,1.011.009.257-.661.149-.652-.067,0-.052.035-.967.028-1.019a.769.769,0,0,0,.166,1.261.463.463,0,0,0,.579-.183.874.874,0,0,0-.14-1.008l-.009,0ZM5.828,2.45a.192.192,0,0,0,0,.384.192.192,0,0,0,0-.384ZM3.757,5.133c0,.047.011.062.056.067.352.036.323-.284.314-.345-.044-.29-.372-.264-.371-.2,0,.116,0,.353,0,.48ZM9.243,5.3l-.158-.409L8.924,5.3Z" transform="translate(89.037 191.811)"/>
  </g>
</svg>
