<svg xmlns="http://www.w3.org/2000/svg" xmlns:xlink="http://www.w3.org/1999/xlink" width="1920" height="1080" viewBox="0 0 1920 1080">
  <defs>
    <clipPath id="clip-path">
      <rect width="1822.236" height="141.451" fill="none"/>
    </clipPath>
    <radialGradient id="radial-gradient" cx="0.5" cy="0.5" r="0.5" gradientUnits="objectBoundingBox">
      <stop offset="0" stop-color="#ff9100" stop-opacity="0.839"/>
      <stop offset="1" stop-color="#ffbb48"/>
    </radialGradient>
    <linearGradient id="linear-gradient" x1="1.186" y1="0.182" x2="-0.091" y2="0.859" gradientUnits="objectBoundingBox">
      <stop offset="0" stop-color="#fff1ae"/>
      <stop offset="1" stop-color="#ecd76d"/>
    </linearGradient>
    <linearGradient id="linear-gradient-2" x1="1.271" y1="0.393" x2="-0.283" y2="0.892" gradientUnits="objectBoundingBox">
      <stop offset="0" stop-color="#ddd"/>
      <stop offset="1" stop-color="#888686"/>
    </linearGradient>
    <linearGradient id="linear-gradient-3" x1="-0.234" y1="0.907" x2="1.459" y2="0.187" gradientUnits="objectBoundingBox">
      <stop offset="0"/>
      <stop offset="1" stop-color="#545454"/>
    </linearGradient>
    <radialGradient id="radial-gradient-2" cx="0.5" cy="0.5" r="0.5" gradientUnits="objectBoundingBox">
      <stop offset="0" stop-color="#ff9200"/>
      <stop offset="1" stop-color="#ff8448"/>
    </radialGradient>
    <linearGradient id="linear-gradient-5" x1="0.5" x2="0.5" y2="1" gradientUnits="objectBoundingBox">
      <stop offset="0" stop-color="#ff9200"/>
      <stop offset="0.284" stop-color="#ff5f10"/>
      <stop offset="0.683" stop-color="#ff9200"/>
      <stop offset="1" stop-color="#fc5b0d"/>
    </linearGradient>
    <linearGradient id="linear-gradient-6" x1="1.186" y1="0.182" x2="-0.091" y2="0.859" gradientUnits="objectBoundingBox">
      <stop offset="0" stop-color="#86857f"/>
      <stop offset="1"/>
    </linearGradient>
    <radialGradient id="radial-gradient-3" cx="0.5" cy="0.5" r="0.5" gradientUnits="objectBoundingBox">
      <stop offset="0" stop-color="#ffca00"/>
      <stop offset="0.037" stop-color="#f80"/>
      <stop offset="0.693" stop-color="#ffa000"/>
      <stop offset="1" stop-color="#fc760d"/>
    </radialGradient>
    <linearGradient id="linear-gradient-7" x1="1.182" y1="0.293" x2="-0.329" y2="1.187" gradientUnits="objectBoundingBox">
      <stop offset="0" stop-color="#c49e53"/>
      <stop offset="1" stop-color="#ffbb76"/>
    </linearGradient>
    <radialGradient id="radial-gradient-4" cx="0.5" cy="0.5" r="0.5" gradientUnits="objectBoundingBox">
      <stop offset="0" stop-color="#f80"/>
      <stop offset="0.693" stop-color="#ff5400"/>
      <stop offset="1" stop-color="#fc3d0d"/>
    </radialGradient>
    <linearGradient id="linear-gradient-10" x1="1" y1="0.44" x2="0" y2="0.434" gradientUnits="objectBoundingBox">
      <stop offset="0"/>
      <stop offset="0.191"/>
      <stop offset="0.256" stop-color="#efef96"/>
      <stop offset="0.328"/>
      <stop offset="0.5"/>
      <stop offset="0.663"/>
      <stop offset="0.731" stop-color="#efef96"/>
      <stop offset="0.823"/>
      <stop offset="1"/>
    </linearGradient>
    <linearGradient id="linear-gradient-11" x1="-0.234" y1="0.907" x2="1.459" y2="0.187" gradientUnits="objectBoundingBox">
      <stop offset="0" stop-color="#34761e"/>
      <stop offset="1" stop-color="#65c42e"/>
    </linearGradient>
    <linearGradient id="linear-gradient-12" x1="1.171" y1="0.254" x2="-0.428" y2="0.752" gradientUnits="objectBoundingBox">
      <stop offset="0" stop-color="#fff"/>
      <stop offset="1" stop-color="gray"/>
    </linearGradient>
    <linearGradient id="linear-gradient-13" x1="1.271" y1="0.393" x2="-0.283" y2="0.892" gradientUnits="objectBoundingBox">
      <stop offset="0" stop-color="#6e6e6e"/>
      <stop offset="1"/>
    </linearGradient>
    <clipPath id="clip-Web_1920_1">
      <rect width="1920" height="1080"/>
    </clipPath>
  </defs>
  <g id="Web_1920_1" data-name="Web 1920 – 1" clip-path="url(#clip-Web_1920_1)">
    <rect width="1920" height="1080" fill="rgba(255,255,255,0)"/>
    <g id="counter" transform="translate(0 281)">
      <rect id="main" width="1818" height="291" transform="translate(53 508)" fill="#c19a6b"/>
      <rect id="top" width="1920" height="59" rx="29.5" transform="translate(0 449)" fill="#907350"/>
      <rect id="Rectangle_1" data-name="Rectangle 1" width="640" height="198" rx="35" transform="translate(640 555)" fill="#907350"/>
      <rect id="Rectangle_2" data-name="Rectangle 2" width="375" height="198" rx="35" transform="translate(134 555)" fill="#907350"/>
      <rect id="Rectangle_3" data-name="Rectangle 3" width="375" height="198" rx="35" transform="translate(1411 555)" fill="#907350"/>
    </g>
    <rect id="Rectangle_4" data-name="Rectangle 4" width="1920" height="35" transform="translate(0 233)"/>
    <g id="wine_glass" transform="translate(49.072 250.927)" clip-path="url(#clip-path)">
      <g id="wine_glass-2" data-name="wine_glass" transform="translate(-210.072 -258.927)">
        <path id="Icon_awesome-wine-glass" data-name="Icon awesome-wine-glass" d="M59.1,126.963H48.158V94.9A39.58,39.58,0,0,0,78.64,52.714L74.275,3.981A4.341,4.341,0,0,0,69.977,0H8.827a4.338,4.338,0,0,0-4.3,3.981L.164,52.717A39.58,39.58,0,0,0,30.646,94.9v32.064H19.7A10.946,10.946,0,0,0,8.755,137.908a2.188,2.188,0,0,0,2.189,2.189H67.859a2.188,2.188,0,0,0,2.189-2.189A10.946,10.946,0,0,0,59.1,126.963Z" transform="matrix(-1, 0.017, -0.017, -1, 291.308, 399.002)" fill="rgba(255,255,255,0.55)"/>
        <path id="Path_1" data-name="Path 1" d="M2237.125,208.389c18.525,20.1,8.5,71.6,8.5,71.6" transform="translate(-1967.716 110.763)" fill="none" stroke="#fff" stroke-width="5"/>
      </g>
      <g id="wine_glass-3" data-name="wine_glass" transform="translate(-108.072 -258.927)">
        <path id="Icon_awesome-wine-glass-2" data-name="Icon awesome-wine-glass" d="M59.1,126.963H48.158V94.9A39.58,39.58,0,0,0,78.64,52.714L74.275,3.981A4.341,4.341,0,0,0,69.977,0H8.827a4.338,4.338,0,0,0-4.3,3.981L.164,52.717A39.58,39.58,0,0,0,30.646,94.9v32.064H19.7A10.946,10.946,0,0,0,8.755,137.908a2.188,2.188,0,0,0,2.189,2.189H67.859a2.188,2.188,0,0,0,2.189-2.189A10.946,10.946,0,0,0,59.1,126.963Z" transform="matrix(-1, 0.017, -0.017, -1, 291.308, 399.002)" fill="rgba(255,255,255,0.55)"/>
        <path id="Path_1-2" data-name="Path 1" d="M2237.125,208.389c18.525,20.1,8.5,71.6,8.5,71.6" transform="translate(-1967.716 110.763)" fill="none" stroke="#fff" stroke-width="5"/>
      </g>
      <g id="wine_glass-4" data-name="wine_glass" transform="translate(-6.072 -258.927)">
        <path id="Icon_awesome-wine-glass-3" data-name="Icon awesome-wine-glass" d="M59.1,126.963H48.158V94.9A39.58,39.58,0,0,0,78.64,52.714L74.275,3.981A4.341,4.341,0,0,0,69.977,0H8.827a4.338,4.338,0,0,0-4.3,3.981L.164,52.717A39.58,39.58,0,0,0,30.646,94.9v32.064H19.7A10.946,10.946,0,0,0,8.755,137.908a2.188,2.188,0,0,0,2.189,2.189H67.859a2.188,2.188,0,0,0,2.189-2.189A10.946,10.946,0,0,0,59.1,126.963Z" transform="matrix(-1, 0.017, -0.017, -1, 291.308, 399.002)" fill="rgba(255,255,255,0.55)"/>
        <path id="Path_1-3" data-name="Path 1" d="M2237.125,208.389c18.525,20.1,8.5,71.6,8.5,71.6" transform="translate(-1967.716 110.763)" fill="none" stroke="#fff" stroke-width="5"/>
      </g>
      <g id="wine_glass-5" data-name="wine_glass" transform="translate(95.928 -258.927)">
        <path id="Icon_awesome-wine-glass-4" data-name="Icon awesome-wine-glass" d="M59.1,126.963H48.158V94.9A39.58,39.58,0,0,0,78.64,52.714L74.275,3.981A4.341,4.341,0,0,0,69.977,0H8.827a4.338,4.338,0,0,0-4.3,3.981L.164,52.717A39.58,39.58,0,0,0,30.646,94.9v32.064H19.7A10.946,10.946,0,0,0,8.755,137.908a2.188,2.188,0,0,0,2.189,2.189H67.859a2.188,2.188,0,0,0,2.189-2.189A10.946,10.946,0,0,0,59.1,126.963Z" transform="matrix(-1, 0.017, -0.017, -1, 291.308, 399.002)" fill="rgba(255,255,255,0.55)"/>
        <path id="Path_1-4" data-name="Path 1" d="M2237.125,208.389c18.525,20.1,8.5,71.6,8.5,71.6" transform="translate(-1967.716 110.763)" fill="none" stroke="#fff" stroke-width="5"/>
      </g>
      <g id="wine_glass-6" data-name="wine_glass" transform="translate(197.928 -258.927)">
        <path id="Icon_awesome-wine-glass-5" data-name="Icon awesome-wine-glass" d="M59.1,126.963H48.158V94.9A39.58,39.58,0,0,0,78.64,52.714L74.275,3.981A4.341,4.341,0,0,0,69.977,0H8.827a4.338,4.338,0,0,0-4.3,3.981L.164,52.717A39.58,39.58,0,0,0,30.646,94.9v32.064H19.7A10.946,10.946,0,0,0,8.755,137.908a2.188,2.188,0,0,0,2.189,2.189H67.859a2.188,2.188,0,0,0,2.189-2.189A10.946,10.946,0,0,0,59.1,126.963Z" transform="matrix(-1, 0.017, -0.017, -1, 291.308, 399.002)" fill="rgba(255,255,255,0.55)"/>
        <path id="Path_1-5" data-name="Path 1" d="M2237.125,208.389c18.525,20.1,8.5,71.6,8.5,71.6" transform="translate(-1967.716 110.763)" fill="none" stroke="#fff" stroke-width="5"/>
      </g>
      <g id="wine_glass-7" data-name="wine_glass" transform="translate(299.928 -258.927)">
        <path id="Icon_awesome-wine-glass-6" data-name="Icon awesome-wine-glass" d="M59.1,126.963H48.158V94.9A39.58,39.58,0,0,0,78.64,52.714L74.275,3.981A4.341,4.341,0,0,0,69.977,0H8.827a4.338,4.338,0,0,0-4.3,3.981L.164,52.717A39.58,39.58,0,0,0,30.646,94.9v32.064H19.7A10.946,10.946,0,0,0,8.755,137.908a2.188,2.188,0,0,0,2.189,2.189H67.859a2.188,2.188,0,0,0,2.189-2.189A10.946,10.946,0,0,0,59.1,126.963Z" transform="matrix(-1, 0.017, -0.017, -1, 291.308, 399.002)" fill="rgba(255,255,255,0.55)"/>
        <path id="Path_1-6" data-name="Path 1" d="M2237.125,208.389c18.525,20.1,8.5,71.6,8.5,71.6" transform="translate(-1967.716 110.763)" fill="none" stroke="#fff" stroke-width="5"/>
      </g>
      <g id="wine_glass-8" data-name="wine_glass" transform="translate(401.928 -258.927)">
        <path id="Icon_awesome-wine-glass-7" data-name="Icon awesome-wine-glass" d="M59.1,126.963H48.158V94.9A39.58,39.58,0,0,0,78.64,52.714L74.275,3.981A4.341,4.341,0,0,0,69.977,0H8.827a4.338,4.338,0,0,0-4.3,3.981L.164,52.717A39.58,39.58,0,0,0,30.646,94.9v32.064H19.7A10.946,10.946,0,0,0,8.755,137.908a2.188,2.188,0,0,0,2.189,2.189H67.859a2.188,2.188,0,0,0,2.189-2.189A10.946,10.946,0,0,0,59.1,126.963Z" transform="matrix(-1, 0.017, -0.017, -1, 291.308, 399.002)" fill="rgba(255,255,255,0.55)"/>
        <path id="Path_1-7" data-name="Path 1" d="M2237.125,208.389c18.525,20.1,8.5,71.6,8.5,71.6" transform="translate(-1967.716 110.763)" fill="none" stroke="#fff" stroke-width="5"/>
      </g>
      <g id="wine_glass-9" data-name="wine_glass" transform="translate(503.928 -258.927)">
        <path id="Icon_awesome-wine-glass-8" data-name="Icon awesome-wine-glass" d="M59.1,126.963H48.158V94.9A39.58,39.58,0,0,0,78.64,52.714L74.275,3.981A4.341,4.341,0,0,0,69.977,0H8.827a4.338,4.338,0,0,0-4.3,3.981L.164,52.717A39.58,39.58,0,0,0,30.646,94.9v32.064H19.7A10.946,10.946,0,0,0,8.755,137.908a2.188,2.188,0,0,0,2.189,2.189H67.859a2.188,2.188,0,0,0,2.189-2.189A10.946,10.946,0,0,0,59.1,126.963Z" transform="matrix(-1, 0.017, -0.017, -1, 291.308, 399.002)" fill="rgba(255,255,255,0.55)"/>
        <path id="Path_1-8" data-name="Path 1" d="M2237.125,208.389c18.525,20.1,8.5,71.6,8.5,71.6" transform="translate(-1967.716 110.763)" fill="none" stroke="#fff" stroke-width="5"/>
      </g>
      <g id="wine_glass-10" data-name="wine_glass" transform="translate(605.928 -258.927)">
        <path id="Icon_awesome-wine-glass-9" data-name="Icon awesome-wine-glass" d="M59.1,126.963H48.158V94.9A39.58,39.58,0,0,0,78.64,52.714L74.275,3.981A4.341,4.341,0,0,0,69.977,0H8.827a4.338,4.338,0,0,0-4.3,3.981L.164,52.717A39.58,39.58,0,0,0,30.646,94.9v32.064H19.7A10.946,10.946,0,0,0,8.755,137.908a2.188,2.188,0,0,0,2.189,2.189H67.859a2.188,2.188,0,0,0,2.189-2.189A10.946,10.946,0,0,0,59.1,126.963Z" transform="matrix(-1, 0.017, -0.017, -1, 291.308, 399.002)" fill="rgba(255,255,255,0.55)"/>
        <path id="Path_1-9" data-name="Path 1" d="M2237.125,208.389c18.525,20.1,8.5,71.6,8.5,71.6" transform="translate(-1967.716 110.763)" fill="none" stroke="#fff" stroke-width="5"/>
      </g>
      <g id="wine_glass-11" data-name="wine_glass" transform="translate(707.928 -258.927)">
        <path id="Icon_awesome-wine-glass-10" data-name="Icon awesome-wine-glass" d="M59.1,126.963H48.158V94.9A39.58,39.58,0,0,0,78.64,52.714L74.275,3.981A4.341,4.341,0,0,0,69.977,0H8.827a4.338,4.338,0,0,0-4.3,3.981L.164,52.717A39.58,39.58,0,0,0,30.646,94.9v32.064H19.7A10.946,10.946,0,0,0,8.755,137.908a2.188,2.188,0,0,0,2.189,2.189H67.859a2.188,2.188,0,0,0,2.189-2.189A10.946,10.946,0,0,0,59.1,126.963Z" transform="matrix(-1, 0.017, -0.017, -1, 291.308, 399.002)" fill="rgba(255,255,255,0.55)"/>
        <path id="Path_1-10" data-name="Path 1" d="M2237.125,208.389c18.525,20.1,8.5,71.6,8.5,71.6" transform="translate(-1967.716 110.763)" fill="none" stroke="#fff" stroke-width="5"/>
      </g>
      <g id="wine_glass-12" data-name="wine_glass" transform="translate(809.928 -258.927)">
        <path id="Icon_awesome-wine-glass-11" data-name="Icon awesome-wine-glass" d="M59.1,126.963H48.158V94.9A39.58,39.58,0,0,0,78.64,52.714L74.275,3.981A4.341,4.341,0,0,0,69.977,0H8.827a4.338,4.338,0,0,0-4.3,3.981L.164,52.717A39.58,39.58,0,0,0,30.646,94.9v32.064H19.7A10.946,10.946,0,0,0,8.755,137.908a2.188,2.188,0,0,0,2.189,2.189H67.859a2.188,2.188,0,0,0,2.189-2.189A10.946,10.946,0,0,0,59.1,126.963Z" transform="matrix(-1, 0.017, -0.017, -1, 291.308, 399.002)" fill="rgba(255,255,255,0.55)"/>
        <path id="Path_1-11" data-name="Path 1" d="M2237.125,208.389c18.525,20.1,8.5,71.6,8.5,71.6" transform="translate(-1967.716 110.763)" fill="none" stroke="#fff" stroke-width="5"/>
      </g>
      <g id="wine_glass-13" data-name="wine_glass" transform="translate(911.928 -258.927)">
        <path id="Icon_awesome-wine-glass-12" data-name="Icon awesome-wine-glass" d="M59.1,126.963H48.158V94.9A39.58,39.58,0,0,0,78.64,52.714L74.275,3.981A4.341,4.341,0,0,0,69.977,0H8.827a4.338,4.338,0,0,0-4.3,3.981L.164,52.717A39.58,39.58,0,0,0,30.646,94.9v32.064H19.7A10.946,10.946,0,0,0,8.755,137.908a2.188,2.188,0,0,0,2.189,2.189H67.859a2.188,2.188,0,0,0,2.189-2.189A10.946,10.946,0,0,0,59.1,126.963Z" transform="matrix(-1, 0.017, -0.017, -1, 291.308, 399.002)" fill="rgba(255,255,255,0.55)"/>
        <path id="Path_1-12" data-name="Path 1" d="M2237.125,208.389c18.525,20.1,8.5,71.6,8.5,71.6" transform="translate(-1967.716 110.763)" fill="none" stroke="#fff" stroke-width="5"/>
      </g>
      <g id="wine_glass-14" data-name="wine_glass" transform="translate(1013.928 -258.927)">
        <path id="Icon_awesome-wine-glass-13" data-name="Icon awesome-wine-glass" d="M59.1,126.963H48.158V94.9A39.58,39.58,0,0,0,78.64,52.714L74.275,3.981A4.341,4.341,0,0,0,69.977,0H8.827a4.338,4.338,0,0,0-4.3,3.981L.164,52.717A39.58,39.58,0,0,0,30.646,94.9v32.064H19.7A10.946,10.946,0,0,0,8.755,137.908a2.188,2.188,0,0,0,2.189,2.189H67.859a2.188,2.188,0,0,0,2.189-2.189A10.946,10.946,0,0,0,59.1,126.963Z" transform="matrix(-1, 0.017, -0.017, -1, 291.308, 399.002)" fill="rgba(255,255,255,0.55)"/>
        <path id="Path_1-13" data-name="Path 1" d="M2237.125,208.389c18.525,20.1,8.5,71.6,8.5,71.6" transform="translate(-1967.716 110.763)" fill="none" stroke="#fff" stroke-width="5"/>
      </g>
      <g id="wine_glass-15" data-name="wine_glass" transform="translate(1115.928 -258.927)">
        <path id="Icon_awesome-wine-glass-14" data-name="Icon awesome-wine-glass" d="M59.1,126.963H48.158V94.9A39.58,39.58,0,0,0,78.64,52.714L74.275,3.981A4.341,4.341,0,0,0,69.977,0H8.827a4.338,4.338,0,0,0-4.3,3.981L.164,52.717A39.58,39.58,0,0,0,30.646,94.9v32.064H19.7A10.946,10.946,0,0,0,8.755,137.908a2.188,2.188,0,0,0,2.189,2.189H67.859a2.188,2.188,0,0,0,2.189-2.189A10.946,10.946,0,0,0,59.1,126.963Z" transform="matrix(-1, 0.017, -0.017, -1, 291.308, 399.002)" fill="rgba(255,255,255,0.55)"/>
        <path id="Path_1-14" data-name="Path 1" d="M2237.125,208.389c18.525,20.1,8.5,71.6,8.5,71.6" transform="translate(-1967.716 110.763)" fill="none" stroke="#fff" stroke-width="5"/>
      </g>
      <g id="wine_glass-16" data-name="wine_glass" transform="translate(1217.928 -258.927)">
        <path id="Icon_awesome-wine-glass-15" data-name="Icon awesome-wine-glass" d="M59.1,126.963H48.158V94.9A39.58,39.58,0,0,0,78.64,52.714L74.275,3.981A4.341,4.341,0,0,0,69.977,0H8.827a4.338,4.338,0,0,0-4.3,3.981L.164,52.717A39.58,39.58,0,0,0,30.646,94.9v32.064H19.7A10.946,10.946,0,0,0,8.755,137.908a2.188,2.188,0,0,0,2.189,2.189H67.859a2.188,2.188,0,0,0,2.189-2.189A10.946,10.946,0,0,0,59.1,126.963Z" transform="matrix(-1, 0.017, -0.017, -1, 291.308, 399.002)" fill="rgba(255,255,255,0.55)"/>
        <path id="Path_1-15" data-name="Path 1" d="M2237.125,208.389c18.525,20.1,8.5,71.6,8.5,71.6" transform="translate(-1967.716 110.763)" fill="none" stroke="#fff" stroke-width="5"/>
      </g>
      <g id="wine_glass-17" data-name="wine_glass" transform="translate(1319.928 -258.927)">
        <path id="Icon_awesome-wine-glass-16" data-name="Icon awesome-wine-glass" d="M59.1,126.963H48.158V94.9A39.58,39.58,0,0,0,78.64,52.714L74.275,3.981A4.341,4.341,0,0,0,69.977,0H8.827a4.338,4.338,0,0,0-4.3,3.981L.164,52.717A39.58,39.58,0,0,0,30.646,94.9v32.064H19.7A10.946,10.946,0,0,0,8.755,137.908a2.188,2.188,0,0,0,2.189,2.189H67.859a2.188,2.188,0,0,0,2.189-2.189A10.946,10.946,0,0,0,59.1,126.963Z" transform="matrix(-1, 0.017, -0.017, -1, 291.308, 399.002)" fill="rgba(255,255,255,0.55)"/>
        <path id="Path_1-16" data-name="Path 1" d="M2237.125,208.389c18.525,20.1,8.5,71.6,8.5,71.6" transform="translate(-1967.716 110.763)" fill="none" stroke="#fff" stroke-width="5"/>
      </g>
      <g id="wine_glass-18" data-name="wine_glass" transform="translate(1421.928 -258.927)">
        <path id="Icon_awesome-wine-glass-17" data-name="Icon awesome-wine-glass" d="M59.1,126.963H48.158V94.9A39.58,39.58,0,0,0,78.64,52.714L74.275,3.981A4.341,4.341,0,0,0,69.977,0H8.827a4.338,4.338,0,0,0-4.3,3.981L.164,52.717A39.58,39.58,0,0,0,30.646,94.9v32.064H19.7A10.946,10.946,0,0,0,8.755,137.908a2.188,2.188,0,0,0,2.189,2.189H67.859a2.188,2.188,0,0,0,2.189-2.189A10.946,10.946,0,0,0,59.1,126.963Z" transform="matrix(-1, 0.017, -0.017, -1, 291.308, 399.002)" fill="rgba(255,255,255,0.55)"/>
        <path id="Path_1-17" data-name="Path 1" d="M2237.125,208.389c18.525,20.1,8.5,71.6,8.5,71.6" transform="translate(-1967.716 110.763)" fill="none" stroke="#fff" stroke-width="5"/>
      </g>
      <g id="wine_glass-19" data-name="wine_glass" transform="translate(1523.928 -258.927)">
        <path id="Icon_awesome-wine-glass-18" data-name="Icon awesome-wine-glass" d="M59.1,126.963H48.158V94.9A39.58,39.58,0,0,0,78.64,52.714L74.275,3.981A4.341,4.341,0,0,0,69.977,0H8.827a4.338,4.338,0,0,0-4.3,3.981L.164,52.717A39.58,39.58,0,0,0,30.646,94.9v32.064H19.7A10.946,10.946,0,0,0,8.755,137.908a2.188,2.188,0,0,0,2.189,2.189H67.859a2.188,2.188,0,0,0,2.189-2.189A10.946,10.946,0,0,0,59.1,126.963Z" transform="matrix(-1, 0.017, -0.017, -1, 291.308, 399.002)" fill="rgba(255,255,255,0.55)"/>
        <path id="Path_1-18" data-name="Path 1" d="M2237.125,208.389c18.525,20.1,8.5,71.6,8.5,71.6" transform="translate(-1967.716 110.763)" fill="none" stroke="#fff" stroke-width="5"/>
      </g>
    </g>
    <g id="whiskey" transform="translate(1324 4)">
      <path id="Path_34" data-name="Path 34" d="M30.3,12.3V-10.671H48.679V12.3S81.986,26.848,81.986,44.842,68.118,117,68.118,117s-14.165-7.051-28.331-7.051S11.457,117,11.457,117-1.857,60.156-3.006,44.842,30.3,12.3,30.3,12.3Z" transform="translate(55 116)" fill="url(#radial-gradient)"/>
      <path id="Path_33" data-name="Path 33" d="M32.091-.766H58.124V49.969S85.689,65.572,92,75.8s-14.733,82.878-14.733,82.878H13.714S-4.526,83.536,0,75.8,32.091,49.969,32.091,49.969Z" transform="translate(49 74.319)" fill="rgba(255,255,255,0.25)"/>
      <rect id="Rectangle_9" data-name="Rectangle 9" width="33" height="29" rx="5" transform="translate(78 64)" fill="url(#linear-gradient)"/>
      <text id="Whiskey-2" data-name="Whiskey" transform="translate(64 165)" font-size="15" font-family="Algerian"><tspan x="0" y="13">Whiskey</tspan></text>
      <path id="Exclusion_4" data-name="Exclusion 4" d="M-1927.626,147.833h-9.631v-.092h-.726a.2.2,0,0,1-.2-.206v-2.38a.248.248,0,0,1,.03-.018.192.192,0,0,0,.04-.026l1.549-1.384v-.549l-1.821,1.627a.2.2,0,0,1-.135.052.2.2,0,0,1-.152-.068l-.272-.306a.21.21,0,0,1,.015-.292l2.364-2.114v1.1l1.093-.977a.2.2,0,0,1,.135-.051.2.2,0,0,1,.134.051l.728.651a.269.269,0,0,0,.182.163l-.182-.163a.339.339,0,0,1-.026-.132v-.992l.79.706v-.665a.2.2,0,0,1,.2-.206h.347a.338.338,0,0,1,.037.155v1a.282.282,0,0,1-.258.3h-.86a.224.224,0,0,1-.049-.005l1.8,1.609h-.376a.236.236,0,0,0-.163.068l-2.307-2.062-1.228,1.1v3.3h-.43a.282.282,0,0,0-.258.3v.409h1.169l-.473-.937,1.322-.823-.764-1.535,1.881,1.76-1.323.824.508.711h2.238a.2.2,0,0,0,.2-.206v-.5h-.634v-2.106a.322.322,0,0,1,.094-.233l.472.422a.211.211,0,0,0,.04.025l.028.016v1.877h.742v-2.106a.31.31,0,0,0-.138-.266l-.115.13a.2.2,0,0,1-.151.068.2.2,0,0,1-.136-.053l-.2-.18h.484a.229.229,0,0,1,.12.035l.156-.177a.207.207,0,0,0-.015-.291l-.745-.667v-1.756a.2.2,0,0,0-.2-.206h-.467a.255.255,0,0,0-.222-.147h-.86a.282.282,0,0,0-.257.3v.01l-.5-.444a.5.5,0,0,0-.339-.132.5.5,0,0,0-.339.132l-.888.794V135.6a.564.564,0,0,1,.516-.6h7.224a.564.564,0,0,1,.516.6v4.052l2.231-1.275a.5.5,0,0,1,.247-.068.5.5,0,0,1,.247.068l3.642,2.081a.933.933,0,0,1,.394.814v6.295c0,.081-.048.148-.107.148h-1.07c-.059,0-.107-.066-.107-.148v-4.555c0-.324-.2-.588-.437-.588h-5.041v.592a.082.082,0,0,1,.024,0h4.918c.058,0,.107.067.107.147v.882c0,.081-.048.147-.107.147h-4.919a.08.08,0,0,1-.022,0v.594a.079.079,0,0,1,.022,0h4.92c.059,0,.107.066.107.148v.881c0,.081-.048.147-.107.147h-4.922l-.02,0v.592h4.942c.059,0,.107.066.107.147v.881c0,.081-.048.148-.107.148h-4.254v-.382a.282.282,0,0,0-.257-.3h-.43v-.49a.141.141,0,0,0-.09.145v.881c0,.081.048.148.107.148h.671v.118Zm-.688-8.18-1.409.806a.932.932,0,0,0-.4.814v6.295c0,.081.048.148.107.148h1.071c.059,0,.107-.066.107-.148v-4.555c0-.324.2-.588.436-.588h.084v-2.771Zm0,5.125a.144.144,0,0,0-.086.145v.881a.143.143,0,0,0,.087.144v-1.17Zm0-1.762a.145.145,0,0,0-.084.143v.882a.145.145,0,0,0,.085.143v-1.168Zm-3.182-1.6a.283.283,0,0,0-.258.3v1a.282.282,0,0,0,.258.3h.859a.282.282,0,0,0,.258-.3v-1a.283.283,0,0,0-.258-.3Zm0-2.406a.282.282,0,0,0-.258.3v1a.282.282,0,0,0,.258.3h.859a.282.282,0,0,0,.258-.3v-1a.282.282,0,0,0-.258-.3Zm-2.752,0a.282.282,0,0,0-.257.3v1a.282.282,0,0,0,.257.3h.86a.282.282,0,0,0,.258-.3v-1a.282.282,0,0,0-.258-.3Zm2.752-2.407a.283.283,0,0,0-.258.3v1a.282.282,0,0,0,.258.3h.859a.282.282,0,0,0,.258-.3v-1a.283.283,0,0,0-.258-.3Zm-2.752,0a.282.282,0,0,0-.257.3v1a.282.282,0,0,0,.257.3h.86a.282.282,0,0,0,.258-.3v-1a.283.283,0,0,0-.258-.3Z" transform="translate(2025 17.332)"/>
      <rect id="Rectangle_10" data-name="Rectangle 10" width="32" height="8" transform="translate(80 182)"/>
      <path id="Path_35" data-name="Path 35" d="M0,0H9V9H0L4.683,4.55Z" transform="translate(73 183)"/>
      <path id="Path_36" data-name="Path 36" d="M0,0H9L4.75,4.75,9,9H0Z" transform="translate(110 183)"/>
      <text id="Maroon" transform="translate(87 184)" fill="#fff" font-size="5" font-family="Algerian"><tspan x="0" y="4">Maroon</tspan></text>
      <path id="Path_37" data-name="Path 37" d="M2047.131,1.528c24.456,23.812,18.664,20.916,18.664,20.916" transform="matrix(0.995, -0.105, 0.105, 0.995, -1925.992, 351.056)" fill="none" stroke="#fff" stroke-linecap="round" stroke-width="3"/>
    </g>
    <g id="vodka">
      <path id="Path_38" data-name="Path 38" d="M32.091-.766H58.124L57.3,51.084l19.142,3.875.823,155.8a160.768,160.768,0,0,1-31.54,3.6,168.75,168.75,0,0,1-32.013-3.6l-.823-155.8,18.377-3.875Z" transform="translate(206 22.243)" fill="rgba(255,255,255,0.25)"/>
      <path id="Path_40" data-name="Path 40" d="M0,0H29V36.451a53.627,53.627,0,0,1-14.273,2.24A59.272,59.272,0,0,1,0,36.451Z" transform="translate(237 19)" fill="url(#linear-gradient-2)"/>
      <line id="Line_3" data-name="Line 3" x2="26" transform="translate(238.5 33.5)" fill="none" stroke="red" stroke-width="3"/>
      <path id="Path_39" data-name="Path 39" d="M29.67,56.215h22.6V71.7L68.9,75.942v145.53s-13.051,6.992-26.847,6.992-28.335-6.992-28.335-6.992V75.942L29.67,71.7Z" transform="translate(210 5.887)" fill="rgba(175,214,219,0.54)"/>
      <text id="V_O_D_K_A" data-name="V O D K A" transform="translate(224 209) rotate(-90)" fill="red" font-size="15" font-family="Candara"><tspan x="0" y="14">V O D K A</tspan></text>
      <text id="product_of_Maroon" data-name="product
of Maroon" transform="translate(229 215)" font-size="5" font-family="Candara"><tspan x="12.587" y="5">product</tspan><tspan x="9.821" y="11">of Maroon</tspan></text>
      <path id="Path_43" data-name="Path 43" d="M2209-43.234V41.058" transform="translate(-1939 135)" fill="none" stroke="#fff" stroke-linecap="round" stroke-width="3"/>
    </g>
    <g id="tequila" transform="translate(546 1)">
      <path id="Path_41" data-name="Path 41" d="M28.871-.766H50.665l-.689,51.85S62.137,52.159,66.69,62.2s-6.535,148.558-6.535,148.558-6.568,3.6-19.869,3.6-22.155-3.6-22.155-3.6S9.193,73.493,13.487,62.2s14.7-11.114,14.7-11.114Z" transform="translate(374 21.243)" fill="rgba(255,255,255,0.25)"/>
      <path id="Path_42" data-name="Path 42" d="M44.385,47.5s10.356,1,14.232,10.347-5.565,138.3-5.565,138.3S47.46,199.5,36.134,199.5a50.5,50.5,0,0,1-18.866-3.355S9.657,68.365,13.314,57.85,25.827,47.5,25.827,47.5Z" transform="translate(378 29.1)" fill="rgba(234,228,170,0.68)"/>
      <rect id="Rectangle_11" data-name="Rectangle 11" width="23" height="38" transform="translate(402 13)" fill="url(#linear-gradient-3)"/>
      <text id="TEQUILA-2" data-name="TEQUILA" transform="translate(391 130)" font-size="9" font-family="ImprintMT-Shadow, Imprint MT Shadow"><tspan x="0.512" y="8">TEQUILA</tspan></text>
      <g id="Icon_ionic-md-bowtie" data-name="Icon ionic-md-bowtie" transform="translate(402.75 79.25)">
        <path id="Path_44" data-name="Path 44" d="M17.39,18.528H15.763a1.142,1.142,0,0,1-1.138-1.138V15.763a1.142,1.142,0,0,1,1.138-1.138H17.39a1.142,1.142,0,0,1,1.138,1.138V17.39A1.142,1.142,0,0,1,17.39,18.528Z" transform="translate(-5.22 -3.322)"/>
        <g id="Group_1" data-name="Group 1" transform="translate(2.25 6.75)">
          <path id="Path_45" data-name="Path 45" d="M8.1,14.23V12.279a2.268,2.268,0,0,1,.9-1.813C8.755,9.352,4.852,6.75,3.551,6.75a1.3,1.3,0,0,0-1.3,1.3V18.459a1.3,1.3,0,0,0,1.3,1.3c1.3,0,5.2-2.6,5.456-3.716A2.268,2.268,0,0,1,8.1,14.23Z" transform="translate(-2.25 -6.75)"/>
          <path id="Path_46" data-name="Path 46" d="M27.52,6.75c-1.3,0-5.2,2.6-5.456,3.716a2.268,2.268,0,0,1,.9,1.813V14.23a2.268,2.268,0,0,1-.9,1.813c.252,1.114,4.155,3.716,5.456,3.716a1.3,1.3,0,0,0,1.3-1.3V8.051A1.3,1.3,0,0,0,27.52,6.75Z" transform="translate(-10.608 -6.75)"/>
        </g>
      </g>
      <path id="Icon_material-line-weight" data-name="Icon material-line-weight" d="M4.5,19.111H48.275V17.936H4.5Zm0,1.762H48.275v-.587H4.5Zm0-4.111H48.275V15H4.5Z" transform="translate(387.5 109.128)"/>
      <path id="Icon_material-line-weight-2" data-name="Icon material-line-weight" d="M4.5,19.111H48.275V17.936H4.5Zm0,1.762H48.275v-.587H4.5Zm0-4.111H48.275V15H4.5Z" transform="translate(440.275 161) rotate(180)"/>
      <text id="Maroon-2" data-name="Maroon" transform="translate(406 148)" font-size="5" font-family="ImprintMT-Shadow, Imprint MT Shadow"><tspan x="1.192" y="5">Maroon</tspan></text>
      <path id="Path_47" data-name="Path 47" d="M2369.091-52.847c6.188,8.168,4.208,21.782,4.208,21.782" transform="translate(-1937 134)" fill="none" stroke="#fff" stroke-linecap="round" stroke-width="3"/>
    </g>
    <g id="rum" transform="translate(1514 4)">
      <path id="Path_34-2" data-name="Path 34" d="M30.3,12.3V-10.671H48.679V12.3S81.986,26.848,81.986,44.842,68.118,117,68.118,117s-14.165-7.051-28.331-7.051S11.457,117,11.457,117-1.857,60.156-3.006,44.842,30.3,12.3,30.3,12.3Z" transform="translate(55 116)" fill="url(#radial-gradient-2)"/>
      <path id="Path_33-2" data-name="Path 33" d="M32.091-.766H58.124V49.969S85.689,65.572,92,75.8s-14.733,82.878-14.733,82.878H13.714S-4.526,83.536,0,75.8,32.091,49.969,32.091,49.969Z" transform="translate(49 74.319)" fill="rgba(255,255,255,0.25)"/>
      <rect id="Rectangle_9-2" data-name="Rectangle 9" width="33" height="29" rx="5" transform="translate(78 64)" fill="url(#linear-gradient)"/>
      <rect id="Rectangle_10-2" data-name="Rectangle 10" width="42" height="16" transform="translate(74 174)"/>
      <path id="Icon_map-compass" data-name="Icon map-compass" d="M18,35.28A17.28,17.28,0,1,1,35.28,18,17.3,17.3,0,0,1,18,35.28ZM18,3.6A14.4,14.4,0,1,0,32.4,18,14.416,14.416,0,0,0,18,3.6Zm.032,2.34S12.96,14.631,12.96,17.28v1.44c0,2.648,5.088,11.52,5.088,11.52S23.04,21.552,23.04,18.9V17.276c0-2.649-5.008-11.336-5.008-11.336ZM18,20.88A2.88,2.88,0,1,1,20.88,18,2.88,2.88,0,0,1,18,20.88Z" transform="translate(77 150)"/>
      <path id="Path_35-2" data-name="Path 35" d="M0,0H12.926V15H0L6.726,7.585Z" transform="translate(63.074 179)"/>
      <path id="Path_36-2" data-name="Path 36" d="M0,0H13.9L7.334,7.919,13.9,15H0Z" transform="translate(113 179)"/>
      <text id="Rum-2" data-name="Rum" transform="translate(80 174)" fill="#fff" font-size="15" font-family="Algerian"><tspan x="0" y="13">Rum</tspan></text>
      <text id="Maroon-3" data-name="Maroon" transform="translate(85 144)" font-size="5" font-family="Algerian"><tspan x="0" y="4">Maroon</tspan></text>
      <path id="Path_37-2" data-name="Path 37" d="M2047.131,1.528c24.456,23.812,18.664,20.916,18.664,20.916" transform="matrix(0.995, -0.105, 0.105, 0.995, -1925.992, 351.056)" fill="none" stroke="#fff" stroke-linecap="round" stroke-width="3"/>
    </g>
    <g id="scotch" transform="translate(668)">
      <path id="Path_34-3" data-name="Path 34" d="M30.3,12.3V-10.671H48.679V12.3S81.986,26.848,81.986,44.842,68.118,117,68.118,117s-14.165-7.051-28.331-7.051S11.457,117,11.457,117-1.857,60.156-3.006,44.842,30.3,12.3,30.3,12.3Z" transform="translate(55 116)" fill="url(#linear-gradient-5)"/>
      <path id="Path_33-3" data-name="Path 33" d="M32.091-.766H58.124V49.969S85.689,65.572,92,75.8s-14.733,82.878-14.733,82.878H13.714S-4.526,83.536,0,75.8,32.091,49.969,32.091,49.969Z" transform="translate(49 74.319)" fill="rgba(255,255,255,0.25)"/>
      <rect id="Rectangle_9-3" data-name="Rectangle 9" width="33" height="29" rx="5" transform="translate(78 64)" fill="url(#linear-gradient-6)"/>
      <rect id="Rectangle_10-3" data-name="Rectangle 10" width="59" height="8" transform="translate(65 186)"/>
      <path id="Path_35-3" data-name="Path 35" d="M0,0H7.22V8.381H0L3.757,4.237Z" transform="translate(59.78 184)"/>
      <path id="Path_36-3" data-name="Path 36" d="M0,0H7.762L4.1,4.423,7.762,8.381H0Z" transform="translate(122 184)"/>
      <text id="Scotch-2" data-name="Scotch" transform="translate(67 173)" font-size="12" font-family="Castellar"><tspan x="0" y="11">Scotch</tspan></text>
      <text id="Maroon-4" data-name="Maroon" transform="translate(83 187)" fill="#fff" font-size="5" font-family="Castellar"><tspan x="0" y="5">Maroon</tspan></text>
      <path id="Path_37-3" data-name="Path 37" d="M2047.131,1.528c24.456,23.812,18.664,20.916,18.664,20.916" transform="matrix(0.995, -0.105, 0.105, 0.995, -1925.992, 351.056)" fill="none" stroke="#fff" stroke-linecap="round" stroke-width="3"/>
      <path id="Icon_awesome-shield-alt" data-name="Icon awesome-shield-alt" d="M7.276,1.144,4.655.052a.657.657,0,0,0-.5,0L1.529,1.144a.655.655,0,0,0-.4.6A5.544,5.544,0,0,0,4.149,6.942a.657.657,0,0,0,.5,0A5.516,5.516,0,0,0,7.679,1.749.656.656,0,0,0,7.276,1.144ZM4.4,6.1V.893l2.4,1A4.679,4.679,0,0,1,4.4,6.1Z" transform="translate(90.821 160.379)"/>
      <path id="Path_50" data-name="Path 50" d="M66.125,172a152.83,152.83,0,0,1,30.006-2.586A274.088,274.088,0,0,1,125.208,172" transform="translate(-1 1)" fill="none" stroke="#000" stroke-width="1"/>
    </g>
    <g id="bourbon" transform="translate(313 -3)">
      <path id="Path_34-4" data-name="Path 34" d="M30.3,12.3H48.679S81.986,26.848,81.986,44.842v71.264s-28.034-6.157-42.2-6.157-42.793,6.157-42.793,6.157,1.148-55.95,0-71.264S30.3,12.3,30.3,12.3Z" transform="translate(55 116)" fill="url(#radial-gradient-3)"/>
      <rect id="Rectangle_12" data-name="Rectangle 12" width="21" height="18" rx="5" transform="translate(84 89)" fill="url(#linear-gradient-7)"/>
      <path id="Path_33-4" data-name="Path 33" d="M32.091-.766H58.124V49.969S85.689,65.572,92,75.8s0,82.878,0,82.878-30.666,2.591-46.554,2.591S0,158.681,0,158.681-4.526,83.536,0,75.8,32.091,49.969,32.091,49.969Z" transform="translate(49 74.319)" fill="rgba(255,255,255,0.25)"/>
      <rect id="Rectangle_9-4" data-name="Rectangle 9" width="33" height="29" rx="5" transform="translate(78 64)" fill="url(#linear-gradient-6)"/>
      <rect id="Rectangle_10-4" data-name="Rectangle 10" width="59" height="8" transform="translate(67 187)"/>
      <path id="Path_37-4" data-name="Path 37" d="M2047.131,1.528c24.456,23.812,18.664,20.916,18.664,20.916" transform="matrix(0.995, -0.105, 0.105, 0.995, -1925.992, 351.056)" fill="none" stroke="#fff" stroke-linecap="round" stroke-width="3"/>
      <path id="Path_35-4" data-name="Path 35" d="M0,0H7.22V8.381H0L3.757,4.237Z" transform="translate(61.78 185)"/>
      <path id="Path_36-4" data-name="Path 36" d="M0,0H7.762L4.1,4.423,7.762,8.381H0Z" transform="translate(124 185)"/>
      <text id="Bourbon-2" data-name="Bourbon" transform="translate(70 146)" font-size="15" font-family="BernardMT-Condensed, Bernard MT"><tspan x="0" y="15">Bourbon</tspan></text>
      <text id="Maroon-5" data-name="Maroon" transform="translate(87 188)" fill="#fff" font-size="5" font-family="BernardMT-Condensed, Bernard MT"><tspan x="0" y="5">Maroon</tspan></text>
      <path id="Path_50-2" data-name="Path 50" d="M66.125,172a152.83,152.83,0,0,1,30.006-2.586A274.088,274.088,0,0,1,125.208,172" transform="translate(1 -7)" fill="none" stroke="#000" stroke-width="1"/>
      <g id="Icon_ionic-md-finger-print" data-name="Icon ionic-md-finger-print" transform="translate(83.686 165.565)">
        <path id="Path_51" data-name="Path 51" d="M4.988,10.133a.485.485,0,0,1-.422-.727,7.308,7.308,0,0,1,6.58-3.465,7.739,7.739,0,0,1,4.618,1.4,7.834,7.834,0,0,1,1.942,2.039.481.481,0,0,1-.128.672.492.492,0,0,1-.678-.128A6.545,6.545,0,0,0,11.146,6.9,6.341,6.341,0,0,0,5.41,9.891.478.478,0,0,1,4.988,10.133Z" transform="translate(0 -1.874)"/>
        <path id="Path_52" data-name="Path 52" d="M13.769,21.491a.482.482,0,0,1-.121-.014,6.446,6.446,0,0,1-4.119-3.866l-.007-.028c-.024-.087-.62-2.143.294-3.347a2.242,2.242,0,0,1,1.9-.831,2.021,2.021,0,0,1,1.734.755,3.778,3.778,0,0,1,.571,1.423c.26,1.028.447,1.568,1.526,1.623a1.115,1.115,0,0,0,.962-.495,2.9,2.9,0,0,0,.2-2.648,5.533,5.533,0,0,0-5-3.493,5.075,5.075,0,0,0-3.281,1.156,5.327,5.327,0,0,0-1.641,2.416,9.82,9.82,0,0,0,.173,4.368.48.48,0,0,1-.346.588.492.492,0,0,1-.6-.343,10.632,10.632,0,0,1-.163-4.9,6.152,6.152,0,0,1,9.792-2.818,6.753,6.753,0,0,1,1.973,2.679,3.826,3.826,0,0,1-.325,3.558,2.074,2.074,0,0,1-1.8.893c-1.848-.093-2.181-1.4-2.423-2.35-.249-.976-.408-1.447-1.36-1.447a1.3,1.3,0,0,0-1.118.447,2.359,2.359,0,0,0-.3,1.523,4.971,4.971,0,0,0,.163.962,5.539,5.539,0,0,0,3.437,3.243.481.481,0,0,1,.353.585A.491.491,0,0,1,13.769,21.491Z" transform="translate(-0.564 -3.734)"/>
        <path id="Path_53" data-name="Path 53" d="M11.863,23.183a.493.493,0,0,1-.357-.152A7.776,7.776,0,0,1,9.395,18.6v-.01a5.17,5.17,0,0,1,1.083-3.953,4.012,4.012,0,0,1,3.133-1.263A3.888,3.888,0,0,1,17.179,15.5a5.984,5.984,0,0,1,.672,2.06.489.489,0,0,1-.973.1h0a5.011,5.011,0,0,0-.571-1.72,2.92,2.92,0,0,0-2.7-1.6,3.07,3.07,0,0,0-2.4.938,4.252,4.252,0,0,0-.848,3.191,6.826,6.826,0,0,0,1.859,3.9.479.479,0,0,1-.024.682A.491.491,0,0,1,11.863,23.183Z" transform="translate(-2.465 -5.647)"/>
        <path id="Path_54" data-name="Path 54" d="M21.213,25.831a4.025,4.025,0,0,1-2.627-.869A4.851,4.851,0,0,1,17,21.843a.488.488,0,0,1,.973-.076,3.929,3.929,0,0,0,1.239,2.454,3.357,3.357,0,0,0,2.579.609.486.486,0,0,1,.54.426.481.481,0,0,1-.429.533A5.925,5.925,0,0,1,21.213,25.831Z" transform="translate(-6.346 -9.683)"/>
        <path id="Path_55" data-name="Path 55" d="M17.569,3.309A8.334,8.334,0,0,0,13.027,2.25a8.145,8.145,0,0,0-4.593,1.1.378.378,0,0,0-.059.045.011.011,0,0,1-.007,0h0a.481.481,0,0,0,.325.841.494.494,0,0,0,.284-.09h0l0,0a7.1,7.1,0,0,1,4.053-.935,7.138,7.138,0,0,1,4.053.935l0,0,.007-.007a.485.485,0,1,0,.485-.831Z" transform="translate(-1.881)"/>
      </g>
    </g>
    <g id="brandy" transform="translate(1194)">
      <path id="Path_34-5" data-name="Path 34" d="M24.889,12.3A76.4,76.4,0,0,0,39.7,13.99a76.326,76.326,0,0,0,14.81-1.69L83.788,35.337s-4.774,29.8-4.774,42.982c0,18.865,7.39,34.781,2.972,37.787s-28.118-1.612-42.283-1.612S.987,119.286-3.006,116.106.3,98.113.383,78.319c.05-12.553-3.389-42.982-3.389-42.982Z" transform="translate(55 116)" fill="url(#radial-gradient-4)"/>
      <path id="Path_33-5" data-name="Path 33" d="M32.091,18.816H58.124V49.969L92,75.8a291.643,291.643,0,0,0-2.863,39.327c0,20.719,7.45,37.385,2.863,43.55s-30.666,2.591-46.554,2.591S4.4,164.366,0,158.681s3.732-43.55,3.732-43.55L0,75.8,32.091,49.969Z" transform="translate(49 74.319)" fill="rgba(255,255,255,0.25)"/>
      <rect id="Rectangle_12-2" data-name="Rectangle 12" width="21" height="18" rx="5" transform="translate(84 89)" fill="url(#linear-gradient-7)"/>
      <rect id="Rectangle_9-5" data-name="Rectangle 9" width="33" height="8" rx="3" transform="translate(78 85)" fill="url(#linear-gradient-10)"/>
      <path id="Path_37-5" data-name="Path 37" d="M2047.131,1.528c24.456,23.812,18.664,20.916,18.664,20.916" transform="matrix(0.995, -0.105, 0.105, 0.995, -1925.992, 351.056)" fill="none" stroke="#fff" stroke-linecap="round" stroke-width="3"/>
      <text id="Brandy-2" data-name="Brandy" transform="translate(67 172)" font-size="15" font-family="Algerian"><tspan x="0" y="13">Brandy</tspan></text>
      <text id="Maroon-6" data-name="Maroon" transform="translate(85 162)" font-size="5" font-family="Algerian"><tspan x="0" y="4">Maroon</tspan></text>
      <path id="Path_50-3" data-name="Path 50" d="M66.125,172a152.83,152.83,0,0,1,30.006-2.586A274.088,274.088,0,0,1,125.208,172" transform="translate(0 18)" fill="none" stroke="#000" stroke-width="1"/>
      <path id="Icon_awesome-crown" data-name="Icon awesome-crown" d="M12.66,10.742H2.685a.385.385,0,0,0-.384.384v.767a.385.385,0,0,0,.384.384H12.66a.385.385,0,0,0,.384-.384v-.767A.385.385,0,0,0,12.66,10.742Zm1.535-7.673A1.151,1.151,0,0,0,13.044,4.22a1.128,1.128,0,0,0,.106.475L11.413,5.735a.766.766,0,0,1-1.06-.278L8.4,2.038a1.151,1.151,0,1,0-1.453,0L4.992,5.457a.767.767,0,0,1-1.06.278L2.2,4.695a1.151,1.151,0,1,0-1.048.676,1.175,1.175,0,0,0,.185-.019L3.069,9.975h9.207L14.01,5.352a1.175,1.175,0,0,0,.185.019,1.151,1.151,0,1,0,0-2.3Z" transform="translate(87 147.724)"/>
      <path id="Path_56" data-name="Path 56" d="M66.125,169.371A174.67,174.67,0,0,0,96.638,171.7c15.152-.393,29.57-2.332,29.57-2.332" transform="translate(0 1.629)" fill="none" stroke="#000" stroke-width="1"/>
      <path id="Icon_awesome-critical-role" data-name="Icon awesome-critical-role" d="M5.879,0c.007,0,5.6,3.217,5.61,3.223a.155.155,0,0,1,.1.17q0,3.234,0,6.469a.152.152,0,0,1-.087.149c-.552.31-5.371,3.057-5.657,3.219H5.763C3.713,12.05.123,9.989.12,9.987A.085.085,0,0,1,.071,9.9c0-.022,0-5.838,0-6.54a.129.129,0,0,1,.076-.127C.746,2.9,5.553.155,5.834,0ZM5.61.528,5.6.524.587,3.382a.026.026,0,0,0,0,.009l.8.3c-.2.155-.215.155-.275.133,0,0-.625-.24-.693-.258V9.52c.023-.036,1.656-2.866,1.657-2.868.042-.073.078-.05.236-.039.036,0,.038.006.02.037C1.268,8.492,1.392,8.277.589,9.671.568,9.707.573,9.7.621,9.7H5.44c.037,0,.044-.006.044-.042V9.428c0-.035.061-.021-.475-.026a.678.678,0,0,1-.552-.328c-.191-.25-.378-.5-.565-.755-.059-.08-.089-.061-.433-.061-.045,0-.046,0-.045.047a6.6,6.6,0,0,0,.026.844c.013.113.056.109.25.124.081.007.1.105.013.127-.041.01-.817.013-.87,0a.063.063,0,0,1,.008-.122c.085-.02.159.021.172-.115a17.99,17.99,0,0,0,.028-2.052c0-.28-.009-.325-.139-.35-.032-.006-.091,0-.121-.014-.074-.026-.052-.125.046-.125.87,0,1.191-.028,1.449.126a.627.627,0,0,1,.323.527,1.123,1.123,0,0,1-.388.842.038.038,0,0,0,0,.057c.067.084.129.171.2.254.712.859.623.789,1.067.854.023,0,.026-.011.026-.03V8.966c0-.026.008-.037.036-.033a1.87,1.87,0,0,0,.609-.008c.028,0,.039.005.038.034,0,0,.023.69.022.693,0,.039.017.042.049.042h4.825l-2.1-3.639a1.074,1.074,0,0,1,.173-.036c.052-.01.053-.011.08.037.189.327,2,3.463,2,3.464V3.566c-.044.013-2.669,1-2.733,1.025-.028.011-.04.005-.049-.023-.016-.049-.035-.1-.054-.145-.008-.02,0-.029.017-.036,0,0,2.469-.926,2.662-1L6.015.476,8.258,4.362l-.007.009c-.247-.023-.27-.041-.3-.1C7.92,4.225,6.047.969,5.827.6,5.592.974,3.668,4.374,3.621,4.376c-.076,0-.152,0-.239,0L5.609.528ZM6.952,3.885a.974.974,0,0,0,.143-.022c.044-.008.065.005.067.05a4.117,4.117,0,0,1-.022.528c-.024.036-.049.032-.067,0-.129-.25.161-.25-1.011-.31-.018,0-.026.006-.026.024s.1,3.153.1,3.155c0,.023.013.031.031.039a2.169,2.169,0,0,1,.225.1.64.64,0,0,1,.321.5.821.821,0,0,1-.832.96.831.831,0,0,1-.882-.6.781.781,0,0,1,.514-.941A.063.063,0,0,0,5.56,7.3c0-.145.078-2.768.1-3.136,0-.028-.016-.03-.035-.03-.836.013-.95-.009-1.039.22-.063.16-.107.034-.1.006q.041-.233.086-.465c.01-.055.037-.067.089-.048.144.055.174.044.963.05.045,0,.046,0,.047-.048.018-.71.015-.584.026-.764a.07.07,0,0,0-.042-.072.4.4,0,0,1-.23-.358.413.413,0,0,1,.708-.3.407.407,0,0,1-.063.624A.112.112,0,0,0,6,3.091c0,.015,0-.111.026.777,0,.023.011.029.032.029,0,0,.594,0,.891-.01ZM1.808,3.662a3.548,3.548,0,0,1,1.356.044c.071.008.1.032.094.1-.005.129-.03.577-.032.6a.068.068,0,0,1-.042.06c-.1.044-.093-.115-.1-.188C3,3.7,1.172,3.434,1.152,4.935a1.267,1.267,0,0,0,1.4,1.315c.7-.052.491-.522.642-.529a.07.07,0,0,1,.078.087c-.047.28-.088.49-.089.495C3.14,6.54.939,6.874.767,5.216A1.381,1.381,0,0,1,1.808,3.662ZM3.875,5.927h-.5A.066.066,0,0,1,3.3,5.881c.062-.1.152.024.151-.159,0-.665.005-.982.006-1.036,0-.088-.014-.12-.086-.128-.181-.019-.08-.087-.029-.087a6.962,6.962,0,0,1,.777.019.347.347,0,0,1,.2.585c-.052.058-.1.114-.159.174.025.03.178.228.447.509a.294.294,0,0,0,.255.081.057.057,0,0,0,.058-.055A9.907,9.907,0,0,0,4.94,4.734c0-.146-.009-.17-.083-.176-.1-.009-.1-.058-.018-.087l.493,0c.008,0,.116.014.026.087,0,0,0,0-.006,0-.093.007-.1.026-.1.119a7.49,7.49,0,0,0,.011,1.106c0,.022.007.058.132.055.064,0,.1.087,0,.088-.268,0-.536,0-.8,0s-.348-.16-.626-.538c-.041-.056-.215-.061-.212-.01.023.426,0,.459.1.457.123,0,.122.092.021.092Zm7.106-.262c-.031.184,0,.268-.137.267-1.59-.011-1.236-.006-1.311-.008a.475.475,0,0,1-.094-.019c-.065-.016.038-.032-.01-.145-.037-.087-.072-.175-.106-.263a.05.05,0,0,0-.052-.037,3.566,3.566,0,0,0-.377,0,.058.058,0,0,0-.042.027c-.041.094-.079.188-.117.284s.2.034.315.056c.078.015.117.1.017.1H8.388c-.075,0-.08-.081-.019-.083a.163.163,0,0,0,.153-.09c.039-.078.072-.155.106-.235A7.731,7.731,0,0,1,9.1,4.443a.047.047,0,0,1,.078,0c.076.086.475,1.155.61,1.342a.179.179,0,0,0,.164.052c.093,0,.1-.029.107-.111,0-.048,0,.03,0-1.066,0-.115-.061-.1-.143-.11-.007,0-.066-.016,0-.079a3.674,3.674,0,0,1,.561,0c.06,0,.137.071-.031.089a.066.066,0,0,0-.069.073c0,.042,0,1,.007,1.065a.079.079,0,0,0,.083.063c.342.011.386.011.413-.088.043-.149.107-.065.1,0ZM8.275,7.328c-.11,0-.114-.088-.016-.088a6.312,6.312,0,0,0,.961-.017c.043,0,.062.006.058.049-.007.088-.017.175-.026.263-.006.056-.083.067-.088,0-.01-.137-.056-.115-.4-.131-.041,0-.042,0-.042.039v.417c0,.043,0,.041.042.038a1.532,1.532,0,0,0,.405-.039c.012,0,.085-.046.079.045,0,.005-.02.267-.03.294s-.049.039-.067.008c-.03-.052,0-.131-.1-.137-.4-.023-.334-.066-.334.155,0,.317-.02.416.1.42.43.012.372,0,.425-.148.022-.061.09-.046.082.015-.011.083-.022.166-.032.249,0,.009,0,.062-.12.062-.96,0-.893,0-.91-.008-.07-.013-.057-.078.006-.089.028,0,.1.014.107-.066.063-1.453,0-1.327-.1-1.326ZM8.265,4.5c.064.016.081.045.076.12-.009.137-.009.233-.014.25-.017.058-.081.055-.086-.007a.251.251,0,0,0-.2-.236c-.679-.2-.848.4-.7.781a.611.611,0,0,0,.746.356c.153-.048.152-.168.179-.2s.058-.048.081.028c0,0,.015.307-.155.329a1.45,1.45,0,0,1-.844-.088A.741.741,0,0,1,7.17,4.665,1.238,1.238,0,0,1,8.264,4.5ZM7.532,7.239c.085,0,.095.078,0,.089-.067.008-.129-.011-.129.141,0,.052,0,.751.01,1.071a.085.085,0,0,0,.089.094c.568.031.386-.043.486-.164.047-.058.071.022.071.028.009.352-.1.32-.134.32l-.986,0a.045.045,0,0,1-.011-.087c.052-.012.128.01.133-.072.026-.41.015-1.154.009-1.235-.007-.1-.072-.084-.147-.1s-.052-.083.009-.083h.6ZM6.715,5.746c0,.105.074.089.155.093a.045.045,0,1,1,0,.089l-.558,0c-.1,0-.087-.087,0-.087.116,0,.084.042.088-1.177,0-.131-.084-.091-.122-.109-.067-.032-.035-.08.011-.081s.522-.011.547.005.048.043-.011.074c-.026.013-.1-.007-.107.064a9.8,9.8,0,0,0,0,1.132Zm-.954,7.087a.076.076,0,0,0,.084,0c.439-.253,4.7-2.676,5.1-2.907,0-.011.291,0-4.691-.007-.032,0-.041.01-.04.04,0,0,.032,1.15.032,1.3a.732.732,0,0,1-.035.2c-.014.047.01-.013-.349.833-.019.044-.026.057-.052,0-.108-.267-.214-.535-.325-.8a.61.61,0,0,1-.052-.279c0-.064.021-.417.039-1.24,0-.05,0-.052-.052-.052H.695c.067.042,4.608,2.65,5.065,2.914ZM3.412,7.956c0,.062.009.072.071.078.3.03.543.1.663-.189.155-.374.069-.889-.322-1-.052-.015-.413-.071-.412.039,0,.208,0,.3,0,1.076Zm2.733-.389c0,.055.028,1,.028,1.011.009.257-.661.149-.652-.067,0-.052.035-.967.028-1.019a.769.769,0,0,0,.166,1.261.463.463,0,0,0,.579-.183.874.874,0,0,0-.14-1.008l-.009,0ZM5.828,2.45a.192.192,0,0,0,0,.384.192.192,0,0,0,0-.384ZM3.757,5.133c0,.047.011.062.056.067.352.036.323-.284.314-.345-.044-.29-.372-.264-.371-.2,0,.116,0,.353,0,.48ZM9.243,5.3l-.158-.409L8.924,5.3Z" transform="translate(89.037 191.811)"/>
    </g>
    <g id="soju" transform="translate(171 -3)">
      <path id="Path_42-2" data-name="Path 42" d="M40.678,48.074s9.158.813,12.587,8.412,0,112.436,0,112.436a85.4,85.4,0,0,1-19.884,2.728A89.6,89.6,0,0,1,13.2,168.922S9.965,65.035,13.2,56.486s11.067-8.412,11.067-8.412V26.564H40.678Z" transform="translate(378 56.954)" fill="rgba(178,210,238,0.68)"/>
      <path id="Path_41-2" data-name="Path 41" d="M27.323-.766H47.079l-.624,42.317s11.024.877,15.151,9.071,0,121.244,0,121.244a113.905,113.905,0,0,1-23.935,2.942,119.542,119.542,0,0,1-24.293-2.942s-3.893-112.026,0-121.244A14.864,14.864,0,0,1,26.7,41.551Z" transform="translate(374 60.797)" fill="rgba(64,190,0,0.25)"/>
      <rect id="Rectangle_11-2" data-name="Rectangle 11" width="23" height="23" transform="translate(400 45)" fill="url(#linear-gradient-11)"/>
      <path id="Path_57" data-name="Path 57" d="M0,0H51.44V50H0Z" transform="translate(386 144)" fill="url(#linear-gradient-12)"/>
      <text id="SOJU-2" data-name="SOJU" transform="translate(389 165)" font-size="15" font-family="VinerHandITC, Viner Hand ITC"><tspan x="4.581" y="15">SOJU</tspan></text>
      <path id="Path_47-2" data-name="Path 47" d="M2369.091-52.847c6.188,8.168,4.208,21.782,4.208,21.782" transform="translate(-1937 134)" fill="none" stroke="#fff" stroke-linecap="round" stroke-width="3"/>
      <path id="Icon_awesome-cuttlefish" data-name="Icon awesome-cuttlefish" d="M7.309,10.936a3.065,3.065,0,0,1,0-6.13A17.633,17.633,0,0,0,12.7,2.941,7.308,7.308,0,1,0,7.309,15.18c2.137,0,2.122-.028,2.829-1.491S8.446,10.936,7.309,10.936Z" transform="translate(412.074 143.221) rotate(43)" fill="red"/>
      <path id="Icon_awesome-cuttlefish-2" data-name="Icon awesome-cuttlefish" d="M7.309,10.936a3.065,3.065,0,0,1,0-6.13A17.633,17.633,0,0,0,12.7,2.941,7.308,7.308,0,1,0,7.309,15.18c2.137,0,2.122-.028,2.829-1.491S8.446,10.936,7.309,10.936Z" transform="translate(411.156 170.42) rotate(-140)" fill="#1000ff"/>
    </g>
    <g id="gin" transform="translate(846)">
      <path id="Path_38-2" data-name="Path 38" d="M32.091-.766H58.124L57.3,51.084l19.142,3.875.823,155.8a160.768,160.768,0,0,1-31.54,3.6,168.75,168.75,0,0,1-32.013-3.6l-.823-155.8,18.377-3.875Z" transform="translate(206 22.243)" fill="rgba(255,255,255,0.25)"/>
      <path id="Path_40-2" data-name="Path 40" d="M0,0H29V21.178a89.332,89.332,0,0,1-14.273,1.3A98.988,98.988,0,0,1,0,21.178Z" transform="translate(237 21.468)" fill="url(#linear-gradient-13)"/>
      <path id="Path_39-2" data-name="Path 39" d="M53.954,71.7c7.133.441,14.942,4.239,14.942,4.239v145.53s-13.051,6.992-26.847,6.992-28.335-6.992-28.335-6.992V75.942s6.219-3.8,12.881-4.239S46.82,71.262,53.954,71.7Z" transform="translate(210 5.887)" fill="rgba(175,214,219,0.54)"/>
      <path id="Path_43-2" data-name="Path 43" d="M2209-43.234V41.058" transform="translate(-1939 135)" fill="none" stroke="#fff" stroke-linecap="round" stroke-width="3"/>
      <text id="GIN-2" data-name="GIN" transform="translate(229 132)" font-size="20" font-family="NiagaraEngraved-Reg, Niagara Engraved" letter-spacing="0.015em"><tspan x="13.161" y="18">GIN</tspan></text>
      <path id="Icon_awesome-chess-king" data-name="Icon awesome-chess-king" d="M13.84,15.5H1.662a.554.554,0,0,0-.554.554v1.107a.554.554,0,0,0,.554.554H13.84a.554.554,0,0,0,.554-.554V16.054A.554.554,0,0,0,13.84,15.5Zm.554-9.964H8.858V3.875h1.384a.277.277,0,0,0,.277-.277V1.937a.277.277,0,0,0-.277-.277H8.858V.277A.277.277,0,0,0,8.581,0H6.921a.277.277,0,0,0-.277.277V1.661H5.26a.277.277,0,0,0-.277.277V3.6a.277.277,0,0,0,.277.277H6.644V5.536H1.108A1.107,1.107,0,0,0,.052,6.973l2.528,7.42H12.921l2.528-7.42a1.107,1.107,0,0,0-1.056-1.437Z" transform="translate(242 114.286)"/>
      <rect id="Rectangle_13" data-name="Rectangle 13" width="26" height="7" transform="translate(238 155)"/>
      <text id="_Maroon" data-name=" Maroon" transform="translate(243 156)" fill="#fff" font-size="5" font-family="NiagaraEngraved-Reg, Niagara Engraved"><tspan x="2.777" y="4" xml:space="preserve"> Maroon</tspan></text>
    </g>
  </g>
</svg>
