<svg xmlns="http://www.w3.org/2000/svg" xmlns:xlink="http://www.w3.org/1999/xlink" width="129.788" height="182.215" viewBox="0 0 129.788 182.215">
  <defs>
    <linearGradient id="linear-gradient" x1="-3.943" y1="0.582" x2="2.194" y2="0.211" gradientUnits="objectBoundingBox">
      <stop offset="0" stop-color="#fff"/>
      <stop offset="1" stop-color="gray"/>
    </linearGradient>
    <linearGradient id="linear-gradient-2" x1="-0.98" y1="-0.232" x2="2.194" y2="0.211" xlink:href="#linear-gradient"/>
    <linearGradient id="linear-gradient-4" x1="-0.171" x2="1.178" y2="1.171" gradientUnits="objectBoundingBox">
      <stop offset="0" stop-color="#e9e9e9"/>
      <stop offset="1" stop-color="gray"/>
    </linearGradient>
  </defs>
  <g id="strainer" transform="translate(-609.33 -498.007)">
    <path id="Path_14" data-name="Path 14" d="M19.7,8.047,27,88.5a13.5,13.5,0,0,1-27,0L4.558,8.047C4.558.591,19.7.591,19.7,8.047Z" transform="translate(663.633 577.766) rotate(1)" fill="url(#linear-gradient)"/>
    <path id="Path_15" data-name="Path 15" d="M12.181,3.808,16.7,23.279c0,1.8-3.738,3.267-8.348,3.267S0,25.083,0,23.279L2.819,3.808C2.819,2,12.181,2,12.181,3.808Z" transform="matrix(-0.017, 1, -1, -0.017, 636.163, 539.998)" fill="url(#linear-gradient-2)"/>
    <path id="Path_16" data-name="Path 16" d="M12.181,3.808,16.7,23.279c0,1.8-3.738,3.267-8.348,3.267S0,25.083,0,23.279L2.819,3.808C2.819,2,12.181,2,12.181,3.808Z" transform="matrix(0.07, -0.998, 0.998, 0.07, 711.472, 554.408)" fill="url(#linear-gradient)"/>
    <path id="Exclusion_1" data-name="Exclusion 1" d="M-1892.728,226.787a45.176,45.176,0,0,1-17.49-3.49,45.371,45.371,0,0,1-14.371-9.542,45.345,45.345,0,0,1-9.809-14.2,45.228,45.228,0,0,1-3.807-17.471,45.215,45.215,0,0,1,3.266-17.77,45.351,45.351,0,0,1,9.5-14.631,45.35,45.35,0,0,1,14.29-10,45.215,45.215,0,0,1,17.645-3.884c.268,0,.54-.007.809-.007a45.178,45.178,0,0,1,17.49,3.49,45.373,45.373,0,0,1,14.371,9.542,45.347,45.347,0,0,1,9.81,14.2,45.23,45.23,0,0,1,3.807,17.471,45.215,45.215,0,0,1-3.266,17.77,45.347,45.347,0,0,1-9.5,14.631,45.348,45.348,0,0,1-14.29,10,45.216,45.216,0,0,1-17.646,3.884C-1892.188,226.785-1892.46,226.787-1892.728,226.787Zm22.81-49.007a5.506,5.506,0,0,0-5.5,5.5,5.506,5.506,0,0,0,5.5,5.5,5.506,5.506,0,0,0,5.5-5.5A5.506,5.506,0,0,0-1869.918,177.781Zm-22,0a5.507,5.507,0,0,0-5.5,5.5,5.507,5.507,0,0,0,5.5,5.5,5.506,5.506,0,0,0,5.5-5.5A5.506,5.506,0,0,0-1891.918,177.781Zm-22,0a5.506,5.506,0,0,0-5.5,5.5,5.506,5.506,0,0,0,5.5,5.5,5.506,5.506,0,0,0,5.5-5.5A5.506,5.506,0,0,0-1913.918,177.781Zm44-17a5.506,5.506,0,0,0-5.5,5.5,5.506,5.506,0,0,0,5.5,5.5,5.506,5.506,0,0,0,5.5-5.5A5.506,5.506,0,0,0-1869.918,160.78Zm-22,0a5.507,5.507,0,0,0-5.5,5.5,5.507,5.507,0,0,0,5.5,5.5,5.506,5.506,0,0,0,5.5-5.5A5.506,5.506,0,0,0-1891.918,160.78Zm-22,0a5.506,5.506,0,0,0-5.5,5.5,5.506,5.506,0,0,0,5.5,5.5,5.506,5.506,0,0,0,5.5-5.5A5.506,5.506,0,0,0-1913.918,160.78Z" transform="translate(2567.419 362.22)" fill="url(#linear-gradient-4)"/>
    <path id="Path_17" data-name="Path 17" d="M2617.464,460.323c4.208,36.236,4.757,68.188,4.757,68.188" transform="translate(-1937.867 135.453)" fill="none" stroke="#fff" stroke-linecap="round" stroke-width="1"/>
    <path id="Path_18" data-name="Path 18" d="M2646.234,380.809a44.318,44.318,0,0,1,7.929,34.207" transform="translate(-1939 135)" fill="none" stroke="#fff" stroke-linecap="round" stroke-width="1"/>
  </g>
</svg>
