<svg xmlns="http://www.w3.org/2000/svg" xmlns:xlink="http://www.w3.org/1999/xlink" width="64.375" height="217.604" viewBox="0 0 64.375 217.604">
  <defs>
    <linearGradient id="linear-gradient" x1="1.271" y1="0.393" x2="-0.283" y2="0.892" gradientUnits="objectBoundingBox">
      <stop offset="0" stop-color="#ddd"/>
      <stop offset="1" stop-color="#888686"/>
    </linearGradient>
  </defs>
  <g id="vodka" transform="translate(-218.891 -19)">
    <path id="Path_38" data-name="Path 38" d="M32.091-.766H58.124L57.3,51.084l19.142,3.875.823,155.8a160.768,160.768,0,0,1-31.54,3.6,168.75,168.75,0,0,1-32.013-3.6l-.823-155.8,18.377-3.875Z" transform="translate(206 22.243)" fill="rgba(255,255,255,0.25)"/>
    <path id="Path_40" data-name="Path 40" d="M0,0H29V36.451a53.627,53.627,0,0,1-14.273,2.24A59.272,59.272,0,0,1,0,36.451Z" transform="translate(237 19)" fill="url(#linear-gradient)"/>
    <line id="Line_3" data-name="Line 3" x2="26" transform="translate(238.5 33.5)" fill="none" stroke="red" stroke-width="3"/>
    <path id="Path_39" data-name="Path 39" d="M29.67,56.215h22.6V71.7L68.9,75.942v145.53s-13.051,6.992-26.847,6.992-28.335-6.992-28.335-6.992V75.942L29.67,71.7Z" transform="translate(210 5.887)" fill="rgba(175,214,219,0.54)"/>
    <text id="V_O_D_K_A" data-name="V O D K A" transform="translate(224 209) rotate(-90)" fill="red" font-size="15" font-family="Candara"><tspan x="0" y="14">V O D K A</tspan></text>
    <text id="product_of_Maroon" data-name="product
of Maroon" transform="translate(229 215)" font-size="5" font-family="Candara"><tspan x="12.587" y="5">product</tspan><tspan x="9.821" y="11">of Maroon</tspan></text>
    <path id="Path_43" data-name="Path 43" d="M2209-43.234V41.058" transform="translate(-1939 135)" fill="none" stroke="#fff" stroke-linecap="round" stroke-width="3"/>
  </g>
</svg>
