<svg xmlns="http://www.w3.org/2000/svg" xmlns:xlink="http://www.w3.org/1999/xlink" width="93.902" height="169" viewBox="0 0 93.902 169">
  <defs>
    <radialGradient id="radial-gradient" cx="0.5" cy="0.5" r="0.5" gradientUnits="objectBoundingBox">
      <stop offset="0" stop-color="#ff9100" stop-opacity="0.839"/>
      <stop offset="1" stop-color="#ffbb48"/>
    </radialGradient>
    <linearGradient id="linear-gradient" x1="1.186" y1="0.182" x2="-0.091" y2="0.859" gradientUnits="objectBoundingBox">
      <stop offset="0" stop-color="#fff1ae"/>
      <stop offset="1" stop-color="#ecd76d"/>
    </linearGradient>
  </defs>
  <g id="whiskey" transform="translate(-48.278 -64)">
    <path id="Path_34" data-name="Path 34" d="M30.3,12.3V-10.671H48.679V12.3S81.986,26.848,81.986,44.842,68.118,117,68.118,117s-14.165-7.051-28.331-7.051S11.457,117,11.457,117-1.857,60.156-3.006,44.842,30.3,12.3,30.3,12.3Z" transform="translate(55 116)" fill="url(#radial-gradient)"/>
    <path id="Path_33" data-name="Path 33" d="M32.091-.766H58.124V49.969S85.689,65.572,92,75.8s-14.733,82.878-14.733,82.878H13.714S-4.526,83.536,0,75.8,32.091,49.969,32.091,49.969Z" transform="translate(49 74.319)" fill="rgba(255,255,255,0.25)"/>
    <rect id="Rectangle_9" data-name="Rectangle 9" width="33" height="29" rx="5" transform="translate(78 64)" fill="url(#linear-gradient)"/>
    <text id="Whiskey-2" data-name="Whiskey" transform="translate(64 165)" font-size="15" font-family="Algerian"><tspan x="0" y="13">Whiskey</tspan></text>
    <path id="Exclusion_4" data-name="Exclusion 4" d="M-1927.626,147.833h-9.631v-.092h-.726a.2.2,0,0,1-.2-.206v-2.38a.248.248,0,0,1,.03-.018.192.192,0,0,0,.04-.026l1.549-1.384v-.549l-1.821,1.627a.2.2,0,0,1-.135.052.2.2,0,0,1-.152-.068l-.272-.306a.21.21,0,0,1,.015-.292l2.364-2.114v1.1l1.093-.977a.2.2,0,0,1,.135-.051.2.2,0,0,1,.134.051l.728.651a.269.269,0,0,0,.182.163l-.182-.163a.339.339,0,0,1-.026-.132v-.992l.79.706v-.665a.2.2,0,0,1,.2-.206h.347a.338.338,0,0,1,.037.155v1a.282.282,0,0,1-.258.3h-.86a.224.224,0,0,1-.049-.005l1.8,1.609h-.376a.236.236,0,0,0-.163.068l-2.307-2.062-1.228,1.1v3.3h-.43a.282.282,0,0,0-.258.3v.409h1.169l-.473-.937,1.322-.823-.764-1.535,1.881,1.76-1.323.824.508.711h2.238a.2.2,0,0,0,.2-.206v-.5h-.634v-2.106a.322.322,0,0,1,.094-.233l.472.422a.211.211,0,0,0,.04.025l.028.016v1.877h.742v-2.106a.31.31,0,0,0-.138-.266l-.115.13a.2.2,0,0,1-.151.068.2.2,0,0,1-.136-.053l-.2-.18h.484a.229.229,0,0,1,.12.035l.156-.177a.207.207,0,0,0-.015-.291l-.745-.667v-1.756a.2.2,0,0,0-.2-.206h-.467a.255.255,0,0,0-.222-.147h-.86a.282.282,0,0,0-.257.3v.01l-.5-.444a.5.5,0,0,0-.339-.132.5.5,0,0,0-.339.132l-.888.794V135.6a.564.564,0,0,1,.516-.6h7.224a.564.564,0,0,1,.516.6v4.052l2.231-1.275a.5.5,0,0,1,.247-.068.5.5,0,0,1,.247.068l3.642,2.081a.933.933,0,0,1,.394.814v6.295c0,.081-.048.148-.107.148h-1.07c-.059,0-.107-.066-.107-.148v-4.555c0-.324-.2-.588-.437-.588h-5.041v.592a.082.082,0,0,1,.024,0h4.918c.058,0,.107.067.107.147v.882c0,.081-.048.147-.107.147h-4.919a.08.08,0,0,1-.022,0v.594a.079.079,0,0,1,.022,0h4.92c.059,0,.107.066.107.148v.881c0,.081-.048.147-.107.147h-4.922l-.02,0v.592h4.942c.059,0,.107.066.107.147v.881c0,.081-.048.148-.107.148h-4.254v-.382a.282.282,0,0,0-.257-.3h-.43v-.49a.141.141,0,0,0-.09.145v.881c0,.081.048.148.107.148h.671v.118Zm-.688-8.18-1.409.806a.932.932,0,0,0-.4.814v6.295c0,.081.048.148.107.148h1.071c.059,0,.107-.066.107-.148v-4.555c0-.324.2-.588.436-.588h.084v-2.771Zm0,5.125a.144.144,0,0,0-.086.145v.881a.143.143,0,0,0,.087.144v-1.17Zm0-1.762a.145.145,0,0,0-.084.143v.882a.145.145,0,0,0,.085.143v-1.168Zm-3.182-1.6a.283.283,0,0,0-.258.3v1a.282.282,0,0,0,.258.3h.859a.282.282,0,0,0,.258-.3v-1a.283.283,0,0,0-.258-.3Zm0-2.406a.282.282,0,0,0-.258.3v1a.282.282,0,0,0,.258.3h.859a.282.282,0,0,0,.258-.3v-1a.282.282,0,0,0-.258-.3Zm-2.752,0a.282.282,0,0,0-.257.3v1a.282.282,0,0,0,.257.3h.86a.282.282,0,0,0,.258-.3v-1a.282.282,0,0,0-.258-.3Zm2.752-2.407a.283.283,0,0,0-.258.3v1a.282.282,0,0,0,.258.3h.859a.282.282,0,0,0,.258-.3v-1a.283.283,0,0,0-.258-.3Zm-2.752,0a.282.282,0,0,0-.257.3v1a.282.282,0,0,0,.257.3h.86a.282.282,0,0,0,.258-.3v-1a.283.283,0,0,0-.258-.3Z" transform="translate(2025 17.332)"/>
    <rect id="Rectangle_10" data-name="Rectangle 10" width="32" height="8" transform="translate(80 182)"/>
    <path id="Path_35" data-name="Path 35" d="M0,0H9V9H0L4.683,4.55Z" transform="translate(73 183)"/>
    <path id="Path_36" data-name="Path 36" d="M0,0H9L4.75,4.75,9,9H0Z" transform="translate(110 183)"/>
    <text id="Maroon" transform="translate(87 184)" fill="#fff" font-size="5" font-family="Algerian"><tspan x="0" y="4">Maroon</tspan></text>
    <path id="Path_37" data-name="Path 37" d="M2047.131,1.528c24.456,23.812,18.664,20.916,18.664,20.916" transform="matrix(0.995, -0.105, 0.105, 0.995, -1925.992, 351.056)" fill="none" stroke="#fff" stroke-linecap="round" stroke-width="3"/>
  </g>
</svg>
