<svg xmlns="http://www.w3.org/2000/svg" viewBox="0 0 128.765 224.21"><defs/><path fill="rgba(255,255,255,0.55)" d="M31.662 22.378l17.348-.295.864 50.827a62.746 62.746 0 00-47.18 67.683l8.232 77.127a6.881 6.881 0 006.921 6.196l96.927-1.648a6.877 6.877 0 006.702-6.427l5.61-77.367a62.746 62.746 0 00-49.453-66.04l-.864-50.823 17.348-.295A17.352 17.352 0 00111.17 3.672 3.47 3.47 0 00107.64.26L17.43 1.795a3.47 3.47 0 00-3.411 3.529 17.352 17.352 0 0017.644 17.054z" data-name="Icon awesome-wine-glass"/><path fill="none" stroke="#fff" stroke-width="5" d="M94.053 95.462c29.364 31.853 13.479 113.5 13.479 113.5" data-name="Path 1"/></svg>