<svg id="Layer_1" enable-background="new 0 0 512 512" height="512" viewBox="0 0 512 512" width="512" xmlns="http://www.w3.org/2000/svg"><g id="XMLID_1939_"><g id="XMLID_534_"><g id="XMLID_1410_"><g id="XMLID_1411_"><g><g id="XMLID_4648_"><g id="XMLID_4649_"><g id="XMLID_4650_"><g id="XMLID_4651_"><g id="XMLID_4652_"><g id="XMLID_4653_"><g id="XMLID_4654_"><g id="XMLID_4655_"><g id="XMLID_4656_"><g id="XMLID_4657_"><g id="XMLID_4658_"><g id="XMLID_4659_"><g id="XMLID_4660_"><circle id="XMLID_4661_" cx="256" cy="256" fill="#00429b" r="256"/></g></g></g></g></g></g></g></g></g></g></g></g></g></g></g></g></g><path id="XMLID_2250_" d="m512 256c0-21.555-2.678-42.483-7.695-62.483l-130.617-130.617-225.215 394.2 47.903 47.903c19.133 4.565 39.093 6.997 59.624 6.997 141.385 0 256-114.615 256-256z" fill="#00337a"/><g id="XMLID_621_"><g id="XMLID_839_"><path id="XMLID_2570_" d="m138.311 62.9 10.162 394.2h215.052l10.163-394.2z" fill="#c8ffff"/><path id="XMLID_1492_" d="m373.689 62.9-10.16 394.2h-107.53v-394.2z" fill="#98f9ff"/><path id="XMLID_1904_" d="m344.909 139.68-6.86 254.32-.07 2.67h-163.96l-7.4-268.18 19.663 2.094c4.983.531 9.917 1.457 14.755 2.763 17.95 4.845 36.802 5.294 54.962 1.303 2.31-.5 4.61-1.08 6.9-1.73 10.38-2.96 21.05-4.43 31.7-4.43 14.5 0 28.96 2.73 42.62 8.14z" fill="#fff"/><g id="XMLID_1226_"><path id="XMLID_1901_" d="m344.909 139.68-6.86 254.32-.07 2.67h-81.98v-262.02c2.31-.5 4.61-1.08 6.9-1.73 10.38-2.96 21.05-4.43 31.7-4.43 14.5 0 28.96 2.73 42.62 8.14z" fill="#e7f9fb"/></g></g><path id="XMLID_887_" d="m363.525 457.1 1.627-63.1h-218.305l1.626 63.1z" fill="#98f9ff"/><path id="XMLID_1412_" d="m365.149 394-1.62 63.1h-107.53v-63.1z" fill="#45f6ff"/></g></g></svg>