<svg id="Capa_1" enable-background="new 0 0 512 512" height="512" viewBox="0 0 512 512" width="512" xmlns="http://www.w3.org/2000/svg"><path d="m.002 256.892c.307 90.071 47.141 169.198 117.718 214.588h.01l.009.003c90.275 26.455 186.246 26.454 276.521-.003h.01c20.43-13.14 38.87-29.1 54.76-47.34l56.02-108.68c4.55-19.08 6.95-38.99 6.95-59.46 0-141.38-114.619-255.999-255.999-256-141.394-.001-256.482 115.499-255.999 256.892z" fill="#9e68e0"/><path d="m0 256c0 87.11 43.52 164.07 110 210.31 2.54 1.77 5.11 3.49 7.72 5.17l.02.01.015.004c90.266 26.448 186.224 26.446 276.489-.007l.026-.008c2.61-1.68 5.19-3.4 7.73-5.17 17.37-12.08 33.17-26.26 47.03-42.17l56.02-108.68c4.55-19.079 6.95-38.989 6.95-59.459 0-46.22-12.25-89.57-33.68-127-44.12 77.07-127.16 129-222.32 129s-178.21-51.93-222.32-129c-21.43 37.43-33.68 80.78-33.68 127z" fill="#8e4dd3"/><path d="m374.256 153.352c0 4.793-.878 9.371-2.48 13.599h-231.552c-1.603-4.228-2.48-8.807-2.48-13.599 0-21.276 17.254-38.523 38.531-38.523.13 0 .252.008.382.008-.092-1.168-.153-2.343-.153-3.533 0-23.222 18.827-42.049 42.049-42.049 1.252 0 2.488.053 3.717.16 11.355.992 22.726-.038 33.731-2.77 3.877-.962 7.715-2.137 11.485-3.503 9.692-3.518 20.483-4.35 31.266-1.816 25.466 5.983 42.598 28.786 42.4 53.885 18.704 2.64 33.104 18.704 33.104 38.141z" fill="#ffeb5c"/><path d="m341.151 115.21c.199-25.1-16.934-47.902-42.4-53.885-10.783-2.534-21.574-1.702-31.266 1.816-3.77 1.366-7.609 2.541-11.485 3.503v100.307h115.776c1.602-4.228 2.48-8.807 2.48-13.599 0-19.437-14.4-35.501-33.105-38.142z" fill="#ffe400"/><path d="m117.72 471.48c13.93 8.95 28.78 16.6 44.39 22.75 29.07 11.47 60.75 17.77 93.89 17.77 50.93 0 98.39-14.88 138.27-40.52-2.96-2.67-4.72-6.55-4.72-10.69v-25.25c0-5.72 4.64-10.36 10.36-10.36h37.24c4.05 0 8.02-.36 11.88-1.04l56.02-108.68v-42.26c0-37.51-30.4-67.9-67.9-67.9h-37.24c-5.72 0-10.36-4.65-10.36-10.37v-27.98c0-4.65-3.77-8.42-8.43-8.42h-250.24c-4.66 0-8.43 3.77-8.43 8.42v293.84c0 4.14-1.77 8.02-4.73 10.69zm271.83-210.03c0-5.72 4.64-10.36 10.36-10.36h37.24c12.21 0 22.11 9.9 22.11 22.11v84.07c0 12.21-9.9 22.12-22.11 22.12h-37.24c-5.72 0-10.36-4.64-10.36-10.36z" fill="#fff"/><path d="m162.11 494.23c22.64 8.93 46.87 14.73 72.14 16.86 7.17.6 14.43.91 21.75.91s14.57-.31 21.74-.91c40.91-3.44 79.1-16.51 112.26-36.94.5-.3.99-.6 1.48-.91.94-.58 1.87-1.17 2.79-1.76-2.96-2.67-4.72-6.55-4.72-10.69v-25.25c0-5.72 4.64-10.36 10.36-10.36h37.24c4.05 0 8.02-.36 11.88-1.04l56.02-108.68v-42.26c0-37.51-30.4-67.9-67.9-67.9h-37.24c-5.72 0-10.36-4.65-10.36-10.37v-27.98c0-4.65-3.77-8.42-8.43-8.42h-186.55c-4.65 0-8.42 3.77-8.42 8.42v293.84c0 5.86-3.53 11.18-8.97 13.36-8.2 3.27-14.19 10.94-15.07 20.08zm227.44-232.78c0-5.72 4.64-10.36 10.36-10.36h37.24c12.21 0 22.11 9.9 22.11 22.11v84.07c0 12.21-9.9 22.12-22.11 22.12h-37.24c-5.72 0-10.36-4.64-10.36-10.36z" fill="#d1f6ff"/><path d="m256 158.53v353.47c50.93 0 98.39-14.88 138.27-40.52-2.96-2.67-4.72-6.55-4.72-10.69v-25.25c0-5.72 4.64-10.36 10.36-10.36h37.24c4.05 0 8.02-.36 11.88-1.04 26.75-30.67 46.3-67.77 56.02-108.68v-42.26c0-37.51-30.4-67.9-67.9-67.9h-37.24c-5.72 0-10.36-4.65-10.36-10.37v-27.98c0-4.65-3.77-8.42-8.43-8.42zm133.55 102.92c0-5.72 4.64-10.36 10.36-10.36h37.24c12.21 0 22.11 9.9 22.11 22.11v84.07c0 12.21-9.9 22.12-22.11 22.12h-37.24c-5.72 0-10.36-4.64-10.36-10.36z" fill="#b3f4ff"/><path d="m162.328 306.793v110.778c0 12.099 9.813 21.904 21.913 21.904h143.534c12.099 0 21.905-9.805 21.905-21.904v-110.778c0-12.099-9.805-21.913-21.905-21.913h-143.534c-12.099 0-21.913 9.814-21.913 21.913z" fill="#ffe400"/><path d="m162.328 306.793v110.778c0 12.099 9.813 21.904 21.913 21.904h71.767v-154.595h-71.767c-12.099 0-21.913 9.814-21.913 21.913z" fill="#fed110"/><path d="m389.549 166.951v27.977h-267.098v-27.977c0-4.655 3.77-8.425 8.425-8.425h250.249c4.654 0 8.424 3.77 8.424 8.425z" fill="#d1f6ff"/><path d="m381.124 158.526h-186.549c-4.655 0-8.425 3.77-8.425 8.425v27.977h203.4v-27.977c-.001-4.655-3.771-8.425-8.426-8.425z" fill="#b3f4ff"/><path d="m381.124 158.526h-125.124v36.402h133.549v-27.977c0-4.655-3.77-8.425-8.425-8.425z" fill="#92c6eb"/><path d="m424.806 251.087h-24.894c-5.724 0-10.363 4.64-10.363 10.363v-66.523c0 5.724 4.64 10.371 10.363 10.371h24.611c.077 11.234.184 27.176.283 45.789z" fill="#92c6eb"/><path d="m425.34 379.389c-.031 19.788-.145 35.967-.351 45.788h-25.077c-5.724 0-10.363 4.64-10.363 10.363v-66.515c0 5.724 4.64 10.363 10.363 10.363h25.428z" fill="#92c6eb"/><path d="m121.97 474.15c12.69 7.81 26.11 14.55 40.14 20.08 29.07 11.47 60.75 17.77 93.89 17.77 7.32 0 14.57-.31 21.74-.91 40.91-3.44 79.1-16.51 112.26-36.94z" fill="#d1f6ff"/><path d="m162.05 494.2.06.03c22.64 8.93 46.87 14.73 72.14 16.86 7.17.6 14.43.91 21.75.91s14.57-.31 21.74-.91c40.91-3.44 79.1-16.51 112.26-36.94.5-.3.99-.6 1.48-.91h-214.3c-8.46 3.38-14.57 11.43-15.13 20.96z" fill="#b3f4ff"/><path d="m256 473.24v38.76c7.32 0 14.57-.31 21.74-.91 40.91-3.44 79.1-16.51 112.26-36.94.5-.3.99-.6 1.48-.91z" fill="#92c6eb"/><g fill="#ff9f00"><circle cx="209.172" cy="387.662" r="14.621"/><circle cx="288.082" cy="334.508" r="9.972"/><circle cx="204.523" cy="305.266" r="9.972"/><circle cx="311.645" cy="402.284" r="9.972"/></g></svg>