<svg xmlns="http://www.w3.org/2000/svg" xmlns:xlink="http://www.w3.org/1999/xlink" width="210.585" height="336.809" viewBox="0 0 210.585 336.809">
  <defs>
  <style type="text/css">
    @font-face {
      font-family: Algerian;
      src: url('../../fonts/ALGERIA.ttf');
    }
  </style>
    <radialGradient id="radial-gradient" cx="0.5" cy="0.5" r="0.5" gradientUnits="objectBoundingBox">
      <stop offset="0" stop-color="#f80"/>
      <stop offset="0.693" stop-color="#ff5400"/>
      <stop offset="1" stop-color="#fc3d0d"/>
    </radialGradient>
    <linearGradient id="linear-gradient" x1="1.182" y1="0.293" x2="-0.329" y2="1.187" gradientUnits="objectBoundingBox">
      <stop offset="0" stop-color="#c49e53"/>
      <stop offset="1" stop-color="#ffbb76"/>
    </linearGradient>
    <linearGradient id="linear-gradient-2" x1="1" y1="0.44" x2="0" y2="0.434" gradientUnits="objectBoundingBox">
      <stop offset="0"/>
      <stop offset="0.191"/>
      <stop offset="0.256" stop-color="#efef96"/>
      <stop offset="0.328"/>
      <stop offset="0.5"/>
      <stop offset="0.663"/>
      <stop offset="0.731" stop-color="#efef96"/>
      <stop offset="0.823"/>
      <stop offset="1"/>
    </linearGradient>
  </defs>
  <g id="brandy" transform="translate(-47.693 -85)">
    <path id="liquor" d="M60.416,12.3a169.713,169.713,0,0,0,32.908,3.754,169.549,169.549,0,0,0,32.9-3.754l65.032,51.173s-10.605,66.2-10.605,95.479c0,41.906,16.416,77.263,6.6,83.94s-62.46-3.581-93.927-3.581-86,10.645-94.873,3.581,7.353-39.97,7.527-83.94c.111-27.884-7.527-95.479-7.527-95.479Z" transform="translate(58.796 168.886)" fill="url(#radial-gradient)"/>
    <path id="bottle" d="M72.882,18.816h57.83v69.2l75.251,57.389a647.85,647.85,0,0,0-6.36,87.361c0,46.026,16.549,83.046,6.36,96.742s-68.121,5.756-103.415,5.756S11.378,342.137,1.6,329.511s8.291-96.742,8.291-96.742L1.6,145.408,72.882,88.019Z" transform="translate(49 84.254)" fill="rgba(255,255,255,0.25)"/>
    <g id="cap">
      <rect id="Rectangle_12" data-name="Rectangle 12" width="47" height="40" rx="5" transform="translate(128 94)" fill="url(#linear-gradient)"/>
      <rect id="Rectangle_9" data-name="Rectangle 9" width="73" height="18" rx="3" transform="translate(115 85)" fill="url(#linear-gradient-2)"/>
    </g>
    <path id="reflection" d="M0,0C54.326,52.9,41.459,46.463,41.459,46.463" transform="matrix(0.995, -0.105, 0.105, 0.995, 186.29, 204.05)" fill="none" stroke="#fff" stroke-linecap="round" stroke-width="3"/>
    <g id="label">
      <text id="Brandy-2" data-name="Brandy" transform="translate(159 307)" font-size="30" font-family="Algerian"><tspan x="-58.271" y="0">BRANDY</tspan></text>
      <text id="Maroon" transform="translate(154 269)" font-size="15" font-family="Algerian"><tspan x="-29.791" y="0">MAROON</tspan></text>
      <path id="Path_50" data-name="Path 50" d="M66.125,175.212s33.556-6.714,66.654-5.745a608.85,608.85,0,0,1,64.594,5.745" transform="translate(22.512 143.033)" fill="none" stroke="#000" stroke-width="1"/>
      <path id="Icon_awesome-crown" data-name="Icon awesome-crown" d="M28.123,23.862H5.965a.855.855,0,0,0-.852.852v1.7a.855.855,0,0,0,.852.852H28.123a.855.855,0,0,0,.852-.852v-1.7A.855.855,0,0,0,28.123,23.862ZM31.532,6.818a2.557,2.557,0,0,0-2.557,2.557,2.5,2.5,0,0,0,.234,1.055L25.353,12.74A1.7,1.7,0,0,1,23,12.123l-4.341-7.6a2.557,2.557,0,1,0-3.228,0l-4.341,7.6a1.7,1.7,0,0,1-2.354.618L4.884,10.429a2.556,2.556,0,1,0-2.328,1.5,2.611,2.611,0,0,0,.41-.043L6.818,22.157H27.27l3.851-10.269a2.611,2.611,0,0,0,.41.043,2.557,2.557,0,0,0,0-5.113Z" transform="translate(135.009 224.333)"/>
      <path id="Path_56" data-name="Path 56" d="M66.125,169.371s34.124,6.053,67.782,5.18,65.687-5.18,65.687-5.18" transform="translate(22.512 106.668)" fill="none" stroke="#000" stroke-width="1"/>
      <path id="Icon_awesome-critical-role" data-name="Icon awesome-critical-role" d="M12.975,0c.015.009,12.431,7.147,12.463,7.159a.343.343,0,0,1,.212.377q-.006,7.185,0,14.371a.338.338,0,0,1-.194.332c-1.227.689-11.931,6.79-12.567,7.151h-.172C8.164,26.769.19,22.189.181,22.185A.189.189,0,0,1,.073,22c0-.05,0-12.969,0-14.528a.287.287,0,0,1,.168-.283C1.573,6.435,12.251.344,12.875,0Zm-.6,1.172-.013-.009Q6.79,4.337,1.218,7.512a.057.057,0,0,0,.007.02L3,8.2c-.443.344-.478.344-.611.294C2.38,8.495,1,7.962.847,7.921V21.148c.051-.081,3.678-6.366,3.681-6.372.093-.162.172-.11.524-.087.08.005.085.013.045.082-2.364,4.094-2.089,3.616-3.873,6.713-.046.08-.035.065.072.065H12c.083,0,.1-.013.1-.094v-.51c0-.077.135-.046-1.054-.057a1.506,1.506,0,0,1-1.227-.729c-.424-.554-.839-1.115-1.254-1.677-.131-.177-.2-.137-.962-.137-.1,0-.1,0-.1.1a14.658,14.658,0,0,0,.057,1.875c.03.251.124.241.556.276.18.015.223.234.03.282-.09.022-1.814.029-1.933-.006a.139.139,0,0,1,.017-.272c.189-.044.354.046.382-.255a39.962,39.962,0,0,0,.063-4.559c0-.621-.02-.722-.308-.778-.07-.014-.2-.009-.269-.032-.165-.057-.115-.278.1-.278,1.933,0,2.645-.061,3.218.279a1.392,1.392,0,0,1,.718,1.171,2.5,2.5,0,0,1-.861,1.871.084.084,0,0,0,0,.127c.149.187.287.381.443.564,1.582,1.907,1.384,1.753,2.37,1.9.051.007.057-.024.057-.066v-.631c0-.057.018-.082.081-.072a4.154,4.154,0,0,0,1.354-.017c.062-.009.086.011.085.076,0,.006.051,1.532.05,1.538,0,.087.038.093.108.093H24.537q-2.338-4.05-4.663-8.083a2.385,2.385,0,0,1,.384-.08c.115-.022.118-.024.179.083.42.726,4.438,7.692,4.441,7.7V7.921c-.1.029-5.93,2.223-6.071,2.278-.062.024-.089.011-.11-.051-.036-.109-.077-.216-.12-.323-.018-.045-.005-.065.037-.08.006,0,5.484-2.058,5.912-2.225L13.276,1.057,18.26,9.69l-.016.019c-.549-.052-.6-.092-.677-.226-.057-.1-4.219-7.331-4.707-8.16-.522.842-4.8,8.393-4.9,8.4-.168.01-.338,0-.531,0q2.483-4.29,4.947-8.553ZM15.358,8.63a2.163,2.163,0,0,0,.318-.049c.1-.017.145.011.149.11a9.145,9.145,0,0,1-.049,1.174c-.053.08-.108.07-.149-.011-.287-.556.357-.554-2.246-.689-.04,0-.057.013-.057.053,0,.007.214,7,.214,7.009,0,.051.03.069.069.087a4.817,4.817,0,0,1,.5.232,1.421,1.421,0,0,1,.712,1.108,1.823,1.823,0,0,1-1.849,2.132,1.845,1.845,0,0,1-1.96-1.335,1.735,1.735,0,0,1,1.142-2.089.141.141,0,0,0,.115-.153c.006-.323.172-6.148.213-6.966,0-.062-.036-.067-.077-.066-1.857.03-2.11-.02-2.309.489-.139.355-.238.076-.227.013q.091-.517.19-1.033c.023-.121.082-.15.2-.107.321.121.386.1,2.138.11.1,0,.1,0,.1-.106.039-1.578.033-1.3.057-1.7a.154.154,0,0,0-.094-.161.878.878,0,0,1-.511-.8.917.917,0,0,1,1.572-.661.9.9,0,0,1-.141,1.386.25.25,0,0,0-.127.249c0,.034-.006-.247.057,1.725,0,.052.025.064.071.064.006,0,1.32-.005,1.979-.021Zm-11.426-.5a7.882,7.882,0,0,1,3.013.1c.158.018.215.07.208.23-.012.287-.067,1.282-.071,1.329a.152.152,0,0,1-.094.134c-.233.1-.207-.255-.23-.418-.18-1.288-4.24-1.877-4.284,1.458a2.814,2.814,0,0,0,3.1,2.921C7.142,13.769,6.669,12.725,7,12.709a.156.156,0,0,1,.172.193c-.105.623-.2,1.088-.2,1.1C6.89,14.527,2,15.269,1.62,11.587A3.067,3.067,0,0,1,3.932,8.134Zm4.592,5.032H7.4a.148.148,0,0,1-.153-.1c.137-.215.338.053.336-.352,0-1.478.012-2.181.013-2.3,0-.2-.03-.267-.191-.284-.4-.041-.179-.193-.064-.194a15.465,15.465,0,0,1,1.725.041.772.772,0,0,1,.455,1.3c-.115.129-.23.254-.352.386.055.066.4.506.992,1.13a.652.652,0,0,0,.567.18.127.127,0,0,0,.128-.122,22.007,22.007,0,0,0,.026-2.329c0-.324-.02-.378-.185-.392-.227-.02-.23-.13-.04-.193l1.1-.005c.018,0,.258.03.057.194,0,0-.009,0-.014,0-.207.015-.226.057-.23.265a16.638,16.638,0,0,0,.024,2.458c.006.048.015.128.293.123.143,0,.222.193,0,.2-.6,0-1.191,0-1.786,0-.612,0-.773-.356-1.39-1.2-.092-.125-.477-.135-.471-.021.051.945,0,1.021.23,1.014.273-.006.272.2.048.2Zm15.785-.583c-.069.409.01.6-.3.594-3.533-.024-2.745-.013-2.911-.018a1.056,1.056,0,0,1-.208-.042c-.145-.034.085-.071-.022-.321-.082-.193-.16-.389-.236-.585a.111.111,0,0,0-.115-.083,7.922,7.922,0,0,0-.837,0,.128.128,0,0,0-.093.061c-.091.208-.176.418-.259.631-.073.185.451.076.7.124.172.033.26.214.038.214H18.548c-.168,0-.177-.181-.042-.184a.362.362,0,0,0,.34-.2c.086-.172.161-.344.236-.522a17.174,17.174,0,0,1,1.057-2.388.105.105,0,0,1,.172,0c.168.192,1.056,2.566,1.356,2.98a.4.4,0,0,0,.365.115c.207.007.23-.064.237-.246.005-.107,0,.067,0-2.367,0-.256-.135-.215-.319-.245-.015,0-.147-.036,0-.176a8.161,8.161,0,0,1,1.246-.009c.133,0,.305.158-.069.2a.147.147,0,0,0-.153.162c0,.094-.011,2.232.017,2.366a.176.176,0,0,0,.185.139c.761.025.856.025.918-.2.1-.332.237-.145.214-.011ZM18.3,16.279c-.243,0-.254-.195-.035-.2a14.021,14.021,0,0,0,2.135-.037c.1-.011.137.014.129.108-.015.195-.037.389-.057.583-.014.124-.184.15-.2-.009-.022-.3-.123-.255-.9-.292-.091,0-.094,0-.094.087v.926c0,.095,0,.092.093.084a3.4,3.4,0,0,0,.9-.087c.027-.009.189-.1.176.1,0,.012-.044.594-.068.654s-.108.087-.148.018c-.067-.115,0-.292-.213-.3-.885-.052-.741-.146-.741.344,0,.7-.044.925.223.932.955.028.827,0,.943-.328.048-.136.2-.1.183.033-.025.184-.049.369-.071.553,0,.021-.009.138-.267.137-2.133,0-1.983-.011-2.021-.018-.156-.029-.126-.172.013-.2.063-.011.23.031.239-.147.14-3.227,0-2.947-.224-2.946Zm-.024-6.287c.141.035.18.1.169.267-.019.3-.02.517-.032.556-.038.128-.181.122-.192-.015a.557.557,0,0,0-.435-.525c-1.509-.444-1.883.887-1.56,1.735a1.357,1.357,0,0,0,1.657.791c.34-.106.338-.373.4-.435s.129-.106.179.063c0,.006.033.683-.344.732a3.22,3.22,0,0,1-1.876-.195,1.646,1.646,0,0,1-.395-2.6,2.75,2.75,0,0,1,2.429-.371ZM16.648,16.08c.188,0,.21.172.009.2-.15.018-.287-.024-.287.313,0,.115-.011,1.668.023,2.379a.19.19,0,0,0,.2.21c1.263.069.858-.095,1.079-.364.105-.129.158.048.158.062.02.782-.23.711-.3.712l-2.19-.011a.1.1,0,0,1-.024-.194c.115-.028.284.023.294-.161.057-.911.033-2.563.02-2.744-.015-.216-.161-.188-.326-.213-.142-.022-.115-.185.02-.185.083,0,1.032,0,1.325,0Zm-1.816-3.317c0,.234.164.2.344.205a.1.1,0,1,1,0,.2c-.372,0-.786,0-1.24,0-.22,0-.194-.192,0-.193.258,0,.186.092.2-2.614,0-.292-.188-.2-.271-.243-.148-.071-.078-.177.024-.181.074,0,1.159-.024,1.215.012s.107.095-.024.164c-.057.03-.222-.016-.238.142a21.763,21.763,0,0,0,0,2.514ZM12.713,28.507a.168.168,0,0,0,.187,0c.976-.562,10.447-5.945,11.332-6.458-.008-.025.646-.01-10.42-.015-.07,0-.09.021-.088.09,0,.006.072,2.555.07,2.892a1.626,1.626,0,0,1-.078.443c-.032.105.022-.029-.775,1.85-.042.1-.057.127-.115,0-.241-.594-.475-1.189-.722-1.779a1.355,1.355,0,0,1-.115-.619c.009-.141.046-.925.087-2.755,0-.112,0-.115-.115-.115H1.459c.148.094,10.236,5.888,11.251,6.473ZM7.5,17.672c0,.138.021.16.158.172.662.067,1.205.215,1.472-.42.344-.83.153-1.975-.716-2.229-.115-.034-.918-.158-.915.087,0,.462,0,.666,0,2.391Zm6.07-.864c0,.122.061,2.22.063,2.246.02.571-1.468.331-1.448-.149,0-.115.079-2.148.063-2.263a1.709,1.709,0,0,0,.37,2.8,1.027,1.027,0,0,0,1.285-.406,1.94,1.94,0,0,0-.312-2.239l-.021.007Zm-.7-11.366a.427.427,0,0,0,0,.854.427.427,0,0,0,0-.854ZM8.26,11.4c0,.1.024.138.125.148.782.08.718-.631.7-.767-.1-.644-.825-.585-.824-.448C8.262,10.594,8.257,11.121,8.26,11.4Zm12.187.367-.35-.909-.358.909Z" transform="translate(139.618 322.267)"/>
    </g>
  </g>
</svg>
