<svg xmlns="http://www.w3.org/2000/svg" xmlns:xlink="http://www.w3.org/1999/xlink" width="103.441" height="415.604" viewBox="0 0 103.441 415.604">
  <defs>
  <style type="text/css">
    @font-face {
      font-family: ImprintMT-Shadow;
      src: url('../../fonts/ImprintMTShadow.ttf');
    }
  </style>
    <linearGradient id="linear-gradient" x1="-0.234" y1="0.907" x2="1.459" y2="0.187" gradientUnits="objectBoundingBox">
      <stop offset="0"/>
      <stop offset="1" stop-color="#545454"/>
    </linearGradient>
  </defs>
  <g id="tequila" transform="translate(-386.32 -12.532)">
    <path id="bottle" d="M43.186-.766H83.83l-1.284,96.7s22.679,2,31.17,20.727S101.528,393.7,101.528,393.7s-12.249,6.722-37.053,6.722S23.157,393.7,23.157,393.7,6.488,137.72,14.5,116.657,41.9,95.93,41.9,95.93Z" transform="translate(374 27.71)" fill="rgba(255,255,255,0.25)"/>
    <path id="liquor" d="M72.119,47.5s19.312,1.865,26.542,19.3S88.283,324.713,88.283,324.713s-10.43,6.257-31.552,6.257-35.183-6.257-35.183-6.257S7.354,86.408,14.173,66.8,37.51,47.5,37.51,47.5Z" transform="translate(381.46 84.111)" fill="rgba(234,228,170,0.68)"/>
    <rect id="cap" width="42" height="71" transform="translate(416 12.532)" fill="url(#linear-gradient)"/>
    <g id="label">
      <text id="TEQUILA-2" data-name="TEQUILA" transform="translate(438 246.532)" font-size="15" font-family="ImprintMT-Shadow, Imprint MT Shadow"><tspan x="-36.647" y="0">TEQUILA</tspan></text>
      <g id="Icon_ionic-md-bowtie" data-name="Icon ionic-md-bowtie" transform="translate(421.156 149.138)">
        <path id="Path_44" data-name="Path 44" d="M19.781,21.9H16.748a2.129,2.129,0,0,1-2.123-2.123V16.748a2.129,2.129,0,0,1,2.123-2.123h3.033A2.129,2.129,0,0,1,21.9,16.748v3.033A2.129,2.129,0,0,1,19.781,21.9Z" transform="translate(-1.281 -6.133)"/>
        <g id="Group_1" data-name="Group 1" transform="translate(0 0)">
          <path id="Path_45" data-name="Path 45" d="M13.168,20.7V17.061a4.229,4.229,0,0,1,1.683-3.381C14.381,11.6,7.1,6.75,4.676,6.75A2.433,2.433,0,0,0,2.25,9.176V28.585a2.428,2.428,0,0,0,2.426,2.426c2.426,0,9.7-4.852,10.175-6.93A4.229,4.229,0,0,1,13.168,20.7Z" transform="translate(-2.25 -6.75)"/>
          <path id="Path_46" data-name="Path 46" d="M32.239,6.75c-2.426,0-9.7,4.852-10.175,6.93a4.229,4.229,0,0,1,1.683,3.381V20.7a4.229,4.229,0,0,1-1.683,3.381c.47,2.077,7.749,6.93,10.175,6.93a2.428,2.428,0,0,0,2.426-2.426V9.176A2.433,2.433,0,0,0,32.239,6.75Z" transform="translate(-0.699 -6.75)"/>
        </g>
      </g>
      <path id="Icon_material-line-weight" data-name="Icon material-line-weight" d="M4.5,22.666H86.136v-2.19H4.5Zm0,3.285H86.136v-1.1H4.5Zm0-7.666H86.136V15H4.5Z" transform="translate(392.413 205.243)"/>
      <path id="Icon_material-line-weight-2" data-name="Icon material-line-weight" d="M0,7.666H81.636V5.476H0Zm0,3.285H81.636v-1.1H0ZM0,3.285H81.636V0H0Z" transform="translate(478.548 261.032) rotate(180)"/>
      <text id="Maroon" transform="translate(440.5 269.532)" font-size="10" font-family="ImprintMT-Shadow, Imprint MT Shadow"><tspan x="-16.616" y="0">Maroon</tspan></text>
    </g>
    <path id="reflection" d="M2369.091-52.847c11.54,15.233,7.848,40.622,7.848,40.622" transform="translate(-1897.412 192.946)" fill="none" stroke="#fff" stroke-linecap="round" stroke-width="3"/>
  </g>
</svg>
