<svg xmlns="http://www.w3.org/2000/svg" xmlns:xlink="http://www.w3.org/1999/xlink" width="199.196" height="358.501" viewBox="0 0 199.196 358.501">
  <defs>
  <style type="text/css">
    @font-face {
      font-family: Algerian;
      src: url('../../fonts/ALGERIA.ttf');
    }
  </style>
    <radialGradient id="radial-gradient" cx="0.5" cy="0.5" r="0.5" gradientUnits="objectBoundingBox">
      <stop offset="0" stop-color="#ff9100" stop-opacity="0.839"/>
      <stop offset="1" stop-color="#ffbb48"/>
    </radialGradient>
    <linearGradient id="linear-gradient" x1="1.186" y1="0.182" x2="-0.091" y2="0.859" gradientUnits="objectBoundingBox">
      <stop offset="0" stop-color="#fff1ae"/>
      <stop offset="1" stop-color="#ecd76d"/>
    </linearGradient>
  </defs>
  <g id="whiskey" transform="translate(-48.278 -64)">
    <path id="liquor" d="M67.682,38.058V-10.671h38.982V38.058s70.656,30.861,70.656,69.032S147.9,260.158,147.9,260.158,117.852,245.2,87.8,245.2s-60.1,14.957-60.1,14.957S-.538,139.575-2.974,107.089,67.682,38.058,67.682,38.058Z" transform="translate(59.135 162.343)" fill="url(#radial-gradient)"/>
    <path id="bottle" d="M68.884-.766h55.225V106.858s58.474,33.1,71.861,54.8-31.254,175.809-31.254,175.809H29.9S-8.791,178.064.809,161.662s68.074-54.8,68.074-54.8Z" transform="translate(49 85.031)" fill="rgba(255,255,255,0.25)"/>
    <rect id="cap" width="70" height="62" rx="5" transform="translate(111 64)" fill="url(#linear-gradient)"/>
    <g id="label">
      <text id="Whiskey-2" data-name="Whiskey" transform="translate(152 304)" font-size="25" font-family="Algerian"><tspan x="-52.728" y="0">WHISKEY</tspan></text>
      <path id="Exclusion_4" data-name="Exclusion 4" d="M24.127,27.223H3.7v-.195h0l-1.539,0a.435.435,0,0,1-.431-.437V21.541a.511.511,0,0,1,.063-.037.414.414,0,0,0,.084-.054l3.286-2.935V17.349L1.3,20.8a.424.424,0,0,1-.286.111.434.434,0,0,1-.323-.145l-.577-.649A.446.446,0,0,1,.142,19.5l5.016-4.484v2.334l2.317-2.071a.433.433,0,0,1,.286-.109.426.426,0,0,1,.285.109l1.544,1.38A.572.572,0,0,0,9.978,17l-.386-.345a.719.719,0,0,1-.056-.281V14.272l1.676,1.5V14.359a.434.434,0,0,1,.43-.437h.735a.717.717,0,0,1,.078.328v2.127a.6.6,0,0,1-.548.638H10.081a.476.476,0,0,1-.1-.012L13.8,20.417H13a.5.5,0,0,0-.346.144L7.762,16.188l-2.6,2.326v7.008H4.245a.6.6,0,0,0-.548.638v.867H6.177l-1-1.987,2.8-1.747L6.358,20.037l3.99,3.734L7.542,25.518l1.077,1.508h4.749a.435.435,0,0,0,.431-.437V25.524h0l-1.342,0V21.054a.681.681,0,0,1,.2-.493l1,.894a.448.448,0,0,0,.085.053.662.662,0,0,1,.059.033v3.981h1.573V21.054a.657.657,0,0,0-.292-.564l-.244.276a.427.427,0,0,1-.609.032l-.427-.382h1.027a.484.484,0,0,1,.254.073l.332-.375a.439.439,0,0,0-.032-.617L13.8,18.084V14.359a.435.435,0,0,0-.431-.437h-.991a.54.54,0,0,0-.47-.311H10.081a.6.6,0,0,0-.546.64v.022L8.481,13.33a1.063,1.063,0,0,0-1.439,0L5.158,15.015V1.275A1.2,1.2,0,0,1,6.251,0H21.575a1.2,1.2,0,0,1,1.094,1.275v8.6L27.4,7.165a1.031,1.031,0,0,1,1.048,0l7.727,4.414a1.979,1.979,0,0,1,.836,1.726V26.658c0,.173-.1.313-.227.313h-2.27c-.125,0-.227-.14-.227-.313V17c0-.687-.415-1.247-.926-1.247H22.668V17A.173.173,0,0,1,22.72,17H33.152c.123,0,.228.143.228.311v1.871c0,.172-.1.311-.228.311H22.716a.168.168,0,0,1-.048-.007v1.26a.167.167,0,0,1,.046-.006H33.152c.125,0,.228.14.228.313v1.869c0,.172-.1.311-.228.311H22.71a.164.164,0,0,1-.042-.005V24.48H33.152c.125,0,.228.14.228.311v1.869c0,.173-.1.313-.228.313H24.127V26.16a.6.6,0,0,0-.546-.638h-.913v-1.04a.3.3,0,0,0-.191.307l0,1.869c0,.173.1.313.227.313h1.424v.252ZM22.668,9.87l-2.99,1.709a1.976,1.976,0,0,0-.838,1.726V26.658c0,.173.1.313.227.313H21.34c.125,0,.227-.141.227-.313V17c0-.687.415-1.247.924-1.247h.178V9.87Zm0,10.872a.306.306,0,0,0-.183.307l0,1.869a.3.3,0,0,0,.185.306V20.742Zm0-3.738a.309.309,0,0,0-.178.3l0,1.871a.307.307,0,0,0,.179.3V17Zm-6.749-3.393a.6.6,0,0,0-.548.64v2.127a.6.6,0,0,0,.548.638h1.823a.6.6,0,0,0,.548-.638V14.25a.6.6,0,0,0-.548-.64Zm0-5.1a.6.6,0,0,0-.548.638v2.127a.6.6,0,0,0,.548.638h1.823a.6.6,0,0,0,.548-.638V9.145a.6.6,0,0,0-.548-.638Zm-5.838,0a.6.6,0,0,0-.546.638v2.127a.6.6,0,0,0,.546.638h1.826a.6.6,0,0,0,.548-.638V9.145a.6.6,0,0,0-.548-.638ZM15.919,3.4a.6.6,0,0,0-.548.64V6.169a.6.6,0,0,0,.548.638h1.823a.6.6,0,0,0,.548-.638V4.042a.6.6,0,0,0-.548-.64Zm-5.838,0a.6.6,0,0,0-.546.64V6.169a.6.6,0,0,0,.546.638h1.826a.6.6,0,0,0,.548-.638V4.042a.6.6,0,0,0-.548-.64Z" transform="translate(128.298 251.379)"/>
      <rect id="Rectangle_10" data-name="Rectangle 10" width="67" height="17" transform="translate(116 314)"/>
      <path id="Path_35" data-name="Path 35" d="M0,0H19.092V19.092H0l9.935-9.44Z" transform="translate(100.721 316.436)"/>
      <path id="Path_36" data-name="Path 36" d="M0,0H19.092L10.076,10.076l9.016,9.016H0Z" transform="translate(179.209 316.436)"/>
      <text id="Maroon" transform="translate(150 326)" fill="#fff" font-size="10" font-weight="bold" font-family="Algerian"><tspan x="-19.861" y="0">MAROON</tspan></text>
    </g>
    <path id="reflection" d="M0,0C51.878,50.513,39.591,44.37,39.591,44.37" transform="matrix(0.995, -0.105, 0.105, 0.995, 179.39, 222.234)" fill="none" stroke="#fff" stroke-linecap="round" stroke-width="3"/>
  </g>
</svg>
