<svg xmlns="http://www.w3.org/2000/svg" xmlns:xlink="http://www.w3.org/1999/xlink" width="196" height="196" viewBox="0 0 196 196">
  <defs>
    <linearGradient id="linear-gradient" x1="-3.335" y1="0.232" x2="3.109" y2="0.219" gradientUnits="objectBoundingBox">
      <stop offset="0" stop-color="#fff"/>
      <stop offset="1" stop-color="gray"/>
    </linearGradient>
    <linearGradient id="linear-gradient-2" x1="-0.687" y1="1" x2="1.366" y2="0.733" xlink:href="#linear-gradient"/>
    <radialGradient id="radial-gradient" cx="-0.233" cy="0.56" r="1.197" gradientTransform="translate(0.119 0.225) scale(1.508 0.598)" xlink:href="#linear-gradient"/>
    <radialGradient id="radial-gradient-2" cx="0.5" cy="0.5" r="0.433" gradientTransform="translate(-0.271 -0.304) scale(1.542 1.609)" xlink:href="#linear-gradient"/>
  </defs>
  <g id="stirrer" transform="translate(694.112 1342.377) rotate(-141)">
    <rect id="Rectangle_32" data-name="Rectangle 32" width="196" height="196" rx="20" transform="translate(1384.212 606.404) rotate(141)" fill="#96f343"/>
    <rect id="Rectangle_6" data-name="Rectangle 6" width="4.1" height="99.214" transform="translate(1243.065 550.82)" fill="url(#linear-gradient)"/>
    <rect id="Rectangle_7" data-name="Rectangle 7" width="7.38" height="4.1" rx="2.05" transform="translate(1241.425 649.215)" fill="url(#linear-gradient-2)"/>
    <path id="Path_22" data-name="Path 22" d="M7.724,2.457a9.9,9.9,0,0,1,1.3,5.177c0,4.076-2.019,7.38-4.51,7.38S0,11.709,0,7.634A10.407,10.407,0,0,1,1.356,2.359C2.047,1.147,6.783,1.009,7.724,2.457Z" transform="translate(1240.605 651.421)" fill="url(#radial-gradient)"/>
    <ellipse id="Ellipse_7" data-name="Ellipse 7" cx="9.839" cy="15.169" rx="9.839" ry="15.169" transform="translate(1235.685 522.942)" fill="url(#radial-gradient-2)"/>
  </g>
</svg>
