<svg xmlns="http://www.w3.org/2000/svg" xmlns:xlink="http://www.w3.org/1999/xlink" width="196" height="196" viewBox="0 0 196 196">
  <defs>
    <linearGradient id="linear-gradient" x1="-3.943" y1="0.582" x2="2.194" y2="0.211" gradientUnits="objectBoundingBox">
      <stop offset="0" stop-color="#fff"/>
      <stop offset="1" stop-color="gray"/>
    </linearGradient>
    <linearGradient id="linear-gradient-2" x1="-0.98" y1="-0.232" x2="2.194" y2="0.211" xlink:href="#linear-gradient"/>
    <linearGradient id="linear-gradient-4" x1="-0.171" x2="1.178" y2="1.171" gradientUnits="objectBoundingBox">
      <stop offset="0" stop-color="#e9e9e9"/>
      <stop offset="1" stop-color="gray"/>
    </linearGradient>
  </defs>
  <g id="strainer" transform="matrix(0.799, 0.602, -0.602, 0.799, -145.328, -719.45)">
    <rect id="Rectangle_37" data-name="Rectangle 37" width="196" height="196" rx="20" transform="matrix(0.799, -0.602, 0.602, 0.799, 549.04, 487.118)" fill="#946b0a"/>
    <path id="Path_14" data-name="Path 14" d="M14.293,4.057l5.3,58.377A9.8,9.8,0,1,1,0,62.435L3.307,4.057C3.307-1.352,14.293-1.352,14.293,4.057Z" transform="translate(675.196 511.401) rotate(1)" fill="url(#linear-gradient)"/>
    <path id="Path_15" data-name="Path 15" d="M8.838.982,12.115,15.11c0,1.309-2.712,2.371-6.057,2.371S0,16.419,0,15.11L2.045.982C2.045-.327,8.838-.327,8.838.982Z" transform="matrix(-0.017, 1, -1, -0.017, 653.514, 482.184)" fill="url(#linear-gradient-2)"/>
    <path id="Path_16" data-name="Path 16" d="M8.838.982,12.115,15.11c0,1.309-2.712,2.371-6.057,2.371S0,16.419,0,15.11L2.045.982C2.045-.327,8.838-.327,8.838.982Z" transform="matrix(0.07, -0.998, 0.998, 0.07, 711.717, 492.796)" fill="url(#linear-gradient)"/>
    <path id="Exclusion_1" data-name="Exclusion 1" d="M33,66.03h0A33,33,0,0,1,9.266,10.081,32.911,32.911,0,0,1,32.439.005c.2,0,.393-.005.588-.005A33,33,0,0,1,56.764,55.949,32.913,32.913,0,0,1,33.591,66.025C33.4,66.028,33.2,66.03,33,66.03ZM17.318,30.336h-.1a5.5,5.5,0,0,0,.1,11h.1a5.5,5.5,0,0,0,5.4-5.6A5.526,5.526,0,0,0,17.318,30.336Zm15-.261h-.1a5.5,5.5,0,0,0-5.4,5.594,5.526,5.526,0,0,0,5.5,5.4h.1a5.5,5.5,0,0,0,5.4-5.6A5.524,5.524,0,0,0,32.318,30.075Zm15-.262h-.1a5.5,5.5,0,0,0,.094,11h.1a5.5,5.5,0,0,0,5.4-5.6A5.525,5.525,0,0,0,47.315,29.813ZM17.058,15.339h-.1a5.5,5.5,0,0,0,.095,11h.1a5.5,5.5,0,0,0-.095-11Zm15-.262h-.1a5.5,5.5,0,0,0-5.4,5.6,5.525,5.525,0,0,0,5.5,5.4h.1a5.5,5.5,0,0,0-.094-11Zm15-.262h-.1a5.5,5.5,0,0,0,.094,11h.1a5.5,5.5,0,0,0,5.4-5.594A5.526,5.526,0,0,0,47.053,14.815Z" transform="translate(650.247 451.747)" fill="url(#linear-gradient-4)"/>
    <path id="Path_17" data-name="Path 17" d="M2617.464,460.323c3.053,26.293,3.452,49.477,3.452,49.477" transform="translate(-1930.653 62.365)" fill="none" stroke="#fff" stroke-linecap="round" stroke-width="1"/>
    <path id="Path_18" data-name="Path 18" d="M2646.234,380.809a32.158,32.158,0,0,1,5.753,24.821" transform="translate(-1939.37 83.855)" fill="none" stroke="#fff" stroke-linecap="round" stroke-width="1"/>
  </g>
</svg>
