<svg xmlns="http://www.w3.org/2000/svg" xmlns:xlink="http://www.w3.org/1999/xlink" width="196" height="196" viewBox="0 0 196 196">
  <defs>
    <linearGradient id="linear-gradient" x1="-0.234" y1="0.907" x2="1.459" y2="0.187" gradientUnits="objectBoundingBox">
      <stop offset="0"/>
      <stop offset="1" stop-color="#545454"/>
    </linearGradient>
  </defs>
  <g id="tequila" transform="translate(-329 -9)">
    <rect id="Rectangle_28" data-name="Rectangle 28" width="196" height="196" rx="20" transform="translate(329 9)" fill="#005e51"/>
    <path id="Path_41" data-name="Path 41" d="M25.889-.766H43.756l-.565,42.508s9.97.881,13.7,9.112-5.358,121.792-5.358,121.792S46.152,175.6,35.248,175.6a52.547,52.547,0,0,1-18.163-2.955S9.756,60.114,13.277,50.854s12.048-9.112,12.048-9.112Z" transform="translate(392 22.896)" fill="rgba(255,255,255,0.25)"/>
    <path id="Path_42" data-name="Path 42" d="M38.608,47.5s8.49.82,11.668,8.482-4.562,113.381-4.562,113.381-4.585,2.751-13.871,2.751a41.4,41.4,0,0,1-15.467-2.751S10.137,64.606,13.135,55.986,23.394,47.5,23.394,47.5Z" transform="translate(395.279 20.64)" fill="rgba(234,228,170,0.68)"/>
    <rect id="Rectangle_11" data-name="Rectangle 11" width="19" height="31" transform="translate(417 16)" fill="url(#linear-gradient)"/>
    <text id="TEQUILA-2" data-name="TEQUILA" transform="translate(408 112)" font-size="6" font-family="ImprintMT-Shadow, Imprint MT Shadow"><tspan x="3.841" y="6">TEQUILA</tspan></text>
    <g id="Icon_ionic-md-bowtie" data-name="Icon ionic-md-bowtie" transform="translate(419.634 75.847)">
      <path id="Path_44" data-name="Path 44" d="M16.891,17.825H15.558a.936.936,0,0,1-.933-.933V15.558a.936.936,0,0,1,.933-.933h1.333a.936.936,0,0,1,.933.933v1.333A.936.936,0,0,1,16.891,17.825Z" transform="translate(-8.759 -10.892)"/>
      <g id="Group_1" data-name="Group 1" transform="translate(0 0)">
        <path id="Path_45" data-name="Path 45" d="M7.05,12.883v-1.6A1.859,1.859,0,0,1,7.789,9.8C7.583,8.883,4.383,6.75,3.317,6.75A1.07,1.07,0,0,0,2.25,7.817v8.532a1.068,1.068,0,0,0,1.067,1.067c1.067,0,4.266-2.133,4.473-3.046A1.859,1.859,0,0,1,7.05,12.883Z" transform="translate(-2.25 -6.75)"/>
        <path id="Path_46" data-name="Path 46" d="M26.537,6.75c-1.067,0-4.266,2.133-4.473,3.046a1.859,1.859,0,0,1,.74,1.487v1.6a1.859,1.859,0,0,1-.74,1.487c.207.913,3.406,3.046,4.473,3.046A1.068,1.068,0,0,0,27.6,16.349V7.817A1.07,1.07,0,0,0,26.537,6.75Z" transform="translate(-12.672 -6.75)"/>
      </g>
    </g>
    <path id="Icon_material-line-weight" data-name="Icon material-line-weight" d="M4.5,18.37H40.388v-.963H4.5Zm0,1.444H40.388v-.481H4.5Zm0-3.37H40.388V15H4.5Z" transform="translate(404.477 92.105)"/>
    <path id="Icon_material-line-weight-2" data-name="Icon material-line-weight" d="M0,3.37H35.888V2.407H0ZM0,4.814H35.888V4.333H0Zm0-3.37H35.888V0H0Z" transform="translate(444.864 125.037) rotate(180)"/>
    <text id="Maroon" transform="translate(421 127)" font-size="4" font-family="ImprintMT-Shadow, Imprint MT Shadow"><tspan x="1.354" y="4">Maroon</tspan></text>
    <path id="Path_47" data-name="Path 47" d="M2369.091-52.847c5.073,6.7,3.45,17.858,3.45,17.858" transform="translate(-1927.246 124.721)" fill="none" stroke="#fff" stroke-linecap="round" stroke-width="3"/>
  </g>
</svg>
