<svg xmlns="http://www.w3.org/2000/svg" xmlns:xlink="http://www.w3.org/1999/xlink" width="196" height="196" viewBox="0 0 196 196">
  <defs>
    <linearGradient id="linear-gradient" x1="-0.788" y1="0.983" x2="1.74" y2="0.906" gradientUnits="objectBoundingBox">
      <stop offset="0" stop-color="#fff"/>
      <stop offset="1" stop-color="gray"/>
    </linearGradient>
  </defs>
  <g id="zester" transform="matrix(0.788, 0.616, -0.616, 0.788, -518.454, -1061.122)">
    <rect id="Rectangle_25" data-name="Rectangle 25" width="196" height="196" rx="20" transform="translate(1061.84 516.983) rotate(-38)" fill="#fcad45"/>
    <path id="Exclusion_2" data-name="Exclusion 2" d="M18,107H0V0H18Zm-4.928-6.234a1.5,1.5,0,0,0-1.441,1.92h2.882a1.5,1.5,0,0,0-1.441-1.92Zm-6,0a1.5,1.5,0,0,0-1.44,1.92H8.512a1.5,1.5,0,0,0-1.441-1.92Zm3-5a1.5,1.5,0,1,0,1.5,1.5A1.5,1.5,0,0,0,10.072,95.766Zm-6,0a1.5,1.5,0,1,0,1.5,1.5A1.5,1.5,0,0,0,4.072,95.766Zm11.357.144a1.5,1.5,0,0,0,0,2.712Zm-2.357-6.144a1.5,1.5,0,1,0,1.5,1.5A1.5,1.5,0,0,0,13.072,89.766Zm-6,0a1.5,1.5,0,1,0,1.5,1.5A1.5,1.5,0,0,0,7.071,89.766Zm3-5a1.5,1.5,0,1,0,1.5,1.5A1.5,1.5,0,0,0,10.072,84.767Zm-6,0a1.5,1.5,0,1,0,1.5,1.5A1.5,1.5,0,0,0,4.072,84.767Zm11.357.144a1.5,1.5,0,0,0,0,2.712Zm-2.357-6.145a1.5,1.5,0,1,0,1.5,1.5A1.5,1.5,0,0,0,13.072,78.765Zm-6,0a1.5,1.5,0,1,0,1.5,1.5A1.5,1.5,0,0,0,7.071,78.765Zm3-5a1.5,1.5,0,1,0,1.5,1.5A1.5,1.5,0,0,0,10.072,73.766Zm-6,0a1.5,1.5,0,1,0,1.5,1.5A1.5,1.5,0,0,0,4.072,73.766Zm11.357.144a1.5,1.5,0,0,0,0,2.712Zm-2.357-6.144a1.5,1.5,0,1,0,1.5,1.5A1.5,1.5,0,0,0,13.072,67.766Zm-6,0a1.5,1.5,0,1,0,1.5,1.5A1.5,1.5,0,0,0,7.071,67.766Zm3-5a1.5,1.5,0,1,0,1.5,1.5A1.5,1.5,0,0,0,10.072,62.766Zm-6,0a1.5,1.5,0,1,0,1.5,1.5A1.5,1.5,0,0,0,4.072,62.766Zm11.357.144a1.5,1.5,0,0,0,0,2.712Zm-2.357-6.144a1.5,1.5,0,1,0,1.5,1.5A1.5,1.5,0,0,0,13.072,56.766Zm-6,0a1.5,1.5,0,1,0,1.5,1.5A1.5,1.5,0,0,0,7.071,56.766Zm3-5a1.5,1.5,0,1,0,1.5,1.5A1.5,1.5,0,0,0,10.072,51.766Zm-6,0a1.5,1.5,0,1,0,1.5,1.5A1.5,1.5,0,0,0,4.072,51.766Zm11.357.144a1.5,1.5,0,0,0,0,2.712Zm-2.357-6.144a1.5,1.5,0,1,0,1.5,1.5A1.5,1.5,0,0,0,13.072,45.766Zm-6,0a1.5,1.5,0,1,0,1.5,1.5A1.5,1.5,0,0,0,7.071,45.766Zm3-5a1.5,1.5,0,1,0,1.5,1.5A1.5,1.5,0,0,0,10.072,40.766Zm-6,0a1.5,1.5,0,1,0,1.5,1.5A1.5,1.5,0,0,0,4.072,40.766Zm11.357.144a1.5,1.5,0,0,0,0,2.712Zm-2.357-6.144a1.5,1.5,0,1,0,1.5,1.5A1.5,1.5,0,0,0,13.072,34.766Zm-6,0a1.5,1.5,0,1,0,1.5,1.5A1.5,1.5,0,0,0,7.071,34.766Zm3-5a1.5,1.5,0,1,0,1.5,1.5A1.5,1.5,0,0,0,10.072,29.767Zm-6,0a1.5,1.5,0,1,0,1.5,1.5A1.5,1.5,0,0,0,4.072,29.767Zm11.357.144a1.5,1.5,0,0,0,0,2.712Zm-2.357-6.145a1.5,1.5,0,1,0,1.5,1.5A1.5,1.5,0,0,0,13.072,23.765Zm-6,0a1.5,1.5,0,1,0,1.5,1.5A1.5,1.5,0,0,0,7.071,23.765Zm3-5a1.5,1.5,0,1,0,1.5,1.5A1.5,1.5,0,0,0,10.072,18.766Zm-6,0a1.5,1.5,0,1,0,1.5,1.5A1.5,1.5,0,0,0,4.072,18.766Zm11.357.144a1.5,1.5,0,0,0,0,2.712Zm-2.357-6.144a1.5,1.5,0,1,0,1.5,1.5A1.5,1.5,0,0,0,13.072,12.766Zm-6,0a1.5,1.5,0,1,0,1.5,1.5A1.5,1.5,0,0,0,7.071,12.766Zm3-5a1.5,1.5,0,1,0,1.5,1.5A1.5,1.5,0,0,0,10.072,7.766Zm-6,0a1.5,1.5,0,1,0,1.5,1.5A1.5,1.5,0,0,0,4.072,7.766Zm11.357.144a1.5,1.5,0,0,0,0,2.712Z" transform="translate(1190.214 508.407)" fill="url(#linear-gradient)"/>
    <path id="Exclusion_3" data-name="Exclusion 3" d="M21.636,57.178H0a79.1,79.1,0,0,0,2.447-8.249,81.721,81.721,0,0,0,2.448-18.8A62.891,62.891,0,0,0,3.418,16.079c-.695-3.416-1.2-5.884-.267-9.661C4.578.625,8.321,0,9.864,0a4.069,4.069,0,0,1,.6.037A3.431,3.431,0,0,1,11.009,0c1.427,0,4.92.625,6.531,6.418,1.05,3.777.483,6.244-.3,9.66a55.959,55.959,0,0,0-1.67,14.054,66.973,66.973,0,0,0,3.034,18.8,68.274,68.274,0,0,0,3.034,8.248ZM10.385,2.653c-1.909,0-3.462,2.524-3.462,5.625S8.476,13.9,10.385,13.9s3.462-2.524,3.462-5.625S12.294,2.653,10.385,2.653Z" transform="translate(1188.214 455.238)" fill="#45f151"/>
  </g>
</svg>
