<svg xmlns="http://www.w3.org/2000/svg" width="259.018" height="505.849" viewBox="0 0 259.018 505.849">
  <defs>
  <style type="text/css">
  @font-face {
      font-family: CenturyGothic;
      src: url('../../fonts/GOTHIC.TTF');
    }
    </style>
</defs>
  <g id="grapefruit_juice" transform="translate(-524.982 -540)">
    <path id="mixer" d="M31.642,41.164,67.76,5.875h87.26l30.04,35.289v81c0,49.919,23.45,47.759,30.1,77.78s14.958,218.817,0,234.772-204.437,14.19-216.065,0-9.967-204.751,0-234.772,32.549-27.862,32.549-77.78Z" transform="translate(547 588.24)" fill="#e19174"/>
    <path id="bottle" d="M36.19,42.833,76.35,5.875h97.021l33.4,36.959v84.828c0,52.28,26.073,50.019,33.465,81.46s16.631,229.169,0,245.879S12.93,469.862,0,455-11.082,240.562,0,209.121s36.19-29.18,36.19-81.46Z" transform="translate(534 579)" fill="rgba(255,255,255,0.5)"/>
    <rect id="cap" width="107" height="44" transform="translate(604 540)" fill="#fff"/>
    <g id="label">
      <path id="Exclusion_5" data-name="Exclusion 5" d="M101.5-976a79.163,79.163,0,0,1-20.825-2.711A60.841,60.841,0,0,1,63.67-986.1,38.26,38.26,0,0,1,52.2-997.071,24.225,24.225,0,0,1,48-1010.5a24.224,24.224,0,0,1,4.2-13.429A38.259,38.259,0,0,1,63.67-1034.9a60.845,60.845,0,0,1,17.006-7.394A79.17,79.17,0,0,1,101.5-1045a79.169,79.169,0,0,1,20.824,2.711,60.843,60.843,0,0,1,17.005,7.394,38.259,38.259,0,0,1,11.465,10.966A24.225,24.225,0,0,1,155-1010.5a24.226,24.226,0,0,1-4.2,13.429A38.259,38.259,0,0,1,139.33-986.1a60.839,60.839,0,0,1-17.005,7.394A79.161,79.161,0,0,1,101.5-976Zm-14.765-52.072H97.5v39.034A4.043,4.043,0,0,0,101.542-985H118.59a4.043,4.043,0,0,0,4.038-4.038v-17.5h12.562a1.8,1.8,0,0,0,1.795-1.795v-3.589a1.8,1.8,0,0,0-1.795-1.795h-15.7a4.042,4.042,0,0,0-4.037,4.037v17.5H104.683v-39.033a4.043,4.043,0,0,0-4.038-4.038H83.595a4.042,4.042,0,0,0-4.037,4.038v17.5H67a1.8,1.8,0,0,0-1.8,1.795v3.589a1.8,1.8,0,0,0,1.8,1.795H82.7a4.043,4.043,0,0,0,4.038-4.038v-17.5Z" transform="translate(556 1747)" fill="#0e05ff"/>
      <rect id="Rectangle_47" data-name="Rectangle 47" width="259" height="152" transform="translate(525 832)" fill="#fff"/>
      <path id="Icon_weather-lightning" data-name="Icon weather-lightning" d="M9.552,111.561h2.119L49.053,54.384q.734-1.516-.815-1.516H32.807L49.053,22.257c.489-1.011.109-1.516-1.087-1.516h-20.7a1.964,1.964,0,0,0-1.576,1.011L10.584,63.314c-.109,1.011.217,1.516,1.032,1.516H26.559ZM55.737,76.008H57.2L85.567,32.928a1.314,1.314,0,0,0,.217-1.123c-.109-.281-.435-.393-.924-.393H73.45L85.295,8.777q.978-1.685-.978-1.685H69.429A1.748,1.748,0,0,0,67.8,8.159L56.5,38.938a1.246,1.246,0,0,0,.054,1.179,1.189,1.189,0,0,0,1.032.393H68.668Z" transform="translate(686.033 848.748)" fill="#db9057"/>
      <text id="GrapeFruit_Juice-2" data-name="GrapeFruit
Juice" transform="translate(619 901)" font-size="30" font-family="CenturyGothic, Century Gothic"><tspan x="-76.809" y="0">GrapeFruit</tspan><tspan x="-38.804" y="37">Juice</tspan></text>
    </g>
  </g>
</svg>
