<svg xmlns="http://www.w3.org/2000/svg" xmlns:xlink="http://www.w3.org/1999/xlink" width="190" height="384.718" viewBox="0 0 190 384.718">
  <defs>
  <style type="text/css">
  @font-face {
      font-family: CooperBlack;
      src: url('../../fonts/Cooper Black Regular.ttf');
    }
    </style>
    <linearGradient id="linear-gradient" x1="1" y1="0.557" x2="0" y2="0.562" gradientUnits="objectBoundingBox">
      <stop offset="0" stop-color="#36ad24"/>
      <stop offset="0.114" stop-color="#3ce8d0"/>
      <stop offset="0.509" stop-color="#caefea"/>
      <stop offset="0.91" stop-color="#3ce8d0"/>
      <stop offset="1" stop-color="#36ad24"/>
    </linearGradient>
    <radialGradient id="radial-gradient" cx="0.5" cy="0.5" r="0.5" gradientUnits="objectBoundingBox">
      <stop offset="0" stop-color="#fff"/>
      <stop offset="1" stop-color="#b3a7a7"/>
    </radialGradient>
    <linearGradient id="linear-gradient-2" x1="0.5" x2="0.5" y2="1" gradientUnits="objectBoundingBox">
      <stop offset="0" stop-color="#ffeb34"/>
      <stop offset="1" stop-color="#80761a"/>
    </linearGradient>
    <clipPath id="clip-path">
      <rect width="101.359" height="81.359" fill="none"/>
    </clipPath>
    <linearGradient id="linear-gradient-3" x1="1" x2="-0.102" y2="1.1" gradientUnits="objectBoundingBox">
      <stop offset="0" stop-color="#ffed00"/>
      <stop offset="1" stop-color="#a77a10"/>
    </linearGradient>
  </defs>
  <g id="pineapple_juice" transform="translate(-551 -71)">
    <rect id="mixer" width="177" height="272" transform="translate(556 148)" fill="rgba(255,233,80,0.86)"/>
    <path id="bottle" d="M48-718v-327H238v327c0,15.464-42.532,28-95,28S48-702.536,48-718Z" transform="translate(503 1144)" fill="url(#linear-gradient)"/>
    <ellipse id="cap" cx="95" cy="28" rx="95" ry="28" transform="translate(551 71)" fill="url(#radial-gradient)"/>
    <g id="label">
      <path id="Path_77" data-name="Path 77" d="M108.629,36.1S118,65.873,118,80.5c0,27.742-13.92,54.634-29.794,69.314-9.208,8.517-50.284,7.165-59.227,0C11.717,135.986,0,110.11,0,80.5,0,64.673,11.139,32.692,11.139,32.692Z" transform="matrix(0.999, -0.035, 0.035, 0.999, 584.319, 300.107)" fill="#a77a10"/>
      <ellipse id="Ellipse_30" data-name="Ellipse 30" cx="48" cy="26.5" rx="48" ry="26.5" transform="translate(598 307)" fill="#ffeb34"/>
      <ellipse id="Ellipse_31" data-name="Ellipse 31" cx="40.5" cy="22.5" rx="40.5" ry="22.5" transform="translate(606 311)" fill="url(#linear-gradient-2)"/>
      <text id="Pineapple_Juice-2" data-name="Pineapple
Juice" transform="translate(566 161)" fill="red" font-size="30" font-family="CooperBlack, Cooper"><tspan x="5.473" y="28">Pineapple</tspan><tspan x="40.233" y="63">Juice</tspan></text>
      <line id="Line_5" data-name="Line 5" x2="31" y2="74" transform="translate(592.5 276.5)" fill="none" stroke="#0f1" stroke-linecap="round" stroke-width="5"/>
      <g id="Repeat_Grid_10" data-name="Repeat Grid 10" transform="translate(592.32 360.32)" clip-path="url(#clip-path)">
        <g transform="translate(-591.32 -354.32)">
          <rect id="Rectangle_49" data-name="Rectangle 49" width="18" height="18" rx="5" transform="matrix(0.766, -0.643, 0.643, 0.766, 591.32, 365.891)" fill="url(#linear-gradient-3)"/>
          <rect id="Rectangle_50" data-name="Rectangle 50" width="18" height="18" rx="5" transform="matrix(0.766, -0.643, 0.643, 0.766, 606.32, 385.891)" fill="url(#linear-gradient-3)"/>
        </g>
        <g transform="translate(-563.32 -354.32)">
          <rect id="Rectangle_49-2" data-name="Rectangle 49" width="18" height="18" rx="5" transform="matrix(0.766, -0.643, 0.643, 0.766, 591.32, 365.891)" fill="url(#linear-gradient-3)"/>
          <rect id="Rectangle_50-2" data-name="Rectangle 50" width="18" height="18" rx="5" transform="matrix(0.766, -0.643, 0.643, 0.766, 606.32, 385.891)" fill="url(#linear-gradient-3)"/>
        </g>
        <g transform="translate(-535.32 -354.32)">
          <rect id="Rectangle_49-3" data-name="Rectangle 49" width="18" height="18" rx="5" transform="matrix(0.766, -0.643, 0.643, 0.766, 591.32, 365.891)" fill="url(#linear-gradient-3)"/>
          <rect id="Rectangle_50-3" data-name="Rectangle 50" width="18" height="18" rx="5" transform="matrix(0.766, -0.643, 0.643, 0.766, 606.32, 385.891)" fill="url(#linear-gradient-3)"/>
        </g>
        <g transform="translate(-507.32 -354.32)">
          <rect id="Rectangle_49-4" data-name="Rectangle 49" width="18" height="18" rx="5" transform="matrix(0.766, -0.643, 0.643, 0.766, 591.32, 365.891)" fill="url(#linear-gradient-3)"/>
          <rect id="Rectangle_50-4" data-name="Rectangle 50" width="18" height="18" rx="5" transform="matrix(0.766, -0.643, 0.643, 0.766, 606.32, 385.891)" fill="url(#linear-gradient-3)"/>
        </g>
        <g transform="translate(-591.32 -313.32)">
          <rect id="Rectangle_49-5" data-name="Rectangle 49" width="18" height="18" rx="5" transform="matrix(0.766, -0.643, 0.643, 0.766, 591.32, 365.891)" fill="url(#linear-gradient-3)"/>
          <rect id="Rectangle_50-5" data-name="Rectangle 50" width="18" height="18" rx="5" transform="matrix(0.766, -0.643, 0.643, 0.766, 606.32, 385.891)" fill="url(#linear-gradient-3)"/>
        </g>
        <g transform="translate(-563.32 -313.32)">
          <rect id="Rectangle_49-6" data-name="Rectangle 49" width="18" height="18" rx="5" transform="matrix(0.766, -0.643, 0.643, 0.766, 591.32, 365.891)" fill="url(#linear-gradient-3)"/>
          <rect id="Rectangle_50-6" data-name="Rectangle 50" width="18" height="18" rx="5" transform="matrix(0.766, -0.643, 0.643, 0.766, 606.32, 385.891)" fill="url(#linear-gradient-3)"/>
        </g>
        <g transform="translate(-535.32 -313.32)">
          <rect id="Rectangle_49-7" data-name="Rectangle 49" width="18" height="18" rx="5" transform="matrix(0.766, -0.643, 0.643, 0.766, 591.32, 365.891)" fill="url(#linear-gradient-3)"/>
          <rect id="Rectangle_50-7" data-name="Rectangle 50" width="18" height="18" rx="5" transform="matrix(0.766, -0.643, 0.643, 0.766, 606.32, 385.891)" fill="url(#linear-gradient-3)"/>
        </g>
        <g transform="translate(-507.32 -313.32)">
          <rect id="Rectangle_49-8" data-name="Rectangle 49" width="18" height="18" rx="5" transform="matrix(0.766, -0.643, 0.643, 0.766, 591.32, 365.891)" fill="url(#linear-gradient-3)"/>
          <rect id="Rectangle_50-8" data-name="Rectangle 50" width="18" height="18" rx="5" transform="matrix(0.766, -0.643, 0.643, 0.766, 606.32, 385.891)" fill="url(#linear-gradient-3)"/>
        </g>
      </g>
    </g>
  </g>
</svg>
