<?xml version="1.0" encoding="iso-8859-1"?>
<!-- Generator: Adobe Illustrator 19.0.0, SVG Export Plug-In . SVG Version: 6.00 Build 0)  -->
<svg version="1.1" id="Layer_1" xmlns="http://www.w3.org/2000/svg" xmlns:xlink="http://www.w3.org/1999/xlink" x="0px" y="0px"
	 viewBox="0 0 512 512" style="enable-background:new 0 0 512 512;" xml:space="preserve">
<circle style="fill:#00F8FE;" cx="256" cy="256" r="256"/>
<path style="fill:#00D9E0;" d="M511.986,257.14L313.064,58.218C298.76,41.776,278.096,32,256,32
	c-40.761,0-76.696,33.215-76.696,80.319s39.403,79.715,39.403,135.879v44.461H87.987c-13.837,0-25.158,11.321-25.158,25.158v74.735
	l99.002,101.568C190.979,505.657,222.748,512,256,512C397.004,512,511.37,397.999,511.986,257.14z"/>
<path style="fill:#005FD2;" d="M256,32c-40.761,0-76.696,33.215-76.696,80.319c0,47.105,39.403,79.715,39.403,135.878v48.797h74.585
	v-48.797c0-56.163,39.403-88.774,39.403-135.878C332.696,65.215,296.761,32,256,32z"/>
<path style="fill:#003D8D;" d="M332.7,112.32c0,47.1-39.41,79.71-39.41,135.88V297H256V32C296.76,32,332.7,65.21,332.7,112.32z"/>
<rect x="89.47" y="384.04" style="fill:#FFFFFF;" width="333.06" height="39.957"/>
<rect x="256" y="384.04" style="fill:#FFDBA9;" width="166.53" height="39.96"/>
<path style="fill:#FFAA20;" d="M449.171,317.817c0-13.837-11.321-25.158-25.158-25.158H87.987
	c-13.837,0-25.158,11.321-25.158,25.158v74.735h386.342L449.171,317.817L449.171,317.817z"/>
<path style="fill:#FF4F19;" d="M449.17,317.82v74.73H256v-99.89h168.01C437.85,292.66,449.17,303.98,449.17,317.82z"/>
<g>
</g>
<g>
</g>
<g>
</g>
<g>
</g>
<g>
</g>
<g>
</g>
<g>
</g>
<g>
</g>
<g>
</g>
<g>
</g>
<g>
</g>
<g>
</g>
<g>
</g>
<g>
</g>
<g>
</g>
</svg>
