<svg xmlns="http://www.w3.org/2000/svg" xmlns:xlink="http://www.w3.org/1999/xlink" width="356" height="887" viewBox="0 0 356 887">
  <defs>
    <clipPath id="clip-path">
      <rect id="Rectangle_40" data-name="Rectangle 40" width="356" height="887" transform="translate(1493 145)" fill="#fff" stroke="#707070" stroke-width="1"/>
    </clipPath>
  </defs>
  <g id="Mask_Group_3" data-name="Mask Group 3" transform="translate(-1493 -145)" clip-path="url(#clip-path)">
    <g id="bottle" transform="translate(1227.5 145)">
      <path id="Path_7" data-name="Path 7" d="M556.427,406.14c-7.444-16.2-19.325-32.073-23.795-38.047-.559-.748-.966-1.285-1.19-1.6q-.175-.255-.539-.757A92.612,92.612,0,0,1,513.509,311.9c0-33.714-2.626-96.4-6.871-138.873-1.775-17.856-3.506-35.612-4.9-49.877-1.341-13.739-2.1-21.53-2.58-26.078,2.894-3.808,5.2-7.743,5.2-12.45,0-2.288-.6-5.666-4-22.593-.321-1.591-.675-3.349-1.021-5.088a11.618,11.618,0,0,0,3.4-3.982c2.663-5.147,2.806-24.372-1.733-34.208C495.676,7.186,483.813,0,470.034,0H416.959C403.17,0,391.3,7.188,385.993,18.751,381.448,28.632,381.623,47.863,384.3,53a11.644,11.644,0,0,0,3.366,3.938c-.34,1.7-.687,3.422-1,4.983-3.433,17.016-4.036,20.413-4.036,22.708,0,4.732,2.307,8.669,5.212,12.473-.442,4.233-1.13,11.274-2.3,23.309-1.433,14.694-3.278,33.6-5.176,52.624-4.242,42.654-6.867,105.3-6.867,138.873a92.643,92.643,0,0,1-17.383,53.836c-.241.333-.421.585-.547.767-.212.3-.622.844-1.182,1.593-4.47,5.972-16.346,21.84-23.8,38.035-8.776,19.07-7.71,45.43-7.515,49.1.029,11.67.757,321.838.761,340.6-1.088,45.1,5.025,67.667,21.082,77.786C363.926,886.032,425.149,887,443.5,887s79.586-.966,98.593-13.378c16.059-10.126,22.167-32.685,21.063-77.784,0-19.613.748-328.888.777-340.6C564.128,451.558,565.2,425.189,556.427,406.14ZM541,454.158c-.015.237-.025.472-.025.71-.008,3.225-.777,322.607-.777,341.109,0,.1,0,.191,0,.283,1.039,41.9-5.08,54.649-10.4,57.97-.088.055-.176.113-.264.17-7.054,4.675-39.605,9.646-86.045,9.646s-78.993-4.971-86.045-9.646c-.088-.057-.176-.115-.266-.17-5.314-3.317-11.433-16.065-10.409-57.974,0-.094,0-.187,0-.279,0-17.557-.756-337.874-.761-341.109,0-.235-.008-.471-.025-.7-.415-6.5-.251-26.078,5.436-38.431,6.438-13.988,17.259-28.439,21.329-33.881.874-1.169,1.48-1.991,1.706-2.322l.243-.339a115.806,115.806,0,0,0,21.74-67.291c0-33.031,2.582-94.649,6.754-136.6,1.9-19.036,3.745-37.962,5.18-52.67,1.28-13.1,2.391-24.508,2.663-26.9.968-5.251-2.093-9.007-3.632-10.9-.346-.423-.953-1.167-1.482-1.871.7-3.919,2.179-11.264,3.236-16.511,3.845-19.062,3.845-19.062,2.531-22.548a11.472,11.472,0,0,0-6.295-6.534c.14-3.489.572-7.131,1.446-9.036,1.825-3.973,6.588-5.382,10.111-5.382h53.075c3.688,0,8.278,1.415,10.111,5.4.872,1.89,1.3,5.53,1.446,9.022a11.472,11.472,0,0,0-6.249,6.444c-1.358,3.521-1.358,3.521,2.508,22.737,1.048,5.214,2.515,12.506,3.21,16.406-.53.7-1.136,1.454-1.479,1.876-1.54,1.905-4.587,5.675-3.613,10.912.289,2.569,1.517,15.164,2.928,29.627,1.394,14.277,3.127,32.048,4.9,49.925,4.176,41.778,6.758,103.432,6.758,136.6a115.781,115.781,0,0,0,21.756,67.291l.193.264c.275.4.88,1.226,1.754,2.395,4.072,5.44,14.889,19.887,21.318,33.884C541.221,427.991,541.4,447.635,541,454.158Z" fill="#fff"/>
      <path id="Path_8" data-name="Path 8" d="M371.225,462.576a11.484,11.484,0,0,0,10.742-12.157c-.249-4.122-.142-16.457,3.3-23.936,4.141-9,11.211-18.443,13.873-22,.643-.857,1.083-1.461,1.285-1.756A11.477,11.477,0,1,0,381.5,389.738c-.145.2-.4.539-.736.991-3.06,4.089-11.188,14.948-16.346,26.157-6.482,14.082-5.49,32.88-5.356,34.978A11.464,11.464,0,0,0,370.5,462.6C370.743,462.6,370.984,462.591,371.225,462.576Z" fill="#fff"/>
      <path id="Path_9" data-name="Path 9" d="M526.293,784.188c0-1.3-.036-4.418-.092-9.147-.172-14.491-.526-44.646-.526-83.88A11.478,11.478,0,0,0,514.2,679.685H375.687a11.477,11.477,0,0,0-11.477,11.477c0,39.234-.356,69.387-.526,83.88-.056,4.728-.092,7.848-.092,9.147v2.418c-.006,38.544-.008,52.966,13.016,57.01,9.2,2.856,38.915,4.3,62.689,4.426h11.354c23.71-.13,53.423-1.57,62.627-4.426,13.022-4.042,13.02-18.464,13.014-57.01v-2.418Z" fill="maroon"/>
    </g>
  </g>
</svg>
