<svg xmlns="http://www.w3.org/2000/svg" xmlns:xlink="http://www.w3.org/1999/xlink" width="112" height="357" viewBox="0 0 112 357">
  <defs>
  <style type="text/css">
  @font-face {
      font-family: MVBoli;
      src: url('../../fonts/mvboli.ttf');
    }
    </style>
    <linearGradient id="linear-gradient" x1="0.5" x2="0.5" y2="1" gradientUnits="objectBoundingBox">
      <stop offset="0" stop-color="#0b1ad9"/>
      <stop offset="1" stop-color="#06136d"/>
    </linearGradient>
    <linearGradient id="linear-gradient-2" x1="0.5" x2="0.5" y2="1" gradientUnits="objectBoundingBox">
      <stop offset="0" stop-color="#003cff"/>
      <stop offset="1" stop-color="#182e73"/>
    </linearGradient>
  </defs>
  <g id="blueberry_syrup" transform="translate(-126 -19)">
    <path id="syrup" d="M21.541,8.119H69.519s-5.729,4.782-5.729,79.6C63.791,103.278,94.2,137.6,94.2,137.6l6.109,162.086H-5.671L.179,137.6S28.7,103.908,28.7,87.723C28.7,12.9,21.541,8.119,21.541,8.119Z" transform="translate(135 69.309)" fill="#675ee3"/>
    <path id="bottle" d="M23.379,8.119c0-10.025,7.877-15.379,7.877-15.379V-14.8H79.235V-7.26s7.877,6.07,8.593,15.379S79.235,13.152,79.235,91.9c0,17.152,32.765,55.873,32.765,55.873V315H0V147.776S31.257,110.061,31.257,91.9C31.257,13.152,23.379,18.144,23.379,8.119Z" transform="translate(126 61)" fill="rgba(255,255,255,0.3)"/>
    <rect id="cap" width="56" height="27" transform="translate(154 19)" fill="url(#linear-gradient)"/>
    <g id="label" transform="translate(3 -4)">
      <rect id="Rectangle_45" data-name="Rectangle 45" width="105" height="117" transform="translate(126 235)" fill="url(#linear-gradient-2)"/>
      <text id="Blueberry_Syrup-2" data-name="Blueberry
Syrup" transform="translate(136 239)" fill="#fff" font-size="15" font-family="MVBoli, MV Boli"><tspan x="8.653" y="17">Blueberry</tspan><tspan x="20.869" y="37">Syrup</tspan></text>
      <g id="Path_68" data-name="Path 68" transform="translate(134.049 287.569)" fill="#c07400">
        <path d="M 44.69601440429688 63.94798278808594 C 38.89202499389648 63.94798278808594 34.25633239746094 63.08089065551758 30.10723304748535 61.21921157836914 C 26.14961433410645 59.44344329833984 22.99630355834961 56.93112182617188 19.84841346740723 54.29606246948242 C 14.12532329559326 49.50896072387695 7.002933502197266 43.5513916015625 7.002933502197266 34.55805206298828 C 7.002933502197266 29.85440063476563 7.845873355865479 25.39189147949219 9.508343696594238 21.29448127746582 C 11.18139362335205 17.1710205078125 13.63842391967773 13.53324127197266 16.81118392944336 10.48222160339355 C 23.60219383239746 3.951801300048828 33.24460220336914 0.5000013709068298 44.69601440429688 0.5000013709068298 C 56.0916633605957 0.5000013709068298 65.58625030517578 3.949801445007324 72.1533203125 10.47646141052246 C 75.20982360839844 13.51415157318115 77.57028198242188 17.15127182006836 79.16914367675781 21.28680229187012 C 80.74620056152344 25.36594200134277 81.54584503173828 29.83104133605957 81.54584503173828 34.55805206298828 C 81.54584503173828 42.99954223632813 75.25722503662109 48.82479095458984 69.70888519287109 53.96430206298828 L 69.33277130126953 54.31280136108398 C 66.16649627685547 57.2507209777832 63.29990386962891 59.54924011230469 59.6009521484375 61.21804046630859 C 55.47269439697266 63.08052062988281 50.73654174804688 63.94798278808594 44.69601440429688 63.94798278808594 Z" stroke="none"/>
        <path d="M 44.69600677490234 1.000003814697266 C 33.37636184692383 1.000003814697266 23.85378265380859 4.403526306152344 17.15775299072266 10.84262466430664 C 14.03589630126953 13.84469223022461 11.61814880371094 17.42444610595703 9.971664428710938 21.48246765136719 C 8.333526611328125 25.51988983154297 7.5029296875 29.91915893554688 7.5029296875 34.55805969238281 C 7.5029296875 38.42229080200195 8.848480224609375 42.04241180419922 11.61649322509766 45.62530517578125 C 14.09120941162109 48.82854461669922 17.32019805908203 51.52945709228516 20.16937255859375 53.91265869140625 C 23.28927612304688 56.5243034362793 26.41262817382813 59.01342391967773 30.31191635131836 60.76302337646484 C 34.39439392089844 62.59481430053711 38.96503829956055 63.44797897338867 44.69600677490234 63.44797897338867 C 50.66315078735352 63.44797897338867 55.3339729309082 62.59458160400391 59.39532852172852 60.76227951049805 C 63.03242874145508 59.12137985229492 65.86238098144531 56.85081481933594 68.99284362792969 53.94613647460938 L 69.36911010742188 53.59749221801758 C 74.84233856201172 48.52754592895508 81.04583740234375 42.78114700317383 81.04583740234375 34.55805969238281 C 81.04583740234375 29.89294815063477 80.25751495361328 25.4885139465332 78.70278167724609 21.46710205078125 C 77.12939453125 17.39745712280273 74.8072509765625 13.81899261474609 71.80085754394531 10.83110427856445 C 65.3294677734375 4.399547576904297 55.95676040649414 1.000003814697266 44.69600677490234 1.000003814697266 M 44.69600677490234 0 C 69.05562591552734 0 82.04583740234375 15.47216796875 82.04583740234375 34.55805969238281 C 82.04583740234375 43.41385650634766 75.31436157226563 49.44898223876953 69.67271423339844 54.67945861816406 C 63.60845184326172 60.30634689331055 57.75283050537109 64.44798278808594 44.69600677490234 64.44798278808594 C 32.07780456542969 64.44798278808594 26.25448226928711 60.31058120727539 19.52748107910156 54.67945861816406 C 13.68731689453125 49.79442596435547 6.5029296875 43.75751495361328 6.5029296875 34.55805969238281 C 6.5029296875 15.47216796875 20.33639526367188 0 44.69600677490234 0 Z" stroke="none" fill="#ffe59d"/>
      </g>
      <circle id="Ellipse_22" data-name="Ellipse 22" cx="7" cy="7" r="7" transform="translate(164 305)" fill="#344ae8"/>
      <circle id="Ellipse_23" data-name="Ellipse 23" cx="7.5" cy="7.5" r="7.5" transform="translate(177 308)" fill="#344ae8"/>
    </g>
  </g>
</svg>
