<svg xmlns="http://www.w3.org/2000/svg" xmlns:xlink="http://www.w3.org/1999/xlink" width="106.447" height="350.532" viewBox="0 0 106.447 350.532">
  <defs>
    <linearGradient id="linear-gradient" x1="0.5" x2="0.5" y2="1" gradientUnits="objectBoundingBox">
      <stop offset="0" stop-color="red"/>
      <stop offset="1" stop-color="#972222"/>
    </linearGradient>
  </defs>
  <g id="cherry_syrup" transform="translate(-218.523 -21.468)">
    <path id="bottle" d="M44.174-.766H86.592V109.288s28.515,10.325,31.19,29.36,0,205.23,0,205.23-25.5,5.873-51.39,5.873-52.16-5.873-52.16-5.873-3.845-185.192,0-205.23,29.942-29.36,29.942-29.36Z" transform="translate(206 22.249)" fill="rgba(255,255,255,0.25)"/>
    <path id="cap" d="M0,0H47.251V67.9s-11.444,4.173-23.256,4.173S0,67.9,0,67.9Z" transform="translate(248.397 21.468)"/>
    <path id="syrup" d="M79.278,71.85C90.9,72.487,104.909,86.741,106.7,93.7s.474,197.394.474,197.394-24.813,7.042-47.291,7.042S12,291.1,12,291.1,7.747,102.034,9.825,93.7,23.847,72.487,34.7,71.85,67.656,71.213,79.278,71.85Z" transform="translate(214.035 70.19)" fill="rgba(201,34,34,0.54)"/>
    <path id="reflection" d="M2209-43.234V94.108" transform="translate(-1900.838 253.242)" fill="none" stroke="#fff" stroke-linecap="round" stroke-width="3"/>
    <g id="label" transform="translate(-5.712 6.564)">
      <path id="Path_69" data-name="Path 69" d="M0,0H101.682V114.885H0Z" transform="translate(227 173)" fill="url(#linear-gradient)"/>
      <text id="CHERRY_SYRUP-2" data-name="CHERRY
SYRUP" transform="translate(231.712 186.436)" fill="#fff" font-size="15" font-family="Modern-Regular, "Modern No. 20"" letter-spacing="0.015em"><tspan x="14.23" y="12">CHERRY</tspan><tspan x="20.86" y="28">SYRUP</tspan></text>
      <text id="_Maroon" data-name=" Maroon" transform="translate(253.712 267.436)" fill="#fff" font-size="10" font-family="Modern-Regular, "Modern No. 20""><tspan x="5.045" y="8" xml:space="preserve"> Maroon</tspan></text>
      <path id="Icon_awesome-apple-alt" data-name="Icon awesome-apple-alt" d="M24.669,9.07a6.889,6.889,0,0,1,4.494,2.953,13.178,13.178,0,0,1,2.107,5.484,17.487,17.487,0,0,1-.07,6.047,19,19,0,0,1-3.371,8.367A9.108,9.108,0,0,1,20.244,36a5.332,5.332,0,0,1-2.458-.7,3.969,3.969,0,0,0-4.074,0,5.332,5.332,0,0,1-2.458.7A9.108,9.108,0,0,1,3.67,31.922,19,19,0,0,1,.3,23.555a17.487,17.487,0,0,1-.07-6.047,13.178,13.178,0,0,1,2.107-5.484A6.889,6.889,0,0,1,6.829,9.07a11.732,11.732,0,0,1,4.635.492,19.469,19.469,0,0,1,4.284,1.688,19.469,19.469,0,0,1,4.284-1.687,11.74,11.74,0,0,1,4.636-.492Z" transform="translate(260.001 222.442)" fill="#ff6565"/>
      <path id="Path_70" data-name="Path 70" d="M0,16A17.765,17.765,0,0,1,0,7.369C1.25,3.369,5,0,5,0" transform="translate(275.212 217.936)" fill="none" stroke="#707070" stroke-width="1"/>
    </g>
  </g>
</svg>
