<svg xmlns="http://www.w3.org/2000/svg" width="167.255" height="357" viewBox="0 0 167.255 357">
  <g id="chocolate_syrup" transform="translate(-100.303 -19)">
    <path id="syrup" d="M63.791,87.723s46.8,17.968,57.968,94.3-21.448,117.664-21.448,117.664H-5.671s-25.243-40.4-15-117.664S28.7,87.723,28.7,87.723Z" transform="translate(135 69.309)" fill="#6c4d25"/>
    <path id="bottle" d="M23.379,8.119c0-10.025,7.877-15.379,7.877-15.379V-14.8H79.235V-7.26s7.877,6.07,8.593,15.379-10.2-29.727-10.2,49.023c0,35.437,53.135,59.651,62.444,133.194S112,315,112,315H0s-34.016-49.259-23.775-124.664S29.646,92.265,29.646,57.143C29.646-21.607,23.379,18.144,23.379,8.119Z" transform="translate(126 61)" fill="#5c361b"/>
    <rect id="cap" width="56" height="27" transform="translate(154 19)" fill="#5c361b"/>
    <g id="label" transform="translate(-14 -45.621)">
      <g id="Ellipse_24" data-name="Ellipse 24" transform="translate(131 222.621)" fill="#ddd" stroke="red" stroke-width="5">
        <ellipse cx="68.5" cy="91" rx="68.5" ry="91" stroke="none"/>
        <ellipse cx="68.5" cy="91" rx="66" ry="88.5" fill="none"/>
      </g>
      <g id="Subtraction_1" data-name="Subtraction 1" transform="translate(6036 659)" fill="#65271d">
        <path d="M -5780.93017578125 -297.6514587402344 C -5783.56201171875 -298.5552978515625 -5786.7587890625 -298.73779296875 -5790.31494140625 -298.9408569335938 C -5795.14111328125 -299.2164001464844 -5801.14697265625 -299.5592956542969 -5806.9658203125 -301.9784851074219 C -5808.65380859375 -302.6804809570313 -5811.23046875 -303.8487854003906 -5814.4931640625 -305.327880859375 C -5821.3701171875 -308.4457702636719 -5830.7880859375 -312.7158813476563 -5839.900390625 -316.2454833984375 C -5850.9677734375 -320.5326232910156 -5858.755859375 -322.6283569335938 -5863.703125 -322.6504821777344 C -5864.2373046875 -322.6823425292969 -5864.7783203125 -322.698486328125 -5865.31201171875 -322.698486328125 C -5878.3857421875 -322.698486328125 -5889.1064453125 -313.7126159667969 -5893.2021484375 -300.0979614257813 C -5895.677734375 -305.6508483886719 -5897.68701171875 -311.5422058105469 -5899.19873046875 -317.6893920898438 C -5901.38916015625 -326.5958862304688 -5902.5 -335.9121704101563 -5902.5 -345.3795776367188 C -5902.5 -357.4067077636719 -5900.728515625 -369.0689697265625 -5897.23486328125 -380.0422973632813 C -5893.87060546875 -390.609130859375 -5889.06103515625 -400.09033203125 -5882.939453125 -408.2225341796875 C -5879.93603515625 -412.212646484375 -5876.63525390625 -415.8310546875 -5873.12939453125 -418.9772338867188 C -5869.603515625 -422.1419372558594 -5865.83837890625 -424.857421875 -5861.9384765625 -427.0484619140625 C -5853.8720703125 -431.5810852050781 -5845.31298828125 -433.8793029785156 -5836.49951171875 -433.8793029785156 C -5827.68603515625 -433.8793029785156 -5819.12744140625 -431.5810852050781 -5811.06103515625 -427.0485534667969 C -5807.1611328125 -424.8574829101563 -5803.396484375 -422.1419677734375 -5799.87060546875 -418.9774475097656 C -5796.36376953125 -415.830322265625 -5793.06298828125 -412.2118835449219 -5790.060546875 -408.2225646972656 C -5783.93896484375 -400.09033203125 -5779.12939453125 -390.609130859375 -5775.76513671875 -380.0422668457031 C -5772.271484375 -369.069091796875 -5770.5 -357.4068603515625 -5770.5 -345.3795776367188 C -5770.5 -328.3434448242188 -5774.10009765625 -311.8994140625 -5780.93017578125 -297.6514587402344 Z" stroke="none"/>
        <path d="M -5782.31005859375 -300.6085815429688 C -5776.2080078125 -314.0805969238281 -5773 -329.4598083496094 -5773 -345.3795776367188 C -5773 -357.1491394042969 -5774.73193359375 -368.5561828613281 -5778.14697265625 -379.2837829589844 C -5781.42578125 -389.5816955566406 -5786.10595703125 -398.812255859375 -5792.0576171875 -406.7191162109375 C -5794.96337890625 -410.5792236328125 -5798.15380859375 -414.0775146484375 -5801.54052734375 -417.116943359375 C -5804.93017578125 -420.1592407226563 -5808.54541015625 -422.7673950195313 -5812.28564453125 -424.8691101074219 C -5819.9736328125 -429.1889343261719 -5828.1201171875 -431.3793029785156 -5836.49951171875 -431.3793029785156 C -5844.87890625 -431.3793029785156 -5853.02587890625 -429.1889343261719 -5860.7138671875 -424.8689575195313 C -5864.45458984375 -422.7673645019531 -5868.06982421875 -420.1592712402344 -5871.45947265625 -417.1165466308594 C -5874.845703125 -414.0782470703125 -5878.0361328125 -410.5800170898438 -5880.9423828125 -406.7190246582031 C -5886.89404296875 -398.8123474121094 -5891.57421875 -389.581787109375 -5894.85302734375 -379.2838745117188 C -5898.26806640625 -368.55615234375 -5900 -357.1491088867188 -5900 -345.3795776367188 C -5900 -336.1132202148438 -5898.91357421875 -326.997802734375 -5896.77099609375 -318.2863159179688 C -5895.8046875 -314.3560791015625 -5894.63037109375 -310.5336303710938 -5893.2568359375 -306.8426208496094 C -5887.78173828125 -318.0939636230469 -5877.4912109375 -325.198486328125 -5865.31201171875 -325.198486328125 C -5864.7509765625 -325.198486328125 -5864.18310546875 -325.1821594238281 -5863.62158203125 -325.1499938964844 C -5858.35986328125 -325.1068420410156 -5850.3017578125 -322.9554748535156 -5838.9970703125 -318.5766906738281 C -5829.81884765625 -315.0215454101563 -5820.3642578125 -310.7348022460938 -5813.4609375 -307.6047973632813 C -5810.2177734375 -306.1345825195313 -5807.65673828125 -304.9732971191406 -5806.00634765625 -304.2868957519531 C -5800.580078125 -302.0309753417969 -5795.05078125 -301.71533203125 -5790.17236328125 -301.4368286132813 C -5787.41796875 -301.2795104980469 -5784.74853515625 -301.1270751953125 -5782.31005859375 -300.6085815429688 M -5836.49951171875 -254.3783721923828 C -5839.48583984375 -254.3783721923828 -5842.49169921875 -254.6363677978516 -5845.43310546875 -255.1452331542969 C -5841.94482421875 -254.7196197509766 -5838.21826171875 -254.5117340087891 -5834.0390625 -254.5117340087891 C -5833.5751953125 -254.5117340087891 -5833.1103515625 -254.5142364501953 -5832.65771484375 -254.5191192626953 C -5833.939453125 -254.4250335693359 -5835.23193359375 -254.3783721923828 -5836.49951171875 -254.3783721923828 Z M -5892.21826171875 -292.4318237304688 L -5892.2197265625 -292.4346313476563 C -5896.29736328125 -299.9934997558594 -5899.4619140625 -308.2895812988281 -5901.62646484375 -317.0924377441406 C -5903.86474609375 -326.1930847167969 -5905 -335.7102661132813 -5905 -345.3795776367188 C -5905 -357.6644592285156 -5903.18896484375 -369.5818481445313 -5899.6171875 -380.8007202148438 C -5896.1669921875 -391.6372985839844 -5891.2275390625 -401.3691711425781 -5884.93701171875 -409.7260437011719 C -5881.8369140625 -413.8443908691406 -5878.42626953125 -417.5829467773438 -5874.798828125 -420.8379516601563 C -5871.1376953125 -424.1241760253906 -5867.22314453125 -426.9469909667969 -5863.1630859375 -429.2280578613281 C -5854.71826171875 -433.9732666015625 -5845.7470703125 -436.3793029785156 -5836.49951171875 -436.3793029785156 C -5827.251953125 -436.3793029785156 -5818.28125 -433.9732666015625 -5809.83642578125 -429.2280578613281 C -5805.77783203125 -426.9476928710938 -5801.86279296875 -424.1248779296875 -5798.20068359375 -420.8379516601563 C -5794.5732421875 -417.58251953125 -5791.16259765625 -413.8439331054688 -5788.06298828125 -409.7260437011719 C -5781.7724609375 -401.3691101074219 -5776.8330078125 -391.63720703125 -5773.3828125 -380.8007202148438 C -5769.81103515625 -369.5819091796875 -5768 -357.6644897460938 -5768 -345.3795776367188 C -5768 -327.0738830566406 -5772.07470703125 -309.422607421875 -5779.783203125 -294.3339538574219 C -5782.19580078125 -295.9731750488281 -5786.0244140625 -296.1918029785156 -5790.45751953125 -296.4449462890625 C -5795.47314453125 -296.7312927246094 -5801.71435546875 -297.087646484375 -5807.92578125 -299.6700134277344 C -5809.64794921875 -300.3863220214844 -5812.24169921875 -301.5621948242188 -5815.525390625 -303.0509643554688 C -5822.37744140625 -306.1576538085938 -5831.7578125 -310.4105529785156 -5840.80322265625 -313.9142456054688 C -5851.486328125 -318.0523986816406 -5859.2177734375 -320.1506652832031 -5863.7822265625 -320.1506652832031 C -5864.28955078125 -320.1824035644531 -5864.80419921875 -320.198486328125 -5865.31201171875 -320.198486328125 C -5879.31005859375 -320.198486328125 -5890.3740234375 -308.78173828125 -5892.2177734375 -292.4349975585938 L -5892.21826171875 -292.4318237304688 Z" stroke="none" fill="red"/>
      </g>
      <text id="Maroon" transform="translate(164 368.621)" font-size="15" font-family="Modern-Regular, "Modern No. 20""><tspan x="8.913" y="12">Maroon</tspan></text>
      <text id="CHOCOLATE_SYRUP-2" data-name="CHOCOLATE
SYRUP" transform="translate(138 268.621)" fill="#fff" font-size="15" font-family="PalatinoLinotype-Roman, Palatino Linotype"><tspan x="13.797" y="16">CHOCOLATE</tspan><tspan x="37.187" y="36">SYRUP</tspan></text>
    </g>
  </g>
</svg>
