<svg xmlns="http://www.w3.org/2000/svg" xmlns:xlink="http://www.w3.org/1999/xlink" width="130.682" height="357" viewBox="0 0 130.682 357">
  <defs>
    <linearGradient id="linear-gradient" x1="0.5" x2="0.5" y2="1" gradientUnits="objectBoundingBox">
      <stop offset="0" stop-color="#d90b0b"/>
      <stop offset="1" stop-color="#6d0606"/>
    </linearGradient>
  </defs>
  <g id="honey_syrup" transform="translate(-117.319 -19)">
    <path id="syrup" d="M21.541,8.119H69.519s-5.729,4.782-5.729,79.6c0,33.669,35.941,85.675,42.25,126.549,7.663,49.647-5.729,85.419-5.729,85.419H-5.671s-10.96-35.1-3.581-85.419C-3.325,173.858,28.7,121.093,28.7,87.723,28.7,12.9,21.541,8.119,21.541,8.119Z" transform="translate(135 69.309)" fill="#e3b15e"/>
    <path id="bottle" d="M23.379,8.119c0-10.025,7.877-15.379,7.877-15.379V-14.8H79.235V-7.26s7.877,6.07,8.593,15.379S79.235,13.152,79.235,91.9c0,35.437,32.779,90.174,40.1,133.194C128.232,277.35,112,315,112,315H0s-14.546-36.938-5.98-89.9C.9,182.56,31.257,127.025,31.257,91.9,31.257,13.152,23.379,18.144,23.379,8.119Z" transform="translate(126 61)" fill="rgba(255,255,255,0.3)"/>
    <rect id="cap" width="56" height="27" transform="translate(154 19)" fill="url(#linear-gradient)"/>
    <g id="label">
      <ellipse id="Ellipse_21" data-name="Ellipse 21" cx="52" cy="71" rx="52" ry="71" transform="translate(131 223)" fill="#bd1212"/>
      <text id="HONEY_Syrup-2" data-name="HONEY
Syrup" transform="translate(138 249)" fill="#fff" font-size="15" font-family="PalatinoLinotype-Roman, Palatino Linotype"><tspan x="17.047" y="16">HONEY</tspan><tspan x="24.899" y="36">Syrup</tspan></text>
      <g id="Path_68" data-name="Path 68" transform="translate(135 294)" fill="#c07400">
        <path d="M 48.5 70.36692810058594 C 42.11066436767578 70.36692810058594 37.00678634643555 69.41209411621094 32.43780899047852 67.36200714111328 C 28.08020973205566 65.40677642822266 24.60984420776367 62.64191818237305 21.14565467834473 59.7420768737793 C 14.8446102142334 54.47153091430664 7.002932548522949 47.91231918334961 7.002932548522949 37.99999618530273 C 7.002932548522949 32.82141876220703 7.931066036224365 27.90815353393555 9.761532783508301 23.39667510986328 C 11.60385513305664 18.85598564147949 14.30952167510986 14.85011959075928 17.80335426330566 11.49034214019775 C 25.28019905090332 4.300397396087646 35.89492034912109 0.4999973773956299 48.5 0.4999973773956299 C 61.0440788269043 0.4999973773956299 71.49645233154297 4.298408508300781 78.72713470458984 11.48458671569824 C 82.09303283691406 14.82977485656738 84.69241333007813 18.83499717712402 86.45305633544922 23.38898658752441 C 88.18940734863281 27.88016319274902 89.06982421875 32.7960205078125 89.06982421875 37.99999618530273 C 89.06982421875 47.30399703979492 82.14640045166016 53.7172737121582 76.03798675537109 59.3756103515625 L 75.62441253662109 59.75880813598633 C 72.13921356201172 62.99265289306641 68.98346710205078 65.52288818359375 64.90994262695313 67.36068725585938 C 60.36384201049805 69.41167449951172 55.14947509765625 70.36692810058594 48.5 70.36692810058594 Z" stroke="none"/>
        <path d="M 48.5 1 C 36.02667617797852 1 25.53179931640625 4.752120971679688 18.14993286132813 11.85074234008789 C 14.70700073242188 15.16156387329102 12.04061889648438 19.10942077636719 10.224853515625 23.58465194702148 C 8.418724060058594 28.03614044189453 7.5029296875 32.88616561889648 7.5029296875 37.99999618530273 C 7.5029296875 42.27197265625 8.989295959472656 46.27257537841797 12.04697418212891 50.23041915893555 C 14.77478790283203 53.76127624511719 18.32978820800781 56.7348747253418 21.46659851074219 59.35867309570313 C 24.90280914306641 62.235107421875 28.34323120117188 64.97676086425781 32.64249801635742 66.90583038330078 C 37.14485549926758 68.92601776123047 42.18368911743164 69.86692810058594 48.5 69.86692810058594 C 55.07608795166016 69.86692810058594 60.22512054443359 68.92572784423828 64.70432281494141 66.90492248535156 C 68.71597290039063 65.09503173828125 71.83509063720703 62.59275436401367 75.28447723388672 59.39215087890625 L 75.69819641113281 59.00879669189453 C 81.73152160644531 53.4200439453125 88.56982421875 47.08559799194336 88.56982421875 37.99999618530273 C 88.56982421875 32.85791778564453 87.70072937011719 28.00273132324219 85.98670196533203 23.56928634643555 C 84.25151824951172 19.08118438720703 81.69046783447266 15.1346321105957 78.37466430664063 11.83922958374023 C 71.23967742919922 4.748138427734375 60.90917587280273 1 48.5 1 M 48.5 0 C 75.28581237792969 0 89.56982421875 17.01318740844727 89.56982421875 37.99999618530273 C 89.56982421875 47.73783111572266 82.16790008544922 54.37404251098633 75.96435546875 60.12547302246094 C 69.29609680175781 66.31278991699219 62.85726547241211 70.86692810058594 48.5 70.86692810058594 C 34.62503433227539 70.86692810058594 28.22171783447266 66.31745147705078 20.82470703125 60.12547302246094 C 14.40287780761719 54.75389862060547 6.5029296875 48.11570739746094 6.5029296875 37.99999618530273 C 6.5029296875 17.01318740844727 21.71418762207031 0 48.5 0 Z" stroke="none" fill="#ffe59d"/>
      </g>
      <circle id="Ellipse_22" data-name="Ellipse 22" cx="8" cy="8" r="8" transform="translate(167 313)" fill="#344ae8"/>
      <circle id="Ellipse_23" data-name="Ellipse 23" cx="8" cy="8" r="8" transform="translate(182 317)" fill="#344ae8"/>
    </g>
  </g>
</svg>
