<svg xmlns="http://www.w3.org/2000/svg" xmlns:xlink="http://www.w3.org/1999/xlink" width="112" height="357" viewBox="0 0 112 357">
  <defs>
  <style type="text/css">
    @font-face {
      font-family: MaiandraGD-Regular;
      src: url('../../fonts/Maiandra_GD_Regular.ttf');
    }
  </style>
    <linearGradient id="linear-gradient" x1="0.5" x2="0.5" y2="1" gradientUnits="objectBoundingBox">
      <stop offset="0" stop-color="#7e86e8"/>
      <stop offset="1" stop-color="#545fac"/>
    </linearGradient>
  </defs>
  <g id="pineapple_syrup" transform="translate(-126 -19)">
    <path id="bottle" d="M23.379,8.119c0-10.025,7.877-15.379,7.877-15.379V-14.8H79.235V-7.26s7.877,6.07,8.593,15.379-14.636,6.138-8.593,29.117S112,64.778,112,64.778V315H0V64.778s25.412-4.564,31.257-27.542S23.379,18.144,23.379,8.119Z" transform="translate(126 61)" fill="rgba(255,255,255,0.3)"/>
    <path id="syrup" d="M62.794,41.045l31.4,25.89,6.119,232.756H-5.671L-2.756,66.935l30.461-25.89Z" transform="translate(135 69.309)" fill="#ebf14d"/>
    <rect id="cap" width="56" height="27" transform="translate(154 19)" fill="url(#linear-gradient)"/>
    <g id="label" transform="translate(3 -4)">
      <rect id="Rectangle_45" data-name="Rectangle 45" width="105" height="117" transform="translate(126 235)" fill="#6c76d2"/>
      <text id="PINEAPPLE_Syrup-2" data-name="PINEAPPLE
Syrup" transform="translate(135 242)" fill="#fff" font-size="15" font-family="MaiandraGD-Regular, Maiandra GD"><tspan x="6.813" y="14">PINEAPPLE</tspan><tspan x="25.193" y="34">Syrup</tspan></text>
    </g>
    <path id="Icon_metro-spinner" data-name="Icon metro-spinner" d="M19.416,7.843a5.915,5.915,0,1,1,5.915,5.915A5.915,5.915,0,0,1,19.416,7.843Zm12.548,5.2a5.915,5.915,0,1,1,5.915,5.915A5.915,5.915,0,0,1,31.964,13.041Zm8.155,12.548a2.958,2.958,0,1,1,2.958,2.958A2.958,2.958,0,0,1,40.119,25.589Zm-5.2,12.548A2.958,2.958,0,1,1,37.879,41.1,2.958,2.958,0,0,1,34.922,38.137Zm-12.548,5.2a2.958,2.958,0,1,1,2.958,2.958A2.958,2.958,0,0,1,22.373,43.335Zm-12.548-5.2A2.958,2.958,0,1,1,12.783,41.1a2.958,2.958,0,0,1-2.958-2.958Zm-1.479-25.1a4.436,4.436,0,1,1,4.436,4.436,4.436,4.436,0,0,1-4.436-4.436ZM4.258,25.589a3.327,3.327,0,1,1,3.327,3.327A3.327,3.327,0,0,1,4.258,25.589Z" transform="translate(155.966 287.112)" fill="#ffff09"/>
  </g>
</svg>
