<svg xmlns="http://www.w3.org/2000/svg" width="138.926" height="350.532" viewBox="0 0 138.926 350.532">
  <g id="raspberry_syrup" transform="translate(-203.882 -21.468)">
    <path id="bottle" d="M44.174-.766H86.592V109.288s28.515,10.325,31.19,29.36c1.284,9.137,19.319,56.787,19.023,104.1-.317,50.786-19.023,101.133-19.023,101.133s-25.5,5.873-51.39,5.873-52.16-5.873-52.16-5.873-16.35-49.826-16.35-101.133,14.524-94.579,16.35-104.1c3.845-20.038,29.942-29.36,29.942-29.36Z" transform="translate(206 22.249)" fill="rgba(255,255,255,0.25)"/>
    <path id="syrup" d="M79.278,71.85C90.9,72.487,104.909,86.741,106.7,93.7c.825,3.21,16.4,50.119,16.343,94.846-.072,51.931-15.869,102.548-15.869,102.548s-24.813,7.042-47.291,7.042S12,291.1,12,291.1-4.324,239.961-5.141,188.551C-5.857,143.43,8.849,97.619,9.825,93.7,11.9,85.374,23.847,72.487,34.7,71.85S67.656,71.213,79.278,71.85Z" transform="translate(214.035 70.19)" fill="rgba(201,34,34,0.54)"/>
    <path id="cap" d="M0,0H47.251V67.9s-11.444,4.173-23.256,4.173S0,67.9,0,67.9Z" transform="translate(248.397 21.468)"/>
    <path id="reflection" d="M2209-43.234V94.108" transform="translate(-1900.838 253.242)" fill="none" stroke="#fff" stroke-linecap="round" stroke-width="3"/>
    <g id="label" transform="translate(-5.712 6.564)">
      <g id="Ellipse_25" data-name="Ellipse 25" transform="translate(225.712 157.436)" fill="#fcbaba" stroke="#707070" stroke-width="1">
        <ellipse cx="52" cy="76.5" rx="52" ry="76.5" stroke="none"/>
        <ellipse cx="52" cy="76.5" rx="51.5" ry="76" fill="none"/>
      </g>
      <text id="RASPBERRY_SYRUP-2" data-name="RASPBERRY
SYRUP" transform="translate(222.712 195.436)" fill="#fff" font-size="14" font-family="Modern-Regular, "Modern No. 20"" letter-spacing="0.015em"><tspan x="10.205" y="11">RASPBERRY</tspan><tspan x="30.036" y="26">SYRUP</tspan></text>
      <text id="_Maroon" data-name=" Maroon" transform="translate(255.712 278.436)" fill="#fff" font-size="10" font-family="Modern-Regular, "Modern No. 20""><tspan x="5.045" y="8" xml:space="preserve"> Maroon</tspan></text>
      <path id="Icon_material-grain" data-name="Icon material-grain" d="M22.346,29.2a4.833,4.833,0,0,0-4.549,5.05,4.833,4.833,0,0,0,4.549,5.05,4.833,4.833,0,0,0,4.549-5.05A4.833,4.833,0,0,0,22.346,29.2Zm0-10.1a4.833,4.833,0,0,0-4.549,5.05,4.833,4.833,0,0,0,4.549,5.05,4.833,4.833,0,0,0,4.549-5.05A4.833,4.833,0,0,0,22.346,19.1Zm9.1,10.1a4.833,4.833,0,0,0-4.549,5.05,4.833,4.833,0,0,0,4.549,5.05,4.833,4.833,0,0,0,4.549-5.05A4.833,4.833,0,0,0,31.444,29.2Zm9.1,0a4.833,4.833,0,0,0,4.549-5.05,4.833,4.833,0,0,0-4.549-5.05,4.833,4.833,0,0,0-4.549,5.05A4.833,4.833,0,0,0,40.542,29.2Zm-9.1,10.1a4.833,4.833,0,0,0-4.549,5.05,4.833,4.833,0,0,0,4.549,5.05,4.833,4.833,0,0,0,4.549-5.05A4.833,4.833,0,0,0,31.444,39.3Zm9.1-10.1a4.833,4.833,0,0,0-4.549,5.05,4.833,4.833,0,0,0,4.549,5.05,4.833,4.833,0,0,0,4.549-5.05A4.833,4.833,0,0,0,40.542,29.2Zm-9.1-10.1a4.833,4.833,0,0,0-4.549,5.05,4.833,4.833,0,0,0,4.549,5.05,4.833,4.833,0,0,0,4.549-5.05A4.833,4.833,0,0,0,31.444,19.1Z" transform="translate(248.512 222.924)" fill="#ce2b2b"/>
      <path id="Icon_ionic-md-leaf" data-name="Icon ionic-md-leaf" d="M14.7,11.78a12.9,12.9,0,0,0-3.976-9.53A12.9,12.9,0,0,0,6.75,11.78c0,4.43,2.02,5.239,3.181,5.339v1.834h1.59V17.116C12.681,17.019,14.7,16.21,14.7,11.78Z" transform="translate(287.799 221.253) rotate(45)" fill="#249324"/>
    </g>
  </g>
</svg>
