<svg xmlns="http://www.w3.org/2000/svg" xmlns:xlink="http://www.w3.org/1999/xlink" width="197.548" height="350.591" viewBox="0 0 197.548 350.591">
  <defs>
    <linearGradient id="linear-gradient" x1="1.186" y1="0.182" x2="-0.091" y2="0.859" gradientUnits="objectBoundingBox">
      <stop offset="0" stop-color="#86857f"/>
      <stop offset="1"/>
    </linearGradient>
  </defs>
  <g id="rich_simple_syrup" transform="translate(-46.989 -63.532)">
    <path id="syrup" d="M64.986,12.3h37.5s58.237,6.051,67.963,25.414,0,238.018,0,238.018H-2.977s-8.79-217.445,0-238.018S64.986,12.3,64.986,12.3Z" transform="translate(60.179 131.279)" fill="#f6d865"/>
    <path id="bottle" d="M67.572-.766h53.12V50.85s56.245,2.116,69.122,22.994,0,250.734,0,250.734-62.572,5.287-94.991,5.287-92.73-5.287-92.73-5.287-9.235-234.957,0-250.734S67.572,50.85,67.572,50.85Z" transform="translate(49 84.258)" fill="rgba(255,255,255,0.25)"/>
    <rect id="cap" width="68" height="60" rx="5" transform="translate(110 63.532)" fill="url(#linear-gradient)"/>
    <g id="label">
      <rect id="Rectangle_10" data-name="Rectangle 10" width="182" height="166" transform="translate(53 218.532)"/>
      <text id="Rich_Simple_Syrup-2" data-name="Rich Simple Syrup" transform="translate(69 324.532)" fill="#fff" font-size="20" font-family="BernardMT-Condensed, Bernard MT"><tspan x="6.97" y="19">Rich Simple Syrup</tspan></text>
      <text id="Maroon" transform="translate(131 358.532)" fill="#fff" font-size="10" font-family="BernardMT-Condensed, Bernard MT"><tspan x="0" y="10">Maroon</tspan></text>
      <path id="Icon_awesome-leaf" data-name="Icon awesome-leaf" d="M38.4.682A1.094,1.094,0,0,0,36.415.6,12.057,12.057,0,0,1,25.875,6.75H20.25a13.5,13.5,0,0,0-13.5,13.5,13.9,13.9,0,0,0,.105,1.441C11.341,18.478,17.817,15.75,27,15.75A1.125,1.125,0,0,1,27,18C9.323,18,1.828,28.835.169,32.906a2.253,2.253,0,0,0,4.17,1.709,18.5,18.5,0,0,1,5.055-6.37,13.47,13.47,0,0,0,12.3,5.428c11.039-.8,18.809-10.7,18.809-22.823A25.568,25.568,0,0,0,38.4.682Z" transform="translate(63.246 230.531)" fill="#fff"/>
      <path id="Icon_awesome-leaf-2" data-name="Icon awesome-leaf" d="M38.4.682A1.094,1.094,0,0,0,36.415.6,12.057,12.057,0,0,1,25.875,6.75H20.25a13.5,13.5,0,0,0-13.5,13.5,13.9,13.9,0,0,0,.105,1.441C11.341,18.478,17.817,15.75,27,15.75A1.125,1.125,0,0,1,27,18C9.323,18,1.828,28.835.169,32.906a2.253,2.253,0,0,0,4.17,1.709,18.5,18.5,0,0,1,5.055-6.37,13.47,13.47,0,0,0,12.3,5.428c11.039-.8,18.809-10.7,18.809-22.823A25.568,25.568,0,0,0,38.4.682Z" transform="translate(164.445 269.901) rotate(-176)" fill="#fff"/>
      <path id="Icon_awesome-leaf-3" data-name="Icon awesome-leaf" d="M38.4.682A1.094,1.094,0,0,0,36.415.6,12.057,12.057,0,0,1,25.875,6.75H20.25a13.5,13.5,0,0,0-13.5,13.5,13.9,13.9,0,0,0,.105,1.441C11.341,18.478,17.817,15.75,27,15.75A1.125,1.125,0,0,1,27,18C9.323,18,1.828,28.835.169,32.906a2.253,2.253,0,0,0,4.17,1.709,18.5,18.5,0,0,1,5.055-6.37,13.47,13.47,0,0,0,12.3,5.428c11.039-.8,18.809-10.7,18.809-22.823A25.568,25.568,0,0,0,38.4.682Z" transform="translate(126.246 269.531)" fill="#fff"/>
      <path id="Icon_awesome-leaf-4" data-name="Icon awesome-leaf" d="M38.4.682A1.094,1.094,0,0,0,36.415.6,12.057,12.057,0,0,1,25.875,6.75H20.25a13.5,13.5,0,0,0-13.5,13.5,13.9,13.9,0,0,0,.105,1.441C11.341,18.478,17.817,15.75,27,15.75A1.125,1.125,0,0,1,27,18C9.323,18,1.828,28.835.169,32.906a2.253,2.253,0,0,0,4.17,1.709,18.5,18.5,0,0,1,5.055-6.37,13.47,13.47,0,0,0,12.3,5.428c11.039-.8,18.809-10.7,18.809-22.823A25.568,25.568,0,0,0,38.4.682Z" transform="translate(227.444 308.901) rotate(-176)" fill="#fff"/>
    </g>
  </g>
</svg>
