<?xml version="1.0" encoding="UTF-8" standalone="no"?>
<svg
   xmlns:dc="http://purl.org/dc/elements/1.1/"
   xmlns:cc="http://creativecommons.org/ns#"
   xmlns:rdf="http://www.w3.org/1999/02/22-rdf-syntax-ns#"
   xmlns:svg="http://www.w3.org/2000/svg"
   xmlns="http://www.w3.org/2000/svg"
   xmlns:sodipodi="http://sodipodi.sourceforge.net/DTD/sodipodi-0.dtd"
   xmlns:inkscape="http://www.inkscape.org/namespaces/inkscape"
   height=""
   viewBox="0 0 459.22095 472"
   width=""
   version="1.1"
   id="svg70"
   sodipodi:docname="bartender.svg"
   inkscape:version="0.92.4 (unknown)">
  <metadata
     id="metadata76">
    <rdf:RDF>
      <cc:Work
         rdf:about="">
        <dc:format>image/svg+xml</dc:format>
        <dc:type
           rdf:resource="http://purl.org/dc/dcmitype/StillImage" />
        <dc:title></dc:title>
      </cc:Work>
    </rdf:RDF>
  </metadata>
  <defs
     id="defs74" />
  <sodipodi:namedview
     pagecolor="#ffffff"
     bordercolor="#666666"
     borderopacity="1"
     objecttolerance="10"
     gridtolerance="10"
     guidetolerance="10"
     inkscape:pageopacity="0"
     inkscape:pageshadow="2"
     inkscape:window-width="734"
     inkscape:window-height="480"
     id="namedview72"
     showgrid="false"
     fit-margin-top="0"
     fit-margin-left="0"
     fit-margin-right="0"
     fit-margin-bottom="0"
     inkscape:zoom="0.4609375"
     inkscape:cx="227.22096"
     inkscape:cy="240"
     inkscape:window-x="776"
     inkscape:window-y="223"
     inkscape:window-maximized="0"
     inkscape:current-layer="svg70" />
  <path
     d="M 331.22096,472 V 368 l 45.9,78.692 a 34.885,34.885 0 0 0 30.137,17.308 34.885,34.885 0 0 0 32.288,-48.094 L 387.22096,288 l -98,-24 -14,-16 v -64 h -96 v 64 l -13.819,16 -98.180999,24 -64.0000004,128 56.0000004,24 63.999999,-72 v 104"
     id="path2"
     inkscape:connector-curvature="0"
     style="fill:#fec9a3" />
  <path
     d="M 275.22096,221.558 V 184 h -96 v 37.558 a 71.687,71.687 0 0 0 96,0 z"
     id="path4"
     inkscape:connector-curvature="0"
     style="fill:#feb784" />
  <path
     d="m 442.18096,429.14 a 34.911,34.911 0 0 1 -65.06,17.55 l -45.9,-78.69 v 104 h -208 V 368 L 59.220961,440 3.2209606,416 67.220961,288 l 55.999999,-13.71 42.18,-10.29 13.82,-16 32.88,38.36 15.12,17.64 15.11,-17.63 32.89,-38.37 14,16 42,10.29 56,13.71 52.33,127.91 a 34.783,34.783 0 0 1 2.63,13.23 z"
     id="path6"
     inkscape:connector-curvature="0"
     style="fill:#c7c7c5" />
  <path
     d="m 212.10096,286.36 -32.88,33.64 -13.82,-56 13.82,-16 z"
     id="path8"
     inkscape:connector-curvature="0"
     style="fill:#e0e0de" />
  <path
     d="m 289.22096,264 -14,56 -32.89,-33.63 32.89,-38.37 z"
     id="path10"
     inkscape:connector-curvature="0"
     style="fill:#e0e0de" />
  <path
     d="m 299.22096,88.000001 h 8 a 24,24 0 0 1 24,23.999999 24,24 0 0 1 -24,24 h -8 z"
     id="path12"
     inkscape:connector-curvature="0"
     style="fill:#feb784" />
  <path
     d="m 155.22096,88.000001 h -8 a 24.071,24.071 0 0 0 -24,23.999999 24.071,24.071 0 0 0 24,24 h 8.48"
     id="path14"
     inkscape:connector-curvature="0"
     style="fill:#feb784" />
  <path
     d="M 299.22096,77.590001 V 133.59 a 72,72 0 1 1 -144,0 V 77.590001 a 72,72 0 0 1 144,0 z"
     id="path16"
     inkscape:connector-curvature="0"
     style="fill:#fec9a3" />
  <path
     d="M 299.22096,77.590001 V 133.59 a 71.991,71.991 0 0 1 -38.15,63.56 71.739,71.739 0 0 0 6.15,-29.15 V 80.000001 a 72.032,72.032 0 0 0 -61.29,-71.21 72.024,72.024 0 0 1 93.29,68.8 z"
     id="path18"
     inkscape:connector-curvature="0"
     style="fill:#fec093" />
  <g
     id="g28"
     style="fill:#7a432a"
     transform="translate(-28.779039,-23.999999)">
    <circle
       cx="220"
       cy="121.588"
       r="12"
       id="circle20" />
    <circle
       cx="292"
       cy="121.588"
       r="12"
       id="circle22" />
    <path
       d="M 328,77.59 V 112 C 316.24,97.88 306.47,79.24 298.92,61.59 h -0.01 c -2.32,0.87 -4.67,1.66 -7.03,2.37 A 122.5,122.5 0 0 1 256,69.33 122.749,122.749 0 0 1 213.09,61.59 C 205.53,79.24 195.76,97.88 184,112 V 77.59 A 54.761,54.761 0 0 1 190.7,51 43.1,43.1 0 0 1 208,33.61 124.6,124.6 0 0 1 256,24 c 0.34,0 0.69,0 1.03,0.01 a 124.457,124.457 0 0 1 46.97,9.6 c 14.12,7.41 24,24.3 24,43.98 z"
       id="path24"
       inkscape:connector-curvature="0" />
    <path
       d="m 328,120 v 56 a 72,72 0 0 1 -144,0 v -48 l 32,40 a 54.641,54.641 0 0 1 38.63,-16 h 2.74 A 54.636,54.636 0 0 1 296,168 Z"
       id="path26"
       inkscape:connector-curvature="0" />
  </g>
  <path
     d="M 299.22096,96.000001 V 152 a 72.05,72.05 0 0 1 -56.83,70.4 71.842,71.842 0 0 0 24.83,-54.4 v -24 z"
     id="path30"
     inkscape:connector-curvature="0"
     style="fill:#743b20" />
  <path
     d="m 218.11196,168 h -14.891 v -16 h 14.891 c 10.951,0 21.55,-2.519 29.078,-6.91 l 8.062,13.82 c -10.048,5.862 -23.238,9.09 -37.14,9.09 z"
     id="path32"
     inkscape:connector-curvature="0"
     style="fill:#fec9a3" />
  <path
     d="m 219.22096,304 h 16 v 128 h -16 z"
     id="path34"
     inkscape:connector-curvature="0"
     style="fill:#b0b0ae" />
  <path
     d="m 459.22096,284.84 v 17.27 a 465.025,465.025 0 0 1 -7.49,83.1 l -8.51,46.79 h -64 l -8.51,-46.79 a 465.025,465.025 0 0 1 -7.49,-83.1 v -17.27 c 0,-1.63 0.07,-3.24 0.22,-4.84 a 53.885,53.885 0 0 1 23.78,-40 v -24 h 48 v 24 a 53.885,53.885 0 0 1 23.78,40 c 0.15,1.6 0.22,3.21 0.22,4.84 z"
     id="path36"
     inkscape:connector-curvature="0"
     style="fill:#e0e0de" />
  <path
     d="m 459.22096,284.84 v 17.27 a 465.025,465.025 0 0 1 -7.49,83.1 l -8.51,46.79 h -36.33 c 15.08,-55.61 23.44,-132.58 -4.65,-216 h 32.98 v 24 a 53.885,53.885 0 0 1 23.78,40 c 0.15,1.6 0.22,3.21 0.22,4.84 z"
     id="path38"
     inkscape:connector-curvature="0"
     style="fill:#d6d6d4" />
  <path
     d="M 459.22096,284.84 V 296 h -96 v -11.16 c 0,-1.63 0.07,-3.24 0.22,-4.84 h 95.56 c 0.15,1.6 0.22,3.21 0.22,4.84 z"
     id="path40"
     inkscape:connector-curvature="0"
     style="fill:#b0b0ae" />
  <path
     d="m 388.16696,328.574 c -0.413,-5.731 -0.729,-11.2 -0.939,-16.241 l 15.986,-0.666 c 0.2,4.885 0.51,10.187 0.912,15.759 z"
     id="path42"
     inkscape:connector-curvature="0"
     style="fill:#ebebe9" />
  <path
     d="m 398.05696,401.431 -3.731,-20.515 c -1.794,-9.874 -3.45,-22.372 -4.788,-36.143 l 15.925,-1.546 c 1.3,13.338 2.888,25.381 4.606,34.827 l 3.73,20.515 z"
     id="path44"
     inkscape:connector-curvature="0"
     style="fill:#ebebe9" />
  <path
     d="m 459.22096,374.01 v 53.45 a 36.545,36.545 0 0 1 -60.2,27.85 l -0.66,-0.56 -36.89,-31.35 a 16.027,16.027 0 0 1 -4.49,-19.98 l 17.62,-34.42 a 16.865,16.865 0 0 1 25.9,-4.94 l 30.03,25.82 4.8,-18.75 a 12.183,12.183 0 0 1 16.78,-7.91 12.061,12.061 0 0 1 5.18,4.37 11.7,11.7 0 0 1 1.93,6.42 z"
     id="path46"
     inkscape:connector-curvature="0"
     style="fill:#fec9a3" />
  <path
     d="M 33.609961,464 A 33.61,33.61 0 0 1 0.29496059,425.947 L 11.220961,344 h 56 v 86.389 A 33.611,33.611 0 0 1 33.609961,464 Z"
     id="path48"
     inkscape:connector-curvature="0"
     style="fill:#e0e0de" />
  <path
     d="m 99.220961,296 h -64 l 16,-48 -16,-48 h 64 l -16,48 z"
     id="path50"
     inkscape:connector-curvature="0"
     style="fill:#e0e0de" />
  <path
     d="m 83.220961,296 v 48 a 16,16 0 0 1 -16,16 h -46.4 a 9.6,9.6 0 0 1 -9.6,-9.6 v -60.8 a 9.6,9.6 0 0 1 9.6,-9.6 h 46.4 a 16,16 0 0 1 16,16 z"
     id="path52"
     inkscape:connector-curvature="0"
     style="fill:#fec9a3" />
  <path
     d="m 83.220961,296 v 48 a 16,16 0 0 1 -16,16 h -24 a 16,16 0 0 0 16,-16 v -48 a 16,16 0 0 0 -16,-16 h 24 a 16,16 0 0 1 16,16 z"
     id="path54"
     inkscape:connector-curvature="0"
     style="fill:#fec093" />
  <path
     d="M 331.22096,274.29 V 472 h -208 V 274.29 l 42.181,-10.29 61.819,168 62,-168 z"
     id="path56"
     inkscape:connector-curvature="0"
     style="fill:#3d4d63" />
  <path
     d="m 219.22096,424 h 16 v 48 h -16 z"
     id="path58"
     inkscape:connector-curvature="0"
     style="fill:#29384a" />
  <path
     d="m 275.22096,368 h 64 v 32 h -64 z"
     id="path60"
     inkscape:connector-curvature="0"
     style="fill:#ffb531" />
  <path
     d="m 275.22096,384 h 64 v 16 h -64 z"
     id="path62"
     inkscape:connector-curvature="0"
     style="fill:#ffa912" />
  <path
     d="m 187.22096,440 h 16 v 16 h -16 z"
     id="path64"
     inkscape:connector-curvature="0"
     style="fill:#29384a" />
  <path
     d="m 299.22096,53.590001 v 34.41 c -11.76,-14.12 -21.53,-32.76 -29.08,-50.41 h -0.01 c -2.32,0.87 -4.67,1.66 -7.03,2.37 a 72.2,72.2 0 0 0 -34.85,-39.94999997 124.457,124.457 0 0 1 46.97,9.59999997 c 14.12,7.41 24,24.3 24,43.98 z"
     id="path66"
     inkscape:connector-curvature="0"
     style="fill:#743b20" />
  <path
     d="m 459.22096,389.56 v 37.9 a 36.545,36.545 0 0 1 -60.2,27.85 l -0.66,-0.56 a 369.7,369.7 0 0 0 60.86,-65.19 z"
     id="path68"
     inkscape:connector-curvature="0"
     style="fill:#fec093" />
</svg>
