<?xml version="1.0" encoding="UTF-8" standalone="no"?>
<svg
   xmlns:dc="http://purl.org/dc/elements/1.1/"
   xmlns:cc="http://creativecommons.org/ns#"
   xmlns:rdf="http://www.w3.org/1999/02/22-rdf-syntax-ns#"
   xmlns:svg="http://www.w3.org/2000/svg"
   xmlns="http://www.w3.org/2000/svg"
   xmlns:xlink="http://www.w3.org/1999/xlink"
   xmlns:sodipodi="http://sodipodi.sourceforge.net/DTD/sodipodi-0.dtd"
   xmlns:inkscape="http://www.inkscape.org/namespaces/inkscape"
   width="2509.0447"
   height="141.53999"
   viewBox="0 0 2509.0447 141.53999"
   version="1.1"
   id="svg489"
   sodipodi:docname="glassHeader.svg"
   inkscape:version="0.92.4 (unknown)">
  <metadata
     id="metadata493">
    <rdf:RDF>
      <cc:Work
         rdf:about="">
        <dc:format>image/svg+xml</dc:format>
        <dc:type
           rdf:resource="http://purl.org/dc/dcmitype/StillImage" />
        <dc:title></dc:title>
      </cc:Work>
    </rdf:RDF>
  </metadata>
  <sodipodi:namedview
     pagecolor="#ffffff"
     bordercolor="#666666"
     borderopacity="1"
     objecttolerance="10"
     gridtolerance="10"
     guidetolerance="10"
     inkscape:pageopacity="0"
     inkscape:pageshadow="2"
     inkscape:window-width="1858"
     inkscape:window-height="1014"
     id="namedview491"
     showgrid="false"
     inkscape:pagecheckerboard="true"
     fit-margin-bottom="0"
     inkscape:zoom="0.1734375"
     inkscape:cx="3002.8211"
     inkscape:cy="1076.527"
     inkscape:window-x="57"
     inkscape:window-y="27"
     inkscape:window-maximized="0"
     inkscape:current-layer="layer1"
     fit-margin-top="0"
     fit-margin-left="0"
     fit-margin-right="0" />
  <defs
     id="defs147">
    <clipPath
       id="clip-path">
      <rect
         width="417"
         height="569"
         id="rect2"
         x="0"
         y="0"
         style="fill:none" />
    </clipPath>
    <clipPath
       id="clip-path-2">
      <rect
         width="612.23602"
         height="141.451"
         id="rect5"
         x="0"
         y="0"
         style="fill:none" />
    </clipPath>
    <clipPath
       id="clip-path-3">
      <rect
         width="733.039"
         height="141.53999"
         id="rect8"
         x="0"
         y="0"
         style="fill:none" />
    </clipPath>
    <linearGradient
       id="linear-gradient"
       x1="67.562935"
       y1="19.516138"
       x2="2.7791414"
       y2="25.55789"
       gradientUnits="userSpaceOnUse"
       gradientTransform="scale(0.87161966,1.1472894)">
      <stop
         offset="0"
         stop-color="#fff"
         id="stop11" />
      <stop
         offset="1"
         stop-color="#686767"
         id="stop13" />
    </linearGradient>
    <linearGradient
       id="linear-gradient-2"
       x1="0.5"
       y1="-0.89099997"
       x2="0.5"
       y2="1"
       gradientUnits="objectBoundingBox">
      <stop
         offset="0"
         stop-color="#fff"
         id="stop16" />
      <stop
         offset="1"
         stop-color="gray"
         id="stop18" />
    </linearGradient>
    <linearGradient
       id="linear-gradient-3"
       x1="1.2107326"
       y1="8.2320309"
       x2="31.019854"
       y2="25.760099"
       xlink:href="#linear-gradient-2"
       gradientTransform="scale(0.98903885,1.0110826)"
       gradientUnits="userSpaceOnUse" />
    <linearGradient
       id="linear-gradient-4"
       y1="-3.4866383"
       xlink:href="#linear-gradient-2"
       gradientTransform="scale(3.2403703,0.3086067)"
       x1="0"
       x2="12.961481"
       y2="0"
       gradientUnits="userSpaceOnUse" />
    <linearGradient
       id="linear-gradient-5"
       x1="-6.775682"
       y1="-1.9359092"
       x2="12.409674"
       xlink:href="#linear-gradient-2"
       gradientTransform="scale(1.1281521,0.88640526)"
       y2="0"
       gradientUnits="userSpaceOnUse" />
    <linearGradient
       id="linear-gradient-6"
       x1="-57.381054"
       y1="8.4698439"
       x2="31.92849"
       y2="3.0708148"
       xlink:href="#linear-gradient-2"
       gradientTransform="scale(0.83249509,1.2012083)"
       gradientUnits="userSpaceOnUse" />
    <linearGradient
       id="linear-gradient-7"
       x1="-14.261586"
       y1="-3.376004"
       x2="31.92849"
       y2="3.0708148"
       xlink:href="#linear-gradient-2"
       gradientTransform="scale(0.83249509,1.2012083)"
       gradientUnits="userSpaceOnUse" />
    <linearGradient
       id="linear-gradient-9"
       x1="-11.314809"
       x2="77.786949"
       y2="77.34481"
       gradientUnits="userSpaceOnUse"
       gradientTransform="scale(1.0003062,0.99969393)"
       y1="-8.1767384e-06">
      <stop
         offset="0"
         stop-color="#e9e9e9"
         id="stop26" />
      <stop
         offset="1"
         stop-color="gray"
         id="stop28" />
    </linearGradient>
    <clipPath
       id="clip-path-4">
      <rect
         width="59.483002"
         height="36.367001"
         id="rect31"
         x="0"
         y="0"
         style="fill:none" />
    </clipPath>
    <linearGradient
       id="linear-gradient-10"
       x1="0.486"
       y1="0.041000001"
       x2="0.5"
       y2="1"
       gradientUnits="objectBoundingBox">
      <stop
         offset="0"
         stop-color="#fff"
         stop-opacity="0.188"
         id="stop34" />
      <stop
         offset="1"
         stop-color="#c9c8c8"
         stop-opacity="0.6"
         id="stop36" />
    </linearGradient>
    <clipPath
       id="clip-path-5">
      <rect
         width="66.656998"
         height="44.338001"
         id="rect39"
         x="0"
         y="0"
         style="fill:none" />
    </clipPath>
    <linearGradient
       id="linear-gradient-24"
       x1="-67.262688"
       y1="4.6791434"
       x2="62.704559"
       y2="4.4169502"
       xlink:href="#linear-gradient-2"
       gradientTransform="scale(0.20328505,4.9192008)"
       gradientUnits="userSpaceOnUse" />
    <linearGradient
       id="linear-gradient-25"
       x1="-3.7789996"
       y1="5.5007272"
       x2="7.5139937"
       y2="4.032033"
       xlink:href="#linear-gradient-2"
       gradientTransform="scale(1.3416408,0.74535598)"
       gradientUnits="userSpaceOnUse" />
    <radialGradient
       id="radial-gradient"
       cx="-2.5833023"
       cy="7.3551888"
       r="13.265632"
       gradientTransform="scale(0.81466926,1.227492)"
       xlink:href="#linear-gradient-2"
       fx="-2.5833023"
       fy="7.3551888"
       gradientUnits="userSpaceOnUse" />
    <radialGradient
       id="radial-gradient-2"
       cx="12.216701"
       cy="12.216701"
       r="10.579663"
       gradientTransform="scale(0.80537288,1.2416609)"
       xlink:href="#linear-gradient-2"
       fx="12.216701"
       fy="12.216701"
       gradientUnits="userSpaceOnUse" />
    <linearGradient
       id="linear-gradient-26"
       x1="-43.775696"
       y1="19.21306"
       x2="118.5736"
       y2="25.07655"
       gradientUnits="userSpaceOnUse"
       gradientTransform="scale(0.45949201,2.1763164)">
      <stop
         offset="0"
         stop-color="#dfdfdf"
         id="stop46" />
      <stop
         offset="1"
         stop-color="#757575"
         id="stop48" />
    </linearGradient>
    <linearGradient
       id="linear-gradient-27"
       x1="-34.582336"
       y1="43.140148"
       x2="76.362015"
       y2="39.760914"
       xlink:href="#linear-gradient-2"
       gradientTransform="scale(0.41015156,2.4381231)"
       gradientUnits="userSpaceOnUse" />
    <linearGradient
       id="linear-gradient-28"
       x1="-38.041035"
       y1="62.668324"
       x2="57.847523"
       y2="-19.911108"
       xlink:href="#linear-gradient-2"
       gradientTransform="scale(0.79987605,1.2501937)"
       gradientUnits="userSpaceOnUse" />
    <linearGradient
       id="linear-gradient-29"
       x1="-74.369492"
       y1="44.88681"
       x2="147.00203"
       y2="35.653477"
       xlink:href="#linear-gradient-2"
       gradientTransform="scale(0.37250393,2.6845354)"
       gradientUnits="userSpaceOnUse" />
    <radialGradient
       id="radial-gradient-3"
       cx="48.374649"
       cy="43.384686"
       r="52.092712"
       gradientUnits="userSpaceOnUse"
       gradientTransform="scale(0.81604612,1.2254209)"
       fx="48.374649"
       fy="43.384686">
      <stop
         offset="0"
         stop-color="#ff9100"
         stop-opacity="0.839"
         id="stop54" />
      <stop
         offset="1"
         stop-color="#ffbb48"
         id="stop56" />
    </radialGradient>
    <linearGradient
       id="linear-gradient-31"
       x1="1.186"
       y1="0.182"
       x2="-0.090999998"
       y2="0.85900003"
       gradientUnits="objectBoundingBox">
      <stop
         offset="0"
         stop-color="#fff1ae"
         id="stop59" />
      <stop
         offset="1"
         stop-color="#ecd76d"
         id="stop61" />
    </linearGradient>
    <linearGradient
       id="linear-gradient-32"
       x1="42.574497"
       y1="13.164263"
       x2="-9.4796085"
       y2="29.87919"
       gradientUnits="userSpaceOnUse"
       gradientTransform="scale(0.86575303,1.1550638)">
      <stop
         offset="0"
         stop-color="#ddd"
         id="stop64" />
      <stop
         offset="1"
         stop-color="#888686"
         id="stop66" />
    </linearGradient>
    <linearGradient
       id="linear-gradient-33"
       x1="-6.9178567"
       y1="26.814087"
       x2="43.133133"
       y2="5.5283728"
       gradientUnits="userSpaceOnUse"
       gradientTransform="scale(0.77798661,1.2853692)">
      <stop
         offset="0"
         id="stop69" />
      <stop
         offset="1"
         stop-color="#545454"
         id="stop71" />
    </linearGradient>
    <radialGradient
       id="radial-gradient-4"
       cx="48.374649"
       cy="43.384686"
       r="52.092712"
       gradientUnits="userSpaceOnUse"
       gradientTransform="scale(0.81604612,1.2254209)"
       fx="48.374649"
       fy="43.384686">
      <stop
         offset="0"
         stop-color="#ff9200"
         id="stop74" />
      <stop
         offset="1"
         stop-color="#ff8448"
         id="stop76" />
    </radialGradient>
    <linearGradient
       id="linear-gradient-35"
       x1="48.374649"
       x2="48.374649"
       y2="95.477394"
       gradientUnits="userSpaceOnUse"
       gradientTransform="scale(0.81604612,1.2254209)"
       y1="-8.7080278">
      <stop
         offset="0"
         stop-color="#ff9200"
         id="stop79" />
      <stop
         offset="0.284"
         stop-color="#ff5f10"
         id="stop81" />
      <stop
         offset="0.683"
         stop-color="#ff9200"
         id="stop83" />
      <stop
         offset="1"
         stop-color="#fc5b0d"
         id="stop85" />
    </linearGradient>
    <linearGradient
       id="linear-gradient-36"
       x1="1.186"
       y1="0.182"
       x2="-0.090999998"
       y2="0.85900003"
       gradientUnits="objectBoundingBox">
      <stop
         offset="0"
         stop-color="#86857f"
         id="stop88" />
      <stop
         offset="1"
         id="stop90" />
    </linearGradient>
    <radialGradient
       id="radial-gradient-5"
       cx="43.618954"
       cy="58.104179"
       r="46.972588"
       gradientUnits="userSpaceOnUse"
       gradientTransform="scale(0.90500721,1.1049636)"
       fx="43.618954"
       fy="58.104179">
      <stop
         offset="0"
         stop-color="#ffca00"
         id="stop93" />
      <stop
         offset="0.037"
         stop-color="#f80"
         id="stop95" />
      <stop
         offset="0.693"
         stop-color="#ffa000"
         id="stop97" />
      <stop
         offset="1"
         stop-color="#fc760d"
         id="stop99" />
    </radialGradient>
    <linearGradient
       id="linear-gradient-37"
       x1="1.182"
       y1="0.29300001"
       x2="-0.329"
       y2="1.187"
       gradientUnits="objectBoundingBox">
      <stop
         offset="0"
         stop-color="#c49e53"
         id="stop102" />
      <stop
         offset="1"
         stop-color="#ffbb76"
         id="stop104" />
    </linearGradient>
    <radialGradient
       id="radial-gradient-6"
       cx="43.449879"
       cy="59.30032"
       r="48.035172"
       gradientUnits="userSpaceOnUse"
       gradientTransform="scale(0.91586545,1.0918634)"
       fx="43.449879"
       fy="59.30032">
      <stop
         offset="0"
         stop-color="#f80"
         id="stop107" />
      <stop
         offset="0.693"
         stop-color="#ff5400"
         id="stop109" />
      <stop
         offset="1"
         stop-color="#fc3d0d"
         id="stop111" />
    </radialGradient>
    <linearGradient
       id="linear-gradient-40"
       x1="16.248077"
       y1="7.1491537"
       x2="0"
       y2="7.0516653"
       gradientUnits="userSpaceOnUse"
       gradientTransform="scale(2.0310096,0.49236596)">
      <stop
         offset="0"
         id="stop114" />
      <stop
         offset="0.191"
         id="stop116" />
      <stop
         offset="0.256"
         stop-color="#efef96"
         id="stop118" />
      <stop
         offset="0.328"
         id="stop120" />
      <stop
         offset="0.5"
         id="stop122" />
      <stop
         offset="0.663"
         id="stop124" />
      <stop
         offset="0.731"
         stop-color="#efef96"
         id="stop126" />
      <stop
         offset="0.823"
         id="stop128" />
      <stop
         offset="1"
         id="stop130" />
    </linearGradient>
    <linearGradient
       id="linear-gradient-41"
       x1="-5.382"
       y1="20.861"
       x2="33.556999"
       y2="4.3010001"
       gradientUnits="userSpaceOnUse">
      <stop
         offset="0"
         stop-color="#34761e"
         id="stop133" />
      <stop
         offset="1"
         stop-color="#65c42e"
         id="stop135" />
    </linearGradient>
    <linearGradient
       id="linear-gradient-42"
       x1="59.387135"
       y1="12.881582"
       x2="-21.705973"
       y2="38.137596"
       xlink:href="#linear-gradient-2"
       gradientTransform="scale(1.0142978,0.98590376)"
       gradientUnits="userSpaceOnUse" />
    <linearGradient
       id="linear-gradient-43"
       x1="32.450649"
       y1="10.033914"
       x2="-7.2254391"
       y2="22.774178"
       gradientUnits="userSpaceOnUse"
       gradientTransform="scale(1.1358479,0.8803996)">
      <stop
         offset="0"
         stop-color="#6e6e6e"
         id="stop139" />
      <stop
         offset="1"
         id="stop141" />
    </linearGradient>
    <clipPath
       id="clip-game">
      <rect
         width="1920"
         height="1080"
         id="rect144"
         x="0"
         y="0" />
    </clipPath>
  </defs>
  <g
     inkscape:groupmode="layer"
     id="layer1"
     inkscape:label="Shelf"
     transform="translate(581.22406,-879.36743)">
    <rect
       id="Rectangle_4"
       data-name="Rectangle 4"
       width="2509.0447"
       height="63.828827"
       x="-581.22406"
       y="879.36743"
       style="fill:#000000;fill-opacity:1;stroke-width:1.76669514" />
    <g
       clip-path="url(#clip-path-2)"
       transform="translate(-581.22406,879.36743)"
       id="wine_glass"
       style="fill:#ffffff;fill-opacity:0.64242422">
      <g
         transform="translate(-210.072,-258.927)"
         data-name="wine_glass"
         id="wine_glass-2"
         style="fill:#ffffff;fill-opacity:0.64242422">
        <path
           inkscape:connector-curvature="0"
           transform="matrix(-1,0.017,-0.017,-1,291.308,399.002)"
           d="M 59.1,126.963 H 48.158 V 94.9 A 39.58,39.58 0 0 0 78.64,52.714 L 74.275,3.981 A 4.341,4.341 0 0 0 69.977,0 H 8.827 a 4.338,4.338 0 0 0 -4.3,3.981 L 0.164,52.717 A 39.58,39.58 0 0 0 30.646,94.9 v 32.064 H 19.7 a 10.946,10.946 0 0 0 -10.945,10.944 2.188,2.188 0 0 0 2.189,2.189 H 67.859 A 2.188,2.188 0 0 0 70.048,137.908 10.946,10.946 0 0 0 59.1,126.963 Z"
           data-name="Icon awesome-wine-glass"
           id="Icon_awesome-wine-glass"
           style="fill:#ffffff;fill-opacity:0.64242422" />
        <path
           style="fill:#ffffff;fill-opacity:0.64242422;stroke:#ffffff;stroke-width:5"
           inkscape:connector-curvature="0"
           transform="translate(-1967.716,110.763)"
           d="m 2237.125,208.389 c 18.525,20.1 8.5,71.6 8.5,71.6"
           data-name="Path 1"
           id="Path_1" />
      </g>
      <g
         transform="translate(-108.072,-258.927)"
         data-name="wine_glass"
         id="wine_glass-3"
         style="fill:#ffffff;fill-opacity:0.64242422">
        <path
           inkscape:connector-curvature="0"
           transform="matrix(-1,0.017,-0.017,-1,291.308,399.002)"
           d="M 59.1,126.963 H 48.158 V 94.9 A 39.58,39.58 0 0 0 78.64,52.714 L 74.275,3.981 A 4.341,4.341 0 0 0 69.977,0 H 8.827 a 4.338,4.338 0 0 0 -4.3,3.981 L 0.164,52.717 A 39.58,39.58 0 0 0 30.646,94.9 v 32.064 H 19.7 a 10.946,10.946 0 0 0 -10.945,10.944 2.188,2.188 0 0 0 2.189,2.189 H 67.859 A 2.188,2.188 0 0 0 70.048,137.908 10.946,10.946 0 0 0 59.1,126.963 Z"
           data-name="Icon awesome-wine-glass"
           id="Icon_awesome-wine-glass-2"
           style="fill:#ffffff;fill-opacity:0.64242422" />
        <path
           style="fill:#ffffff;fill-opacity:0.64242422;stroke:#ffffff;stroke-width:5"
           inkscape:connector-curvature="0"
           transform="translate(-1967.716,110.763)"
           d="m 2237.125,208.389 c 18.525,20.1 8.5,71.6 8.5,71.6"
           data-name="Path 1"
           id="Path_1-2" />
      </g>
      <g
         transform="translate(-6.072,-258.927)"
         data-name="wine_glass"
         id="wine_glass-4"
         style="fill:#ffffff;fill-opacity:0.64242422">
        <path
           inkscape:connector-curvature="0"
           transform="matrix(-1,0.017,-0.017,-1,291.308,399.002)"
           d="M 59.1,126.963 H 48.158 V 94.9 A 39.58,39.58 0 0 0 78.64,52.714 L 74.275,3.981 A 4.341,4.341 0 0 0 69.977,0 H 8.827 a 4.338,4.338 0 0 0 -4.3,3.981 L 0.164,52.717 A 39.58,39.58 0 0 0 30.646,94.9 v 32.064 H 19.7 a 10.946,10.946 0 0 0 -10.945,10.944 2.188,2.188 0 0 0 2.189,2.189 H 67.859 A 2.188,2.188 0 0 0 70.048,137.908 10.946,10.946 0 0 0 59.1,126.963 Z"
           data-name="Icon awesome-wine-glass"
           id="Icon_awesome-wine-glass-3"
           style="fill:#ffffff;fill-opacity:0.64242422" />
        <path
           style="fill:#ffffff;fill-opacity:0.64242422;stroke:#ffffff;stroke-width:5"
           inkscape:connector-curvature="0"
           transform="translate(-1967.716,110.763)"
           d="m 2237.125,208.389 c 18.525,20.1 8.5,71.6 8.5,71.6"
           data-name="Path 1"
           id="Path_1-3" />
      </g>
      <g
         transform="translate(95.928,-258.927)"
         data-name="wine_glass"
         id="wine_glass-5"
         style="fill:#ffffff;fill-opacity:0.64242422">
        <path
           inkscape:connector-curvature="0"
           transform="matrix(-1,0.017,-0.017,-1,291.308,399.002)"
           d="M 59.1,126.963 H 48.158 V 94.9 A 39.58,39.58 0 0 0 78.64,52.714 L 74.275,3.981 A 4.341,4.341 0 0 0 69.977,0 H 8.827 a 4.338,4.338 0 0 0 -4.3,3.981 L 0.164,52.717 A 39.58,39.58 0 0 0 30.646,94.9 v 32.064 H 19.7 a 10.946,10.946 0 0 0 -10.945,10.944 2.188,2.188 0 0 0 2.189,2.189 H 67.859 A 2.188,2.188 0 0 0 70.048,137.908 10.946,10.946 0 0 0 59.1,126.963 Z"
           data-name="Icon awesome-wine-glass"
           id="Icon_awesome-wine-glass-4"
           style="fill:#ffffff;fill-opacity:0.64242422" />
        <path
           style="fill:#ffffff;fill-opacity:0.64242422;stroke:#ffffff;stroke-width:5"
           inkscape:connector-curvature="0"
           transform="translate(-1967.716,110.763)"
           d="m 2237.125,208.389 c 18.525,20.1 8.5,71.6 8.5,71.6"
           data-name="Path 1"
           id="Path_1-4" />
      </g>
      <g
         transform="translate(197.928,-258.927)"
         data-name="wine_glass"
         id="wine_glass-6"
         style="fill:#ffffff;fill-opacity:0.64242422">
        <path
           inkscape:connector-curvature="0"
           transform="matrix(-1,0.017,-0.017,-1,291.308,399.002)"
           d="M 59.1,126.963 H 48.158 V 94.9 A 39.58,39.58 0 0 0 78.64,52.714 L 74.275,3.981 A 4.341,4.341 0 0 0 69.977,0 H 8.827 a 4.338,4.338 0 0 0 -4.3,3.981 L 0.164,52.717 A 39.58,39.58 0 0 0 30.646,94.9 v 32.064 H 19.7 a 10.946,10.946 0 0 0 -10.945,10.944 2.188,2.188 0 0 0 2.189,2.189 H 67.859 A 2.188,2.188 0 0 0 70.048,137.908 10.946,10.946 0 0 0 59.1,126.963 Z"
           data-name="Icon awesome-wine-glass"
           id="Icon_awesome-wine-glass-5"
           style="fill:#ffffff;fill-opacity:0.64242422" />
        <path
           style="fill:#ffffff;fill-opacity:0.64242422;stroke:#ffffff;stroke-width:5"
           inkscape:connector-curvature="0"
           transform="translate(-1967.716,110.763)"
           d="m 2237.125,208.389 c 18.525,20.1 8.5,71.6 8.5,71.6"
           data-name="Path 1"
           id="Path_1-5" />
      </g>
      <g
         transform="translate(299.928,-258.927)"
         data-name="wine_glass"
         id="wine_glass-7"
         style="fill:#ffffff;fill-opacity:0.64242422">
        <path
           inkscape:connector-curvature="0"
           transform="matrix(-1,0.017,-0.017,-1,291.308,399.002)"
           d="M 59.1,126.963 H 48.158 V 94.9 A 39.58,39.58 0 0 0 78.64,52.714 L 74.275,3.981 A 4.341,4.341 0 0 0 69.977,0 H 8.827 a 4.338,4.338 0 0 0 -4.3,3.981 L 0.164,52.717 A 39.58,39.58 0 0 0 30.646,94.9 v 32.064 H 19.7 a 10.946,10.946 0 0 0 -10.945,10.944 2.188,2.188 0 0 0 2.189,2.189 H 67.859 A 2.188,2.188 0 0 0 70.048,137.908 10.946,10.946 0 0 0 59.1,126.963 Z"
           data-name="Icon awesome-wine-glass"
           id="Icon_awesome-wine-glass-6"
           style="fill:#ffffff;fill-opacity:0.64242422" />
        <path
           style="fill:#ffffff;fill-opacity:0.64242422;stroke:#ffffff;stroke-width:5"
           inkscape:connector-curvature="0"
           transform="translate(-1967.716,110.763)"
           d="m 2237.125,208.389 c 18.525,20.1 8.5,71.6 8.5,71.6"
           data-name="Path 1"
           id="Path_1-6" />
      </g>
      <g
         transform="translate(401.928,-258.927)"
         data-name="wine_glass"
         id="wine_glass-8"
         style="fill:#ffffff;fill-opacity:0.64242422">
        <path
           inkscape:connector-curvature="0"
           transform="matrix(-1,0.017,-0.017,-1,291.308,399.002)"
           d="M 59.1,126.963 H 48.158 V 94.9 A 39.58,39.58 0 0 0 78.64,52.714 L 74.275,3.981 A 4.341,4.341 0 0 0 69.977,0 H 8.827 a 4.338,4.338 0 0 0 -4.3,3.981 L 0.164,52.717 A 39.58,39.58 0 0 0 30.646,94.9 v 32.064 H 19.7 a 10.946,10.946 0 0 0 -10.945,10.944 2.188,2.188 0 0 0 2.189,2.189 H 67.859 A 2.188,2.188 0 0 0 70.048,137.908 10.946,10.946 0 0 0 59.1,126.963 Z"
           data-name="Icon awesome-wine-glass"
           id="Icon_awesome-wine-glass-7"
           style="fill:#ffffff;fill-opacity:0.64242422" />
        <path
           style="fill:#ffffff;fill-opacity:0.64242422;stroke:#ffffff;stroke-width:5"
           inkscape:connector-curvature="0"
           transform="translate(-1967.716,110.763)"
           d="m 2237.125,208.389 c 18.525,20.1 8.5,71.6 8.5,71.6"
           data-name="Path 1"
           id="Path_1-7" />
      </g>
    </g>
    <g
       clip-path="url(#clip-path-3)"
       transform="translate(1194.7816,879.36743)"
       id="cocktail_glass"
       style="fill:#ffffff;fill-opacity:0.64242422">
      <g
         id="g200"
         transform="translate(-682,-250.5)"
         style="fill:#ffffff;fill-opacity:0.64242422">
        <g
           transform="rotate(180,556.52,490.27)"
           data-name="cocktail_glass"
           id="cocktail_glass-2"
           style="fill:#ffffff;fill-opacity:0.64242422">
          <path
             inkscape:connector-curvature="0"
             transform="translate(329,588.5)"
             d="M 100.057,15.923 C 104.292,10.046 101.293,0 95.3,0 H 6.736 C 0.747,0 -2.252,10.046 1.983,15.923 l 42.66,59.171 v 53.177 H 33.482 c -4.4,0 -7.972,4.951 -7.972,11.058 0,1.222 0.713,2.212 1.594,2.212 h 47.832 c 0.881,0 1.594,-0.99 1.594,-2.212 0,-6.107 -3.569,-11.058 -7.972,-11.058 H 57.4 V 75.094 Z"
             data-name="Icon awesome-glass-martini"
             id="Icon_awesome-glass-martini"
             style="fill:#ffffff;fill-opacity:0.64242422" />
          <line
             style="fill:#ffffff;fill-opacity:0.64242422;stroke:#ffffff;stroke-width:3"
             y1="0"
             x1="0"
             transform="translate(340.5,599.5)"
             y2="43"
             x2="30"
             data-name="Line 1"
             id="Line_1" />
        </g>
      </g>
      <g
         id="g205"
         transform="translate(-559,-250.5)"
         style="fill:#ffffff;fill-opacity:0.64242422">
        <g
           transform="rotate(180,556.52,490.27)"
           data-name="cocktail_glass"
           id="cocktail_glass-3"
           style="fill:#ffffff;fill-opacity:0.64242422">
          <path
             inkscape:connector-curvature="0"
             transform="translate(329,588.5)"
             d="M 100.057,15.923 C 104.292,10.046 101.293,0 95.3,0 H 6.736 C 0.747,0 -2.252,10.046 1.983,15.923 l 42.66,59.171 v 53.177 H 33.482 c -4.4,0 -7.972,4.951 -7.972,11.058 0,1.222 0.713,2.212 1.594,2.212 h 47.832 c 0.881,0 1.594,-0.99 1.594,-2.212 0,-6.107 -3.569,-11.058 -7.972,-11.058 H 57.4 V 75.094 Z"
             data-name="Icon awesome-glass-martini"
             id="Icon_awesome-glass-martini-2"
             style="fill:#ffffff;fill-opacity:0.64242422" />
          <line
             style="fill:#ffffff;fill-opacity:0.64242422;stroke:#ffffff;stroke-width:3"
             y1="0"
             x1="0"
             transform="translate(340.5,599.5)"
             y2="43"
             x2="30"
             data-name="Line 1"
             id="Line_1-2" />
        </g>
      </g>
      <g
         id="g210"
         transform="translate(-436,-250.5)"
         style="fill:#ffffff;fill-opacity:0.64242422">
        <g
           transform="rotate(180,556.52,490.27)"
           data-name="cocktail_glass"
           id="cocktail_glass-4"
           style="fill:#ffffff;fill-opacity:0.64242422">
          <path
             inkscape:connector-curvature="0"
             transform="translate(329,588.5)"
             d="M 100.057,15.923 C 104.292,10.046 101.293,0 95.3,0 H 6.736 C 0.747,0 -2.252,10.046 1.983,15.923 l 42.66,59.171 v 53.177 H 33.482 c -4.4,0 -7.972,4.951 -7.972,11.058 0,1.222 0.713,2.212 1.594,2.212 h 47.832 c 0.881,0 1.594,-0.99 1.594,-2.212 0,-6.107 -3.569,-11.058 -7.972,-11.058 H 57.4 V 75.094 Z"
             data-name="Icon awesome-glass-martini"
             id="Icon_awesome-glass-martini-3"
             style="fill:#ffffff;fill-opacity:0.64242422" />
          <line
             style="fill:#ffffff;fill-opacity:0.64242422;stroke:#ffffff;stroke-width:3"
             y1="0"
             x1="0"
             transform="translate(340.5,599.5)"
             y2="43"
             x2="30"
             data-name="Line 1"
             id="Line_1-3" />
        </g>
      </g>
      <g
         id="g215"
         transform="translate(-313,-250.5)"
         style="fill:#ffffff;fill-opacity:0.64242422">
        <g
           transform="rotate(180,556.52,490.27)"
           data-name="cocktail_glass"
           id="cocktail_glass-5"
           style="fill:#ffffff;fill-opacity:0.64242422">
          <path
             inkscape:connector-curvature="0"
             transform="translate(329,588.5)"
             d="M 100.057,15.923 C 104.292,10.046 101.293,0 95.3,0 H 6.736 C 0.747,0 -2.252,10.046 1.983,15.923 l 42.66,59.171 v 53.177 H 33.482 c -4.4,0 -7.972,4.951 -7.972,11.058 0,1.222 0.713,2.212 1.594,2.212 h 47.832 c 0.881,0 1.594,-0.99 1.594,-2.212 0,-6.107 -3.569,-11.058 -7.972,-11.058 H 57.4 V 75.094 Z"
             data-name="Icon awesome-glass-martini"
             id="Icon_awesome-glass-martini-4"
             style="fill:#ffffff;fill-opacity:0.64242422" />
          <line
             style="fill:#ffffff;fill-opacity:0.64242422;stroke:#ffffff;stroke-width:3"
             y1="0"
             x1="0"
             transform="translate(340.5,599.5)"
             y2="43"
             x2="30"
             data-name="Line 1"
             id="Line_1-4" />
        </g>
      </g>
      <g
         id="g220"
         transform="translate(-190,-250.5)"
         style="fill:#ffffff;fill-opacity:0.64242422">
        <g
           transform="rotate(180,556.52,490.27)"
           data-name="cocktail_glass"
           id="cocktail_glass-6"
           style="fill:#ffffff;fill-opacity:0.64242422">
          <path
             inkscape:connector-curvature="0"
             transform="translate(329,588.5)"
             d="M 100.057,15.923 C 104.292,10.046 101.293,0 95.3,0 H 6.736 C 0.747,0 -2.252,10.046 1.983,15.923 l 42.66,59.171 v 53.177 H 33.482 c -4.4,0 -7.972,4.951 -7.972,11.058 0,1.222 0.713,2.212 1.594,2.212 h 47.832 c 0.881,0 1.594,-0.99 1.594,-2.212 0,-6.107 -3.569,-11.058 -7.972,-11.058 H 57.4 V 75.094 Z"
             data-name="Icon awesome-glass-martini"
             id="Icon_awesome-glass-martini-5"
             style="fill:#ffffff;fill-opacity:0.64242422" />
          <line
             style="fill:#ffffff;fill-opacity:0.64242422;stroke:#ffffff;stroke-width:3"
             y1="0"
             x1="0"
             transform="translate(340.5,599.5)"
             y2="43"
             x2="30"
             data-name="Line 1"
             id="Line_1-5" />
        </g>
      </g>
      <g
         id="g225"
         transform="translate(-67,-250.5)"
         style="fill:#ffffff;fill-opacity:0.64242422">
        <g
           transform="rotate(180,556.52,490.27)"
           data-name="cocktail_glass"
           id="cocktail_glass-7"
           style="fill:#ffffff;fill-opacity:0.64242422">
          <path
             inkscape:connector-curvature="0"
             transform="translate(329,588.5)"
             d="M 100.057,15.923 C 104.292,10.046 101.293,0 95.3,0 H 6.736 C 0.747,0 -2.252,10.046 1.983,15.923 l 42.66,59.171 v 53.177 H 33.482 c -4.4,0 -7.972,4.951 -7.972,11.058 0,1.222 0.713,2.212 1.594,2.212 h 47.832 c 0.881,0 1.594,-0.99 1.594,-2.212 0,-6.107 -3.569,-11.058 -7.972,-11.058 H 57.4 V 75.094 Z"
             data-name="Icon awesome-glass-martini"
             id="Icon_awesome-glass-martini-6"
             style="fill:#ffffff;fill-opacity:0.64242422" />
          <line
             style="fill:#ffffff;fill-opacity:0.64242422;stroke:#ffffff;stroke-width:3"
             y1="0"
             x1="0"
             transform="translate(340.5,599.5)"
             y2="43"
             x2="30"
             data-name="Line 1"
             id="Line_1-6" />
        </g>
      </g>
    </g>
  </g>
</svg>
